<svg xmlns="http://www.w3.org/2000/svg" viewBox="0 0 375 683" fill="none"><g clippath="url(#clip0_698_1124)"><rect width="375" height="683" fill="#090D16"></rect><path d="M-718 426L-728 421.226V432.774L-718 428V426ZM1779 427L1769 421.226V432.774L1779 427ZM-719 428H1770V426H-719V428Z" fill="#7FF252"></path><rect x="-23" y="250" width="248" height="75" rx="6" fill="#272727"></rect><path d="M-2.00053 273.398C-2.34428 273.398 -2.6582 273.314 -2.94229 273.146C-3.22638 272.976 -3.45366 272.749 -3.62411 272.464C-3.79173 272.18 -3.87553 271.866 -3.87553 271.523C-3.87553 271.176 -3.79173 270.862 -3.62411 270.581C-3.45366 270.297 -3.22638 270.071 -2.94229 269.903C-2.6582 269.733 -2.34428 269.648 -2.00053 269.648C-1.65394 269.648 -1.34002 269.733 -1.05877 269.903C-0.77468 270.071 -0.548828 270.297 -0.381214 270.581C-0.21076 270.862 -0.125533 271.176 -0.125533 271.523C-0.125533 271.866 -0.21076 272.18 -0.381214 272.464C-0.548828 272.749 -0.77468 272.976 -1.05877 273.146C-1.34002 273.314 -1.65394 273.398 -2.00053 273.398ZM7.75852 275V266.273H11.2017C11.8636 266.273 12.4276 266.399 12.8935 266.652C13.3594 266.902 13.7145 267.25 13.9588 267.696C14.206 268.139 14.3295 268.651 14.3295 269.23C14.3295 269.81 14.2045 270.321 13.9545 270.764C13.7045 271.207 13.3423 271.553 12.8679 271.8C12.3963 272.047 11.8253 272.17 11.1548 272.17H8.96023V270.692H10.8565C11.2116 270.692 11.5043 270.631 11.7344 270.509C11.9673 270.384 12.1406 270.212 12.2543 269.993C12.3707 269.771 12.429 269.517 12.429 269.23C12.429 268.94 12.3707 268.687 12.2543 268.472C12.1406 268.253 11.9673 268.084 11.7344 267.964C11.5014 267.842 11.206 267.781 10.848 267.781H9.60369V275H7.75852ZM15.614 275V268.455H17.3739V269.597H17.4421C17.5614 269.19 17.7617 268.884 18.0429 268.676C18.3242 268.466 18.6481 268.361 19.0145 268.361C19.1054 268.361 19.2035 268.366 19.3086 268.378C19.4137 268.389 19.506 268.405 19.5856 268.425V270.036C19.5003 270.01 19.3824 269.987 19.2319 269.967C19.0813 269.947 18.9435 269.938 18.8185 269.938C18.5515 269.938 18.3128 269.996 18.1026 270.112C17.8952 270.226 17.7304 270.385 17.6083 270.589C17.489 270.794 17.4293 271.03 17.4293 271.297V275H15.614ZM23.2968 275.128C22.6349 275.128 22.0624 274.987 21.5795 274.706C21.0994 274.422 20.7286 274.027 20.4673 273.521C20.2059 273.013 20.0752 272.423 20.0752 271.753C20.0752 271.077 20.2059 270.486 20.4673 269.98C20.7286 269.472 21.0994 269.077 21.5795 268.795C22.0624 268.511 22.6349 268.369 23.2968 268.369C23.9587 268.369 24.5298 268.511 25.0099 268.795C25.4928 269.077 25.865 269.472 26.1264 269.98C26.3877 270.486 26.5184 271.077 26.5184 271.753C26.5184 272.423 26.3877 273.013 26.1264 273.521C25.865 274.027 25.4928 274.422 25.0099 274.706C24.5298 274.987 23.9587 275.128 23.2968 275.128ZM23.3053 273.722C23.6065 273.722 23.8579 273.636 24.0596 273.466C24.2613 273.293 24.4133 273.057 24.5156 272.759C24.6207 272.46 24.6732 272.121 24.6732 271.74C24.6732 271.359 24.6207 271.02 24.5156 270.722C24.4133 270.423 24.2613 270.187 24.0596 270.014C23.8579 269.841 23.6065 269.754 23.3053 269.754C23.0014 269.754 22.7457 269.841 22.5383 270.014C22.3337 270.187 22.1789 270.423 22.0738 270.722C21.9715 271.02 21.9204 271.359 21.9204 271.74C21.9204 272.121 21.9715 272.46 22.0738 272.759C22.1789 273.057 22.3337 273.293 22.5383 273.466C22.7457 273.636 23.0014 273.722 23.3053 273.722ZM31.3387 268.455V269.818H27.2989V268.455H31.3387ZM28.2236 275V267.982C28.2236 267.507 28.316 267.114 28.5006 266.801C28.6881 266.489 28.9438 266.254 29.2677 266.098C29.5915 265.942 29.9594 265.864 30.3714 265.864C30.6498 265.864 30.904 265.885 31.1341 265.928C31.3671 265.97 31.5404 266.009 31.654 266.043L31.3302 267.406C31.2591 267.384 31.1711 267.362 31.066 267.342C30.9637 267.322 30.8586 267.312 30.7506 267.312C30.4836 267.312 30.2975 267.375 30.1924 267.5C30.0873 267.622 30.0347 267.794 30.0347 268.016V275H28.2236ZM32.5677 275V268.455H34.3831V275H32.5677ZM33.4796 267.611C33.2098 267.611 32.9782 267.521 32.785 267.342C32.5947 267.161 32.4995 266.943 32.4995 266.69C32.4995 266.44 32.5947 266.226 32.785 266.047C32.9782 265.865 33.2098 265.774 33.4796 265.774C33.7495 265.774 33.9796 265.865 34.17 266.047C34.3632 266.226 34.4598 266.44 34.4598 266.69C34.4598 266.943 34.3632 267.161 34.17 267.342C33.9796 267.521 33.7495 267.611 33.4796 267.611ZM37.7726 266.273V275H35.9572V266.273H37.7726ZM42.3297 275.128C41.6564 275.128 41.0769 274.991 40.5911 274.719C40.1081 274.443 39.736 274.054 39.4746 273.551C39.2133 273.045 39.0826 272.447 39.0826 271.757C39.0826 271.084 39.2133 270.493 39.4746 269.984C39.736 269.476 40.1039 269.08 40.5783 268.795C41.0556 268.511 41.6152 268.369 42.2573 268.369C42.6891 268.369 43.0911 268.439 43.4633 268.578C43.8383 268.714 44.165 268.92 44.4434 269.196C44.7246 269.472 44.9434 269.818 45.0996 270.236C45.2559 270.651 45.334 271.136 45.334 271.693V272.192H39.807V271.067H43.6252C43.6252 270.805 43.5684 270.574 43.4547 270.372C43.3411 270.17 43.1834 270.013 42.9817 269.899C42.7829 269.783 42.5513 269.724 42.2871 269.724C42.0115 269.724 41.7672 269.788 41.5542 269.916C41.3439 270.041 41.1792 270.21 41.0598 270.423C40.9405 270.634 40.8794 270.868 40.8766 271.126V272.196C40.8766 272.52 40.9363 272.8 41.0556 273.036C41.1777 273.271 41.3496 273.453 41.5712 273.581C41.7928 273.709 42.0556 273.773 42.3596 273.773C42.5613 273.773 42.7459 273.744 42.9135 273.688C43.0812 273.631 43.2246 273.545 43.3439 273.432C43.4633 273.318 43.5542 273.179 43.6167 273.014L45.2956 273.125C45.2104 273.528 45.0357 273.881 44.7715 274.182C44.5101 274.48 44.1721 274.713 43.7573 274.881C43.3454 275.045 42.8695 275.128 42.3297 275.128ZM50.4398 265.864L47.6273 276.312H46.0634L48.8759 265.864H50.4398ZM53.3137 266.273V275H51.4685V266.273H53.3137ZM58.0456 275H54.9518V266.273H58.0711C58.949 266.273 59.7046 266.447 60.3382 266.797C60.9717 267.143 61.4589 267.642 61.7998 268.293C62.1436 268.943 62.3154 269.722 62.3154 270.628C62.3154 271.537 62.1436 272.318 61.7998 272.972C61.4589 273.625 60.9689 274.126 60.3296 274.476C59.6933 274.825 58.9319 275 58.0456 275ZM56.797 273.419H57.9689C58.5143 273.419 58.9731 273.322 59.3453 273.129C59.7203 272.933 60.0015 272.631 60.189 272.222C60.3794 271.81 60.4745 271.278 60.4745 270.628C60.4745 269.983 60.3794 269.456 60.189 269.047C60.0015 268.638 59.7217 268.337 59.3495 268.143C58.9774 267.95 58.5186 267.854 57.9731 267.854H56.797V273.419ZM72.1115 270.321L70.4496 270.423C70.4212 270.281 70.3601 270.153 70.2664 270.04C70.1726 269.923 70.049 269.831 69.8956 269.763C69.7451 269.692 69.5647 269.656 69.3544 269.656C69.0732 269.656 68.836 269.716 68.6428 269.835C68.4496 269.952 68.353 270.108 68.353 270.304C68.353 270.46 68.4155 270.592 68.5405 270.7C68.6655 270.808 68.88 270.895 69.184 270.96L70.3687 271.199C71.005 271.33 71.4794 271.54 71.7919 271.83C72.1044 272.119 72.2607 272.5 72.2607 272.972C72.2607 273.401 72.1343 273.777 71.8814 274.101C71.6314 274.425 71.2877 274.678 70.8502 274.859C70.4155 275.038 69.9141 275.128 69.3459 275.128C68.4794 275.128 67.7891 274.947 67.2749 274.587C66.7635 274.223 66.4638 273.729 66.3758 273.104L68.1613 273.01C68.2152 273.274 68.3459 273.476 68.5533 273.615C68.7607 273.751 69.0263 273.82 69.3502 273.82C69.6684 273.82 69.924 273.759 70.1172 273.636C70.3133 273.511 70.4127 273.351 70.4155 273.155C70.4127 272.99 70.3431 272.855 70.2067 272.75C70.0704 272.642 69.8601 272.56 69.576 272.503L68.4425 272.277C67.8033 272.149 67.3275 271.928 67.015 271.612C66.7053 271.297 66.5505 270.895 66.5505 270.406C66.5505 269.986 66.6641 269.624 66.8914 269.32C67.1215 269.016 67.4439 268.781 67.8587 268.616C68.2763 268.452 68.765 268.369 69.3246 268.369C70.1513 268.369 70.8019 268.544 71.2763 268.893C71.7536 269.243 72.032 269.719 72.1115 270.321ZM74.6445 277.455C74.4144 277.455 74.1985 277.436 73.9968 277.399C73.798 277.365 73.6332 277.321 73.5025 277.267L73.9116 275.912C74.1247 275.977 74.3164 276.013 74.4869 276.018C74.6602 276.024 74.8093 275.984 74.9343 275.899C75.0622 275.814 75.1659 275.669 75.2454 275.464L75.3519 275.188L73.0039 268.455H74.913L76.2681 273.261H76.3363L77.7042 268.455H79.6261L77.082 275.707C76.9599 276.06 76.7937 276.366 76.5835 276.628C76.3761 276.892 76.1133 277.095 75.7951 277.237C75.4769 277.382 75.0934 277.455 74.6445 277.455ZM86.1211 270.321L84.4591 270.423C84.4307 270.281 84.3697 270.153 84.2759 270.04C84.1822 269.923 84.0586 269.831 83.9052 269.763C83.7546 269.692 83.5742 269.656 83.364 269.656C83.0827 269.656 82.8455 269.716 82.6523 269.835C82.4591 269.952 82.3626 270.108 82.3626 270.304C82.3626 270.46 82.4251 270.592 82.5501 270.7C82.6751 270.808 82.8895 270.895 83.1935 270.96L84.3782 271.199C85.0145 271.33 85.489 271.54 85.8015 271.83C86.114 272.119 86.2702 272.5 86.2702 272.972C86.2702 273.401 86.1438 273.777 85.891 274.101C85.641 274.425 85.2972 274.678 84.8597 274.859C84.4251 275.038 83.9236 275.128 83.3555 275.128C82.489 275.128 81.7986 274.947 81.2844 274.587C80.7731 274.223 80.4733 273.729 80.3853 273.104L82.1708 273.01C82.2248 273.274 82.3555 273.476 82.5628 273.615C82.7702 273.751 83.0358 273.82 83.3597 273.82C83.6779 273.82 83.9336 273.759 84.1268 273.636C84.3228 273.511 84.4222 273.351 84.4251 273.155C84.4222 272.99 84.3526 272.855 84.2162 272.75C84.0799 272.642 83.8697 272.56 83.5856 272.503L82.452 272.277C81.8128 272.149 81.337 271.928 81.0245 271.612C80.7148 271.297 80.56 270.895 80.56 270.406C80.56 269.986 80.6736 269.624 80.9009 269.32C81.131 269.016 81.4535 268.781 81.8682 268.616C82.2858 268.452 82.7745 268.369 83.3341 268.369C84.1609 268.369 84.8114 268.544 85.2858 268.893C85.7631 269.243 86.0415 269.719 86.1211 270.321ZM91.0149 268.455V269.818H87.0731V268.455H91.0149ZM87.968 266.886H89.7833V272.989C89.7833 273.156 89.8089 273.287 89.86 273.381C89.9112 273.472 89.9822 273.536 90.0731 273.572C90.1669 273.609 90.2748 273.628 90.397 273.628C90.4822 273.628 90.5674 273.621 90.6527 273.607C90.7379 273.589 90.8032 273.577 90.8487 273.568L91.1342 274.919C91.0433 274.947 90.9154 274.98 90.7507 275.017C90.5859 275.057 90.3856 275.081 90.1498 275.089C89.7123 275.107 89.3288 275.048 88.9992 274.915C88.6725 274.781 88.4183 274.574 88.2365 274.293C88.0546 274.011 87.9652 273.656 87.968 273.227V266.886ZM95.23 275.128C94.5568 275.128 93.9772 274.991 93.4914 274.719C93.0085 274.443 92.6363 274.054 92.3749 273.551C92.1136 273.045 91.9829 272.447 91.9829 271.757C91.9829 271.084 92.1136 270.493 92.3749 269.984C92.6363 269.476 93.0042 269.08 93.4786 268.795C93.9559 268.511 94.5156 268.369 95.1576 268.369C95.5894 268.369 95.9914 268.439 96.3636 268.578C96.7386 268.714 97.0653 268.92 97.3437 269.196C97.6249 269.472 97.8437 269.818 97.9999 270.236C98.1562 270.651 98.2343 271.136 98.2343 271.693V272.192H92.7073V271.067H96.5255C96.5255 270.805 96.4687 270.574 96.355 270.372C96.2414 270.17 96.0837 270.013 95.882 269.899C95.6832 269.783 95.4516 269.724 95.1874 269.724C94.9119 269.724 94.6675 269.788 94.4545 269.916C94.2443 270.041 94.0795 270.21 93.9602 270.423C93.8408 270.634 93.7798 270.868 93.7769 271.126V272.196C93.7769 272.52 93.8366 272.8 93.9559 273.036C94.0781 273.271 94.2499 273.453 94.4715 273.581C94.6931 273.709 94.9559 273.773 95.2599 273.773C95.4616 273.773 95.6462 273.744 95.8139 273.688C95.9815 273.631 96.1249 273.545 96.2443 273.432C96.3636 273.318 96.4545 273.179 96.517 273.014L98.196 273.125C98.1107 273.528 97.936 273.881 97.6718 274.182C97.4104 274.48 97.0724 274.713 96.6576 274.881C96.2457 275.045 95.7698 275.128 95.23 275.128ZM99.539 275V268.455H101.269V269.609H101.346C101.482 269.226 101.709 268.923 102.028 268.702C102.346 268.48 102.726 268.369 103.17 268.369C103.619 268.369 104.001 268.482 104.316 268.706C104.631 268.928 104.842 269.229 104.947 269.609H105.015C105.148 269.234 105.39 268.935 105.739 268.71C106.092 268.483 106.508 268.369 106.988 268.369C107.599 268.369 108.094 268.564 108.475 268.953C108.859 269.339 109.05 269.888 109.05 270.598V275H107.239V270.956C107.239 270.592 107.143 270.32 106.949 270.138C106.756 269.956 106.515 269.865 106.225 269.865C105.895 269.865 105.638 269.97 105.454 270.18C105.269 270.388 105.177 270.662 105.177 271.003V275H103.417V270.918C103.417 270.597 103.324 270.341 103.14 270.151C102.958 269.96 102.718 269.865 102.42 269.865C102.218 269.865 102.036 269.916 101.874 270.018C101.715 270.118 101.589 270.259 101.495 270.44C101.401 270.619 101.354 270.83 101.354 271.071V275H99.539ZM-2.00053 290.398C-2.34428 290.398 -2.6582 290.314 -2.94229 290.146C-3.22638 289.976 -3.45366 289.749 -3.62411 289.464C-3.79173 289.18 -3.87553 288.866 -3.87553 288.523C-3.87553 288.176 -3.79173 287.862 -3.62411 287.581C-3.45366 287.297 -3.22638 287.071 -2.94229 286.903C-2.6582 286.733 -2.34428 286.648 -2.00053 286.648C-1.65394 286.648 -1.34002 286.733 -1.05877 286.903C-0.77468 287.071 -0.548828 287.297 -0.381214 287.581C-0.21076 287.862 -0.125533 288.176 -0.125533 288.523C-0.125533 288.866 -0.21076 289.18 -0.381214 289.464C-0.548828 289.749 -0.77468 289.976 -1.05877 290.146C-1.34002 290.314 -1.65394 290.398 -2.00053 290.398ZM7.75852 283.273H10.0341L12.4375 289.136H12.5398L14.9432 283.273H17.2188V292H15.429V286.32H15.3565L13.098 291.957H11.8793L9.62074 286.298H9.5483V292H7.75852V283.273ZM21.7823 292.128C21.1204 292.128 20.5479 291.987 20.065 291.706C19.5848 291.422 19.2141 291.027 18.9527 290.521C18.6914 290.013 18.5607 289.423 18.5607 288.753C18.5607 288.077 18.6914 287.486 18.9527 286.98C19.2141 286.472 19.5848 286.077 20.065 285.795C20.5479 285.511 21.1204 285.369 21.7823 285.369C22.4442 285.369 23.0152 285.511 23.4954 285.795C23.9783 286.077 24.3505 286.472 24.6118 286.98C24.8732 287.486 25.0039 288.077 25.0039 288.753C25.0039 289.423 24.8732 290.013 24.6118 290.521C24.3505 291.027 23.9783 291.422 23.4954 291.706C23.0152 291.987 22.4442 292.128 21.7823 292.128ZM21.7908 290.722C22.0919 290.722 22.3434 290.636 22.5451 290.466C22.7468 290.293 22.8988 290.057 23.001 289.759C23.1062 289.46 23.1587 289.121 23.1587 288.74C23.1587 288.359 23.1062 288.02 23.001 287.722C22.8988 287.423 22.7468 287.187 22.5451 287.014C22.3434 286.841 22.0919 286.754 21.7908 286.754C21.4868 286.754 21.2312 286.841 21.0238 287.014C20.8192 287.187 20.6644 287.423 20.5593 287.722C20.457 288.02 20.4059 288.359 20.4059 288.74C20.4059 289.121 20.457 289.46 20.5593 289.759C20.6644 290.057 20.8192 290.293 21.0238 290.466C21.2312 290.636 21.4868 290.722 21.7908 290.722ZM26.3384 292V283.273H28.1537V286.554H28.2091C28.2887 286.378 28.4037 286.199 28.5543 286.017C28.7077 285.832 28.9066 285.679 29.1509 285.557C29.398 285.432 29.7048 285.369 30.0713 285.369C30.5486 285.369 30.9889 285.494 31.3923 285.744C31.7958 285.991 32.1182 286.365 32.3597 286.865C32.6012 287.362 32.7219 287.986 32.7219 288.736C32.7219 289.466 32.604 290.082 32.3682 290.585C32.1352 291.085 31.8171 291.464 31.4137 291.723C31.0131 291.979 30.5642 292.107 30.0671 292.107C29.7148 292.107 29.4151 292.048 29.1679 291.932C28.9236 291.815 28.7233 291.669 28.5671 291.493C28.4108 291.314 28.2915 291.134 28.2091 290.952H28.1281V292H26.3384ZM28.1154 288.727C28.1154 289.116 28.1693 289.456 28.2773 289.746C28.3852 290.036 28.5415 290.261 28.746 290.423C28.9506 290.582 29.1992 290.662 29.4918 290.662C29.7872 290.662 30.0372 290.581 30.2418 290.419C30.4463 290.254 30.6012 290.027 30.7063 289.737C30.8142 289.445 30.8682 289.108 30.8682 288.727C30.8682 288.349 30.8156 288.017 30.7105 287.73C30.6054 287.443 30.4506 287.219 30.246 287.057C30.0415 286.895 29.7901 286.814 29.4918 286.814C29.1963 286.814 28.9463 286.892 28.7418 287.048C28.5401 287.205 28.3852 287.426 28.2773 287.713C28.1693 288 28.1154 288.338 28.1154 288.727ZM34.0532 292V285.455H35.8685V292H34.0532ZM34.9651 284.611C34.6952 284.611 34.4637 284.521 34.2705 284.342C34.0802 284.161 33.985 283.943 33.985 283.69C33.985 283.44 34.0802 283.226 34.2705 283.047C34.4637 282.865 34.6952 282.774 34.9651 282.774C35.235 282.774 35.4651 282.865 35.6555 283.047C35.8486 283.226 35.9452 283.44 35.9452 283.69C35.9452 283.943 35.8486 284.161 35.6555 284.342C35.4651 284.521 35.235 284.611 34.9651 284.611ZM39.2581 283.273V292H37.4427V283.273H39.2581ZM43.8152 292.128C43.1419 292.128 42.5624 291.991 42.0766 291.719C41.5936 291.443 41.2214 291.054 40.9601 290.551C40.6987 290.045 40.568 289.447 40.568 288.757C40.568 288.084 40.6987 287.493 40.9601 286.984C41.2214 286.476 41.5893 286.08 42.0638 285.795C42.541 285.511 43.1007 285.369 43.7428 285.369C44.1746 285.369 44.5766 285.439 44.9487 285.578C45.3237 285.714 45.6504 285.92 45.9288 286.196C46.2101 286.472 46.4288 286.818 46.5851 287.236C46.7413 287.651 46.8195 288.136 46.8195 288.693V289.192H41.2925V288.067H45.1107C45.1107 287.805 45.0538 287.574 44.9402 287.372C44.8266 287.17 44.6689 287.013 44.4672 286.899C44.2683 286.783 44.0368 286.724 43.7726 286.724C43.497 286.724 43.2527 286.788 43.0396 286.916C42.8294 287.041 42.6646 287.21 42.5453 287.423C42.426 287.634 42.3649 287.868 42.3621 288.126V289.196C42.3621 289.52 42.4217 289.8 42.541 290.036C42.6632 290.271 42.8351 290.453 43.0567 290.581C43.2783 290.709 43.541 290.773 43.845 290.773C44.0467 290.773 44.2314 290.744 44.399 290.688C44.5666 290.631 44.7101 290.545 44.8294 290.432C44.9487 290.318 45.0396 290.179 45.1021 290.014L46.7811 290.125C46.6959 290.528 46.5212 290.881 46.257 291.182C45.9956 291.48 45.6575 291.713 45.2428 291.881C44.8308 292.045 44.355 292.128 43.8152 292.128ZM52.5598 292H50.5825L53.5953 283.273H55.9732L58.9817 292H57.0044L54.8183 285.267H54.7502L52.5598 292ZM52.4362 288.57H57.1067V290.01H52.4362V288.57ZM60.118 294.455V285.455H61.9078V286.554H61.9888C62.0683 286.378 62.1834 286.199 62.3339 286.017C62.4873 285.832 62.6862 285.679 62.9305 285.557C63.1777 285.432 63.4845 285.369 63.851 285.369C64.3283 285.369 64.7686 285.494 65.172 285.744C65.5754 285.991 65.8979 286.365 66.1393 286.865C66.3808 287.362 66.5015 287.986 66.5015 288.736C66.5015 289.466 66.3836 290.082 66.1479 290.585C65.9149 291.085 65.5967 291.464 65.1933 291.723C64.7927 291.979 64.3439 292.107 63.8467 292.107C63.4944 292.107 63.1947 292.048 62.9476 291.932C62.7033 291.815 62.503 291.669 62.3467 291.493C62.1905 291.314 62.0711 291.134 61.9888 290.952H61.9334V294.455H60.118ZM61.895 288.727C61.895 289.116 61.949 289.456 62.0569 289.746C62.1649 290.036 62.3211 290.261 62.5257 290.423C62.7302 290.582 62.9788 290.662 63.2714 290.662C63.5669 290.662 63.8169 290.581 64.0214 290.419C64.226 290.254 64.3808 290.027 64.4859 289.737C64.5939 289.445 64.6479 289.108 64.6479 288.727C64.6479 288.349 64.5953 288.017 64.4902 287.73C64.3851 287.443 64.2302 287.219 64.0257 287.057C63.8211 286.895 63.5697 286.814 63.2714 286.814C62.976 286.814 62.726 286.892 62.5214 287.048C62.3197 287.205 62.1649 287.426 62.0569 287.713C61.949 288 61.895 288.338 61.895 288.727ZM67.8318 294.455V285.455H69.6216V286.554H69.7025C69.7821 286.378 69.8971 286.199 70.0477 286.017C70.2011 285.832 70.4 285.679 70.6443 285.557C70.8914 285.432 71.1983 285.369 71.5647 285.369C72.042 285.369 72.4823 285.494 72.8858 285.744C73.2892 285.991 73.6116 286.365 73.8531 286.865C74.0946 287.362 74.2153 287.986 74.2153 288.736C74.2153 289.466 74.0974 290.082 73.8616 290.585C73.6287 291.085 73.3105 291.464 72.9071 291.723C72.5065 291.979 72.0576 292.107 71.5605 292.107C71.2082 292.107 70.9085 292.048 70.6613 291.932C70.417 291.815 70.2167 291.669 70.0605 291.493C69.9042 291.314 69.7849 291.134 69.7025 290.952H69.6471V294.455H67.8318ZM69.6088 288.727C69.6088 289.116 69.6627 289.456 69.7707 289.746C69.8787 290.036 70.0349 290.261 70.2394 290.423C70.444 290.582 70.6926 290.662 70.9852 290.662C71.2806 290.662 71.5306 290.581 71.7352 290.419C71.9397 290.254 72.0946 290.027 72.1997 289.737C72.3076 289.445 72.3616 289.108 72.3616 288.727C72.3616 288.349 72.3091 288.017 72.2039 287.73C72.0988 287.443 71.944 287.219 71.7394 287.057C71.5349 286.895 71.2835 286.814 70.9852 286.814C70.6897 286.814 70.4397 286.892 70.2352 287.048C70.0335 287.205 69.8787 287.426 69.7707 287.713C69.6627 288 69.6088 288.338 69.6088 288.727ZM-2.00053 307.398C-2.34428 307.398 -2.6582 307.314 -2.94229 307.146C-3.22638 306.976 -3.45366 306.749 -3.62411 306.464C-3.79173 306.18 -3.87553 305.866 -3.87553 305.523C-3.87553 305.176 -3.79173 304.862 -3.62411 304.581C-3.45366 304.297 -3.22638 304.071 -2.94229 303.903C-2.6582 303.733 -2.34428 303.648 -2.00053 303.648C-1.65394 303.648 -1.34002 303.733 -1.05877 303.903C-0.77468 304.071 -0.548828 304.297 -0.381214 304.581C-0.21076 304.862 -0.125533 305.176 -0.125533 305.523C-0.125533 305.866 -0.21076 306.18 -0.381214 306.464C-0.548828 306.749 -0.77468 306.976 -1.05877 307.146C-1.34002 307.314 -1.65394 307.398 -2.00053 307.398ZM15.0582 300.273V309H13.4645L9.66761 303.507H9.60369V309H7.75852V300.273H9.37784L13.1449 305.761H13.2216V300.273H15.0582ZM16.7027 309V300.273H22.4812V301.794H18.5479V303.874H22.0976V305.395H18.5479V309H16.7027ZM23.5099 301.794V300.273H30.6775V301.794H28.0056V309H26.1818V301.794H23.5099Z" fill="white"></path><path d="M67.3962 350.449H69.7485L70.931 351.97L72.0944 353.325L74.2868 356.074H71.7045L70.1959 354.22L69.4225 353.121L67.3962 350.449ZM74.485 348.455C74.485 349.882 74.2144 351.097 73.6732 352.098C73.1363 353.099 72.4033 353.864 71.4743 354.393C70.5496 354.917 69.5099 355.179 68.355 355.179C67.1917 355.179 66.1476 354.915 65.2229 354.386C64.2982 353.858 63.5674 353.093 63.0305 352.092C62.4935 351.09 62.2251 349.878 62.2251 348.455C62.2251 347.027 62.4935 345.812 63.0305 344.811C63.5674 343.81 64.2982 343.047 65.2229 342.523C66.1476 341.994 67.1917 341.73 68.355 341.73C69.5099 341.73 70.5496 341.994 71.4743 342.523C72.4033 343.047 73.1363 343.81 73.6732 344.811C74.2144 345.812 74.485 347.027 74.485 348.455ZM71.6789 348.455C71.6789 347.53 71.5404 346.75 71.2634 346.115C70.9907 345.48 70.605 344.999 70.1064 344.67C69.6079 344.342 69.0241 344.178 68.355 344.178C67.686 344.178 67.1022 344.342 66.6036 344.67C66.105 344.999 65.7172 345.48 65.4403 346.115C65.1675 346.75 65.0312 347.53 65.0312 348.455C65.0312 349.379 65.1675 350.159 65.4403 350.794C65.7172 351.429 66.105 351.911 66.6036 352.239C67.1022 352.567 67.686 352.731 68.355 352.731C69.0241 352.731 69.6079 352.567 70.1064 352.239C70.605 351.911 70.9907 351.429 71.2634 350.794C71.5404 350.159 71.6789 349.379 71.6789 348.455ZM81.2973 355.179C80.3428 355.179 79.4926 355.015 78.7469 354.687C78.0054 354.354 77.4195 353.898 76.9891 353.319C76.5629 352.735 76.3435 352.062 76.3307 351.299H79.1176C79.1347 351.619 79.2391 351.9 79.4308 352.143C79.6269 352.381 79.8868 352.567 80.2107 352.699C80.5345 352.831 80.8989 352.897 81.3037 352.897C81.7256 352.897 82.0985 352.822 82.4223 352.673C82.7462 352.524 82.9997 352.317 83.183 352.053C83.3662 351.789 83.4578 351.484 83.4578 351.139C83.4578 350.79 83.3598 350.481 83.1638 350.212C82.972 349.94 82.695 349.727 82.3328 349.573C81.9749 349.42 81.5487 349.343 81.0544 349.343H79.8335V347.31H81.0544C81.472 347.31 81.8406 347.238 82.1602 347.093C82.4841 346.948 82.7355 346.748 82.9145 346.492C83.0935 346.232 83.183 345.93 83.183 345.585C83.183 345.256 83.1041 344.969 82.9465 344.722C82.7931 344.47 82.5757 344.274 82.2945 344.134C82.0175 343.993 81.6936 343.923 81.3229 343.923C80.9479 343.923 80.6048 343.991 80.2938 344.127C79.9827 344.259 79.7334 344.449 79.5459 344.696C79.3584 344.943 79.2583 345.233 79.2455 345.565H76.5928C76.6056 344.811 76.8208 344.146 77.2384 343.571C77.656 342.996 78.2185 342.546 78.9259 342.222C79.6375 341.894 80.4408 341.73 81.3357 341.73C82.2391 341.73 83.0296 341.894 83.7071 342.222C84.3847 342.55 84.911 342.994 85.286 343.552C85.6652 344.106 85.8527 344.728 85.8485 345.418C85.8527 346.151 85.6247 346.763 85.1645 347.253C84.7085 347.743 84.1141 348.054 83.3811 348.186V348.288C84.3442 348.412 85.0771 348.746 85.58 349.292C86.0871 349.833 86.3385 350.511 86.3343 351.325C86.3385 352.07 86.1233 352.733 85.6887 353.312C85.2583 353.892 84.6638 354.348 83.9053 354.68C83.1468 355.013 82.2774 355.179 81.2973 355.179ZM94.051 341.295L89.8323 356.969H87.4864L91.7052 341.295H94.051ZM95.3374 355V353.006L99.9972 348.691C100.394 348.308 100.726 347.962 100.994 347.656C101.267 347.349 101.474 347.048 101.614 346.754C101.755 346.456 101.825 346.134 101.825 345.789C101.825 345.406 101.738 345.075 101.563 344.798C101.389 344.517 101.15 344.302 100.847 344.153C100.545 343.999 100.202 343.923 99.8183 343.923C99.4177 343.923 99.0683 344.004 98.77 344.165C98.4717 344.327 98.2416 344.56 98.0796 344.862C97.9177 345.165 97.8367 345.525 97.8367 345.942H95.2096C95.2096 345.086 95.4035 344.342 95.7913 343.712C96.1791 343.081 96.7224 342.593 97.4213 342.248C98.1201 341.903 98.9255 341.73 99.8374 341.73C100.775 341.73 101.591 341.896 102.286 342.229C102.984 342.557 103.528 343.013 103.916 343.597C104.303 344.18 104.497 344.849 104.497 345.604C104.497 346.098 104.399 346.586 104.203 347.067C104.011 347.549 103.668 348.084 103.174 348.672C102.68 349.256 101.983 349.957 101.084 350.775L99.1727 352.648V352.737H104.67V355H95.3374ZM111.808 355.288C110.709 355.283 109.763 355.013 108.97 354.476C108.182 353.939 107.574 353.161 107.148 352.143C106.726 351.124 106.518 349.899 106.522 348.467C106.522 347.04 106.733 345.823 107.155 344.817C107.581 343.812 108.188 343.047 108.976 342.523C109.769 341.994 110.713 341.73 111.808 341.73C112.903 341.73 113.845 341.994 114.633 342.523C115.426 343.051 116.035 343.818 116.462 344.824C116.888 345.825 117.099 347.04 117.094 348.467C117.094 349.903 116.881 351.131 116.455 352.149C116.033 353.168 115.428 353.945 114.64 354.482C113.851 355.019 112.908 355.288 111.808 355.288ZM111.808 352.993C112.558 352.993 113.157 352.616 113.604 351.862C114.052 351.107 114.273 349.976 114.269 348.467C114.269 347.474 114.167 346.648 113.962 345.987C113.762 345.327 113.476 344.83 113.106 344.498C112.739 344.165 112.307 343.999 111.808 343.999C111.062 343.999 110.466 344.372 110.018 345.118C109.571 345.864 109.345 346.98 109.341 348.467C109.341 349.473 109.441 350.312 109.641 350.986C109.846 351.655 110.133 352.158 110.504 352.494C110.875 352.827 111.31 352.993 111.808 352.993ZM119.068 355V353.006L123.728 348.691C124.124 348.308 124.456 347.962 124.725 347.656C124.998 347.349 125.204 347.048 125.345 346.754C125.486 346.456 125.556 346.134 125.556 345.789C125.556 345.406 125.468 345.075 125.294 344.798C125.119 344.517 124.88 344.302 124.578 344.153C124.275 343.999 123.932 343.923 123.549 343.923C123.148 343.923 122.799 344.004 122.5 344.165C122.202 344.327 121.972 344.56 121.81 344.862C121.648 345.165 121.567 345.525 121.567 345.942H118.94C118.94 345.086 119.134 344.342 119.522 343.712C119.91 343.081 120.453 342.593 121.152 342.248C121.851 341.903 122.656 341.73 123.568 341.73C124.505 341.73 125.321 341.896 126.016 342.229C126.715 342.557 127.258 343.013 127.646 343.597C128.034 344.18 128.228 344.849 128.228 345.604C128.228 346.098 128.13 346.586 127.934 347.067C127.742 347.549 127.399 348.084 126.905 348.672C126.41 349.256 125.714 349.957 124.814 350.775L122.903 352.648V352.737H128.4V355H119.068ZM130.406 355V353.006L135.066 348.691C135.462 348.308 135.794 347.962 136.063 347.656C136.335 347.349 136.542 347.048 136.683 346.754C136.823 346.456 136.894 346.134 136.894 345.789C136.894 345.406 136.806 345.075 136.632 344.798C136.457 344.517 136.218 344.302 135.916 344.153C135.613 343.999 135.27 343.923 134.887 343.923C134.486 343.923 134.137 344.004 133.838 344.165C133.54 344.327 133.31 344.56 133.148 344.862C132.986 345.165 132.905 345.525 132.905 345.942H130.278C130.278 345.086 130.472 344.342 130.86 343.712C131.247 343.081 131.791 342.593 132.49 342.248C133.188 341.903 133.994 341.73 134.906 341.73C135.843 341.73 136.659 341.896 137.354 342.229C138.053 342.557 138.596 343.013 138.984 343.597C139.372 344.18 139.566 344.849 139.566 345.604C139.566 346.098 139.468 346.586 139.272 347.067C139.08 347.549 138.737 348.084 138.242 348.672C137.748 349.256 137.051 349.957 136.152 350.775L134.241 352.648V352.737H139.738V355H130.406Z" fill="white"></path><g filter="url(#filter0_d_698_1124)"><circle cx="101" cy="429.004" r="12" fill="url(#paint0_linear_698_1124)"></circle><g filter="url(#filter1_d_698_1124)"><circle cx="101.001" cy="429.003" r="7.42857" fill="white"></circle></g></g><path d="M98.9701 371C98.9701 372.473 100.164 373.667 101.637 373.667C103.109 373.667 104.303 372.473 104.303 371C104.303 369.527 103.109 368.333 101.637 368.333C100.164 368.333 98.9701 369.527 98.9701 371ZM101.137 371L101.137 373.688L102.137 373.687L102.137 371L101.137 371ZM101.137 379.063L101.137 384.438L102.137 384.437L102.137 379.062L101.137 379.063ZM101.137 389.813L101.137 395.188L102.137 395.187L102.137 389.812L101.137 389.813ZM101.137 400.563L101.137 405.938L102.137 405.937L102.137 400.562L101.137 400.563ZM101.137 411.313L101.137 414L102.137 414L102.137 411.312L101.137 411.313Z" fill="white"></path><rect x="357" y="267" width="281" height="58" rx="6" fill="#272727"></rect><rect x="-229" y="531.004" width="231" height="75" rx="6" fill="#272727"></rect><g filter="url(#filter2_d_698_1124)"><circle cx="291" cy="427" r="12" transform="rotate(-180 291 427)" fill="url(#paint1_linear_698_1124)"></circle><g filter="url(#filter3_d_698_1124)"><circle cx="290.999" cy="427.001" r="7.42857" transform="rotate(-180 290.999 427.001)" fill="white"></circle></g></g><path d="M293.03 485.004C293.03 483.531 291.836 482.337 290.363 482.337C288.891 482.337 287.697 483.531 287.697 485.004C287.697 486.477 288.891 487.671 290.363 487.671C291.836 487.671 293.03 486.477 293.03 485.004ZM290.863 485.004L290.863 482.316L289.863 482.316L289.863 485.004L290.863 485.004ZM290.863 476.941L290.863 471.566L289.863 471.566L289.863 476.941L290.863 476.941ZM290.863 466.191L290.863 460.816L289.863 460.816L289.863 466.191L290.863 466.191ZM290.863 455.441L290.863 450.066L289.863 450.066L289.863 455.441L290.863 455.441ZM290.863 444.691L290.863 442.004L289.863 442.004L289.863 444.691L290.863 444.691Z" fill="white"></path><path d="M257.229 510.453H259.581L260.764 511.974L261.927 513.329L264.12 516.078H261.537L260.029 514.224L259.256 513.125L257.229 510.453ZM264.318 508.458C264.318 509.886 264.047 511.1 263.506 512.102C262.969 513.103 262.236 513.868 261.307 514.397C260.383 514.921 259.343 515.183 258.188 515.183C257.025 515.183 255.981 514.919 255.056 514.39C254.131 513.862 253.4 513.097 252.863 512.096C252.327 511.094 252.058 509.882 252.058 508.458C252.058 507.031 252.327 505.816 252.863 504.815C253.4 503.814 254.131 503.051 255.056 502.527C255.981 501.998 257.025 501.734 258.188 501.734C259.343 501.734 260.383 501.998 261.307 502.527C262.236 503.051 262.969 503.814 263.506 504.815C264.047 505.816 264.318 507.031 264.318 508.458ZM261.512 508.458C261.512 507.534 261.373 506.754 261.096 506.119C260.824 505.484 260.438 505.002 259.939 504.674C259.441 504.346 258.857 504.182 258.188 504.182C257.519 504.182 256.935 504.346 256.437 504.674C255.938 505.002 255.55 505.484 255.273 506.119C255.001 506.754 254.864 507.534 254.864 508.458C254.864 509.383 255.001 510.163 255.273 510.798C255.55 511.433 255.938 511.914 256.437 512.243C256.935 512.571 257.519 512.735 258.188 512.735C258.857 512.735 259.441 512.571 259.939 512.243C260.438 511.914 260.824 511.433 261.096 510.798C261.373 510.163 261.512 509.383 261.512 508.458ZM266.093 512.703V510.523L271.559 501.913H273.438V504.93H272.326L268.88 510.382V510.485H276.647V512.703H266.093ZM272.377 515.004V512.038L272.428 511.073V501.913H275.023V515.004H272.377ZM284.218 501.299L279.999 516.973H277.653L281.872 501.299H284.218ZM285.504 515.004V513.01L290.164 508.695C290.561 508.311 290.893 507.966 291.161 507.659C291.434 507.353 291.641 507.052 291.781 506.758C291.922 506.46 291.992 506.138 291.992 505.793C291.992 505.409 291.905 505.079 291.73 504.802C291.556 504.521 291.317 504.306 291.014 504.157C290.712 504.003 290.369 503.926 289.985 503.926C289.585 503.926 289.235 504.007 288.937 504.169C288.639 504.331 288.409 504.564 288.247 504.866C288.085 505.169 288.004 505.529 288.004 505.946H285.377C285.377 505.09 285.57 504.346 285.958 503.716C286.346 503.085 286.889 502.597 287.588 502.252C288.287 501.907 289.093 501.734 290.004 501.734C290.942 501.734 291.758 501.9 292.453 502.233C293.151 502.561 293.695 503.017 294.083 503.6C294.47 504.184 294.664 504.853 294.664 505.608C294.664 506.102 294.566 506.59 294.37 507.071C294.178 507.553 293.835 508.088 293.341 508.676C292.847 509.26 292.15 509.961 291.251 510.779L289.34 512.652V512.741H294.837V515.004H285.504ZM301.975 515.292C300.876 515.287 299.93 515.017 299.137 514.48C298.349 513.943 297.741 513.165 297.315 512.147C296.893 511.128 296.685 509.903 296.689 508.471C296.689 507.044 296.9 505.827 297.322 504.821C297.748 503.816 298.355 503.051 299.143 502.527C299.936 501.998 300.88 501.734 301.975 501.734C303.07 501.734 304.012 501.998 304.8 502.527C305.593 503.055 306.202 503.822 306.629 504.828C307.055 505.829 307.266 507.044 307.261 508.471C307.261 509.907 307.048 511.135 306.622 512.153C306.2 513.172 305.595 513.949 304.807 514.486C304.018 515.023 303.075 515.292 301.975 515.292ZM301.975 512.997C302.725 512.997 303.324 512.62 303.771 511.865C304.219 511.111 304.44 509.98 304.436 508.471C304.436 507.478 304.334 506.652 304.129 505.991C303.929 505.331 303.643 504.834 303.273 504.502C302.906 504.169 302.474 504.003 301.975 504.003C301.229 504.003 300.633 504.376 300.185 505.122C299.738 505.868 299.512 506.984 299.508 508.471C299.508 509.477 299.608 510.316 299.808 510.99C300.013 511.659 300.3 512.162 300.671 512.498C301.042 512.831 301.477 512.997 301.975 512.997ZM309.235 515.004V513.01L313.895 508.695C314.291 508.311 314.623 507.966 314.892 507.659C315.165 507.353 315.371 507.052 315.512 506.758C315.653 506.46 315.723 506.138 315.723 505.793C315.723 505.409 315.635 505.079 315.461 504.802C315.286 504.521 315.047 504.306 314.745 504.157C314.442 504.003 314.099 503.926 313.716 503.926C313.315 503.926 312.966 504.007 312.667 504.169C312.369 504.331 312.139 504.564 311.977 504.866C311.815 505.169 311.734 505.529 311.734 505.946H309.107C309.107 505.09 309.301 504.346 309.689 503.716C310.077 503.085 310.62 502.597 311.319 502.252C312.018 501.907 312.823 501.734 313.735 501.734C314.672 501.734 315.488 501.9 316.183 502.233C316.882 502.561 317.425 503.017 317.813 503.6C318.201 504.184 318.395 504.853 318.395 505.608C318.395 506.102 318.297 506.59 318.101 507.071C317.909 507.553 317.566 508.088 317.072 508.676C316.577 509.26 315.881 509.961 314.981 510.779L313.07 512.652V512.741H318.567V515.004H309.235ZM320.573 515.004V513.01L325.233 508.695C325.629 508.311 325.961 507.966 326.23 507.659C326.502 507.353 326.709 507.052 326.85 506.758C326.99 506.46 327.061 506.138 327.061 505.793C327.061 505.409 326.973 505.079 326.799 504.802C326.624 504.521 326.385 504.306 326.083 504.157C325.78 504.003 325.437 503.926 325.054 503.926C324.653 503.926 324.304 504.007 324.005 504.169C323.707 504.331 323.477 504.564 323.315 504.866C323.153 505.169 323.072 505.529 323.072 505.946H320.445C320.445 505.09 320.639 504.346 321.027 503.716C321.414 503.085 321.958 502.597 322.657 502.252C323.355 501.907 324.161 501.734 325.073 501.734C326.01 501.734 326.826 501.9 327.521 502.233C328.22 502.561 328.763 503.017 329.151 503.6C329.539 504.184 329.733 504.853 329.733 505.608C329.733 506.102 329.635 506.59 329.439 507.071C329.247 507.553 328.904 508.088 328.409 508.676C327.915 509.26 327.218 509.961 326.319 510.779L324.408 512.652V512.741H329.905V515.004H320.573Z" fill="white"></path><rect x="200" y="531.004" width="182" height="58" rx="6" fill="#272727"></rect><path d="M220.999 554.402C220.656 554.402 220.342 554.318 220.058 554.15C219.774 553.98 219.546 553.752 219.376 553.468C219.208 553.184 219.124 552.87 219.124 552.527C219.124 552.18 219.208 551.866 219.376 551.585C219.546 551.301 219.774 551.075 220.058 550.907C220.342 550.737 220.656 550.652 220.999 550.652C221.346 550.652 221.66 550.737 221.941 550.907C222.225 551.075 222.451 551.301 222.619 551.585C222.789 551.866 222.874 552.18 222.874 552.527C222.874 552.87 222.789 553.184 222.619 553.468C222.451 553.752 222.225 553.98 221.941 554.15C221.66 554.318 221.346 554.402 220.999 554.402ZM230.759 556.004V547.277H236.639V548.798H232.604V550.877H236.337V552.399H232.604V554.483H236.656V556.004H230.759ZM244.294 549.458L242.006 556.004H239.961L237.672 549.458H239.59L240.949 554.142H241.017L242.372 549.458H244.294ZM248.115 556.132C247.442 556.132 246.863 555.995 246.377 555.723C245.894 555.447 245.522 555.058 245.26 554.555C244.999 554.049 244.868 553.451 244.868 552.761C244.868 552.088 244.999 551.497 245.26 550.988C245.522 550.48 245.89 550.083 246.364 549.799C246.841 549.515 247.401 549.373 248.043 549.373C248.475 549.373 248.877 549.443 249.249 549.582C249.624 549.718 249.951 549.924 250.229 550.2C250.51 550.475 250.729 550.822 250.885 551.24C251.041 551.654 251.12 552.14 251.12 552.697V553.196H245.593V552.071H249.411C249.411 551.809 249.354 551.578 249.24 551.376C249.127 551.174 248.969 551.017 248.767 550.903C248.568 550.787 248.337 550.728 248.073 550.728C247.797 550.728 247.553 550.792 247.34 550.92C247.13 551.045 246.965 551.214 246.845 551.427C246.726 551.637 246.665 551.872 246.662 552.13V553.2C246.662 553.524 246.722 553.804 246.841 554.039C246.963 554.275 247.135 554.457 247.357 554.585C247.578 554.713 247.841 554.777 248.145 554.777C248.347 554.777 248.532 554.748 248.699 554.691C248.867 554.635 249.01 554.549 249.13 554.436C249.249 554.322 249.34 554.183 249.402 554.018L251.081 554.129C250.996 554.532 250.821 554.885 250.557 555.186C250.296 555.484 249.958 555.717 249.543 555.885C249.131 556.049 248.655 556.132 248.115 556.132ZM254.24 552.22V556.004H252.424V549.458H254.154V550.613H254.231C254.376 550.233 254.619 549.931 254.96 549.71C255.301 549.485 255.714 549.373 256.2 549.373C256.654 549.373 257.051 549.473 257.389 549.672C257.727 549.87 257.99 550.154 258.177 550.524C258.365 550.89 258.458 551.328 258.458 551.836V556.004H256.643V552.16C256.646 551.76 256.544 551.447 256.336 551.223C256.129 550.995 255.843 550.882 255.48 550.882C255.235 550.882 255.019 550.934 254.832 551.039C254.647 551.145 254.502 551.298 254.397 551.5C254.295 551.699 254.242 551.939 254.24 552.22ZM263.491 549.458V550.822H259.549V549.458H263.491ZM260.444 547.89H262.259V553.993C262.259 554.16 262.285 554.291 262.336 554.385C262.387 554.475 262.458 554.539 262.549 554.576C262.643 554.613 262.751 554.632 262.873 554.632C262.958 554.632 263.043 554.625 263.128 554.61C263.214 554.593 263.279 554.581 263.324 554.572L263.61 555.923C263.519 555.951 263.391 555.984 263.226 556.021C263.062 556.061 262.861 556.085 262.626 556.093C262.188 556.11 261.805 556.052 261.475 555.919C261.148 555.785 260.894 555.578 260.712 555.297C260.53 555.015 260.441 554.66 260.444 554.231V547.89ZM265.854 556.115C265.573 556.115 265.332 556.015 265.13 555.816C264.931 555.615 264.832 555.373 264.832 555.092C264.832 554.814 264.931 554.575 265.13 554.376C265.332 554.177 265.573 554.078 265.854 554.078C266.127 554.078 266.366 554.177 266.57 554.376C266.775 554.575 266.877 554.814 266.877 555.092C266.877 555.279 266.829 555.451 266.732 555.608C266.638 555.761 266.515 555.885 266.361 555.978C266.208 556.069 266.039 556.115 265.854 556.115ZM265.854 551.529C265.573 551.529 265.332 551.43 265.13 551.231C264.931 551.032 264.832 550.791 264.832 550.507C264.832 550.228 264.931 549.991 265.13 549.795C265.332 549.596 265.573 549.497 265.854 549.497C266.127 549.497 266.366 549.596 266.57 549.795C266.775 549.991 266.877 550.228 266.877 550.507C266.877 550.697 266.829 550.87 266.732 551.027C266.638 551.18 266.515 551.302 266.361 551.393C266.208 551.484 266.039 551.529 265.854 551.529ZM270.907 547.277H272.974L274.964 551.035H275.05L277.04 547.277H279.106L275.923 552.919V556.004H274.091V552.919L270.907 547.277ZM281.812 556.132C281.139 556.132 280.559 555.995 280.073 555.723C279.59 555.447 279.218 555.058 278.957 554.555C278.695 554.049 278.565 553.451 278.565 552.761C278.565 552.088 278.695 551.497 278.957 550.988C279.218 550.48 279.586 550.083 280.06 549.799C280.538 549.515 281.097 549.373 281.739 549.373C282.171 549.373 282.573 549.443 282.945 549.582C283.32 549.718 283.647 549.924 283.926 550.2C284.207 550.475 284.426 550.822 284.582 551.24C284.738 551.654 284.816 552.14 284.816 552.697V553.196H279.289V552.071H283.107C283.107 551.809 283.051 551.578 282.937 551.376C282.823 551.174 282.666 551.017 282.464 550.903C282.265 550.787 282.034 550.728 281.769 550.728C281.494 550.728 281.249 550.792 281.036 550.92C280.826 551.045 280.661 551.214 280.542 551.427C280.423 551.637 280.362 551.872 280.359 552.13V553.2C280.359 553.524 280.418 553.804 280.538 554.039C280.66 554.275 280.832 554.457 281.053 554.585C281.275 554.713 281.538 554.777 281.842 554.777C282.043 554.777 282.228 554.748 282.396 554.691C282.563 554.635 282.707 554.549 282.826 554.436C282.945 554.322 283.036 554.183 283.099 554.018L284.778 554.129C284.693 554.532 284.518 554.885 284.254 555.186C283.992 555.484 283.654 555.717 283.239 555.885C282.828 556.049 282.352 556.132 281.812 556.132ZM287.987 556.127C287.57 556.127 287.198 556.055 286.871 555.91C286.544 555.762 286.286 555.545 286.095 555.258C285.908 554.968 285.814 554.608 285.814 554.176C285.814 553.812 285.881 553.507 286.014 553.26C286.148 553.012 286.33 552.814 286.56 552.663C286.79 552.512 287.051 552.399 287.344 552.322C287.639 552.245 287.949 552.191 288.273 552.16C288.654 552.12 288.96 552.083 289.193 552.049C289.426 552.012 289.595 551.958 289.7 551.887C289.805 551.816 289.858 551.711 289.858 551.572V551.547C289.858 551.277 289.773 551.068 289.602 550.92C289.435 550.772 289.196 550.699 288.886 550.699C288.56 550.699 288.3 550.771 288.107 550.916C287.913 551.058 287.786 551.237 287.723 551.453L286.044 551.316C286.129 550.919 286.297 550.575 286.547 550.285C286.797 549.993 287.119 549.768 287.514 549.612C287.912 549.453 288.372 549.373 288.895 549.373C289.259 549.373 289.607 549.416 289.939 549.501C290.274 549.586 290.571 549.718 290.83 549.897C291.091 550.076 291.297 550.306 291.448 550.588C291.598 550.866 291.673 551.2 291.673 551.589V556.004H289.952V555.096H289.901C289.796 555.301 289.655 555.481 289.479 555.637C289.303 555.791 289.091 555.912 288.844 556C288.597 556.085 288.311 556.127 287.987 556.127ZM288.507 554.875C288.774 554.875 289.01 554.822 289.215 554.717C289.419 554.609 289.58 554.464 289.696 554.282C289.813 554.1 289.871 553.895 289.871 553.664V552.97C289.814 553.007 289.736 553.041 289.636 553.072C289.54 553.1 289.43 553.127 289.308 553.153C289.186 553.176 289.064 553.197 288.942 553.217C288.82 553.234 288.709 553.25 288.609 553.264C288.396 553.295 288.21 553.345 288.051 553.413C287.892 553.481 287.769 553.574 287.68 553.69C287.592 553.804 287.548 553.946 287.548 554.116C287.548 554.363 287.638 554.552 287.817 554.683C287.999 554.811 288.229 554.875 288.507 554.875ZM293.202 556.004V549.458H294.962V550.6H295.03C295.149 550.194 295.349 549.887 295.631 549.68C295.912 549.47 296.236 549.365 296.602 549.365C296.693 549.365 296.791 549.37 296.896 549.382C297.001 549.393 297.094 549.409 297.173 549.429V551.039C297.088 551.014 296.97 550.991 296.82 550.971C296.669 550.951 296.531 550.941 296.406 550.941C296.139 550.941 295.901 551 295.69 551.116C295.483 551.23 295.318 551.389 295.196 551.593C295.077 551.798 295.017 552.034 295.017 552.301V556.004H293.202ZM302.111 551.7V553.14H298.131V551.7H302.111ZM306.761 556.132C306.087 556.132 305.508 555.995 305.022 555.723C304.539 555.447 304.167 555.058 303.906 554.555C303.644 554.049 303.514 553.451 303.514 552.761C303.514 552.088 303.644 551.497 303.906 550.988C304.167 550.48 304.535 550.083 305.009 549.799C305.487 549.515 306.046 549.373 306.688 549.373C307.12 549.373 307.522 549.443 307.894 549.582C308.269 549.718 308.596 549.924 308.874 550.2C309.156 550.475 309.374 550.822 309.531 551.24C309.687 551.654 309.765 552.14 309.765 552.697V553.196H304.238V552.071H308.056C308.056 551.809 307.999 551.578 307.886 551.376C307.772 551.174 307.614 551.017 307.413 550.903C307.214 550.787 306.982 550.728 306.718 550.728C306.442 550.728 306.198 550.792 305.985 550.92C305.775 551.045 305.61 551.214 305.491 551.427C305.371 551.637 305.31 551.872 305.308 552.13V553.2C305.308 553.524 305.367 553.804 305.487 554.039C305.609 554.275 305.781 554.457 306.002 554.585C306.224 554.713 306.487 554.777 306.79 554.777C306.992 554.777 307.177 554.748 307.344 554.691C307.512 554.635 307.656 554.549 307.775 554.436C307.894 554.322 307.985 554.183 308.048 554.018L309.727 554.129C309.641 554.532 309.467 554.885 309.202 555.186C308.941 555.484 308.603 555.717 308.188 555.885C307.776 556.049 307.3 556.132 306.761 556.132ZM312.885 552.22V556.004H311.07V549.458H312.8V550.613H312.876C313.021 550.233 313.264 549.931 313.605 549.71C313.946 549.485 314.359 549.373 314.845 549.373C315.3 549.373 315.696 549.473 316.034 549.672C316.372 549.87 316.635 550.154 316.822 550.524C317.01 550.89 317.104 551.328 317.104 551.836V556.004H315.288V552.16C315.291 551.76 315.189 551.447 314.982 551.223C314.774 550.995 314.489 550.882 314.125 550.882C313.881 550.882 313.665 550.934 313.477 551.039C313.293 551.145 313.148 551.298 313.043 551.5C312.94 551.699 312.888 551.939 312.885 552.22ZM321.066 556.11C320.569 556.11 320.119 555.983 319.716 555.727C319.315 555.468 318.997 555.089 318.761 554.589C318.528 554.086 318.412 553.47 318.412 552.74C318.412 551.99 318.532 551.366 318.774 550.869C319.015 550.369 319.336 549.995 319.737 549.748C320.14 549.498 320.582 549.373 321.062 549.373C321.429 549.373 321.734 549.436 321.978 549.561C322.225 549.683 322.424 549.836 322.575 550.021C322.728 550.203 322.845 550.382 322.924 550.558H322.98V547.277H324.791V556.004H323.001V554.956H322.924C322.839 555.137 322.718 555.318 322.562 555.497C322.409 555.673 322.208 555.819 321.961 555.936C321.717 556.052 321.419 556.11 321.066 556.11ZM321.642 554.666C321.934 554.666 322.181 554.586 322.383 554.427C322.588 554.265 322.744 554.039 322.852 553.75C322.963 553.46 323.018 553.12 323.018 552.731C323.018 552.342 322.964 552.004 322.856 551.717C322.748 551.43 322.592 551.208 322.387 551.052C322.183 550.896 321.934 550.818 321.642 550.818C321.343 550.818 321.092 550.899 320.887 551.061C320.683 551.223 320.528 551.447 320.423 551.734C320.318 552.021 320.265 552.353 320.265 552.731C320.265 553.112 320.318 553.449 320.423 553.741C320.531 554.031 320.686 554.258 320.887 554.423C321.092 554.585 321.343 554.666 321.642 554.666ZM329.335 556.004V547.277H332.778C333.44 547.277 334.004 547.403 334.47 547.656C334.936 547.906 335.291 548.254 335.535 548.7C335.782 549.143 335.906 549.654 335.906 550.234C335.906 550.814 335.781 551.325 335.531 551.768C335.281 552.211 334.919 552.556 334.444 552.804C333.973 553.051 333.402 553.174 332.731 553.174H330.536V551.696H332.433C332.788 551.696 333.081 551.635 333.311 551.512C333.544 551.387 333.717 551.216 333.831 550.997C333.947 550.775 334.005 550.521 334.005 550.234C334.005 549.944 333.947 549.691 333.831 549.475C333.717 549.257 333.544 549.088 333.311 548.968C333.078 548.846 332.782 548.785 332.424 548.785H331.18V556.004H329.335ZM338.881 556.127C338.463 556.127 338.091 556.055 337.764 555.91C337.438 555.762 337.179 555.545 336.989 555.258C336.801 554.968 336.708 554.608 336.708 554.176C336.708 553.812 336.774 553.507 336.908 553.26C337.041 553.012 337.223 552.814 337.453 552.663C337.683 552.512 337.945 552.399 338.237 552.322C338.533 552.245 338.843 552.191 339.166 552.16C339.547 552.12 339.854 552.083 340.087 552.049C340.32 552.012 340.489 551.958 340.594 551.887C340.699 551.816 340.752 551.711 340.752 551.572V551.547C340.752 551.277 340.666 551.068 340.496 550.92C340.328 550.772 340.09 550.699 339.78 550.699C339.453 550.699 339.193 550.771 339 550.916C338.807 551.058 338.679 551.237 338.617 551.453L336.938 551.316C337.023 550.919 337.191 550.575 337.441 550.285C337.691 549.993 338.013 549.768 338.408 549.612C338.806 549.453 339.266 549.373 339.789 549.373C340.152 549.373 340.5 549.416 340.833 549.501C341.168 549.586 341.465 549.718 341.723 549.897C341.985 550.076 342.191 550.306 342.341 550.588C342.492 550.866 342.567 551.2 342.567 551.589V556.004H340.845V555.096H340.794C340.689 555.301 340.549 555.481 340.372 555.637C340.196 555.791 339.985 555.912 339.737 556C339.49 556.085 339.205 556.127 338.881 556.127ZM339.401 554.875C339.668 554.875 339.904 554.822 340.108 554.717C340.313 554.609 340.473 554.464 340.59 554.282C340.706 554.1 340.764 553.895 340.764 553.664V552.97C340.708 553.007 340.629 553.041 340.53 553.072C340.433 553.1 340.324 553.127 340.202 553.153C340.08 553.176 339.958 553.197 339.835 553.217C339.713 553.234 339.603 553.25 339.503 553.264C339.29 553.295 339.104 553.345 338.945 553.413C338.786 553.481 338.662 553.574 338.574 553.69C338.486 553.804 338.442 553.946 338.442 554.116C338.442 554.363 338.531 554.552 338.71 554.683C338.892 554.811 339.122 554.875 339.401 554.875ZM344.095 556.004V549.458H345.855V550.6H345.923C346.043 550.194 346.243 549.887 346.524 549.68C346.806 549.47 347.129 549.365 347.496 549.365C347.587 549.365 347.685 549.37 347.79 549.382C347.895 549.393 347.987 549.409 348.067 549.429V551.039C347.982 551.014 347.864 550.991 347.713 550.971C347.563 550.951 347.425 550.941 347.3 550.941C347.033 550.941 346.794 551 346.584 551.116C346.377 551.23 346.212 551.389 346.09 551.593C345.97 551.798 345.911 552.034 345.911 552.301V556.004H344.095ZM352.935 549.458V550.822H348.993V549.458H352.935ZM349.888 547.89H351.704V553.993C351.704 554.16 351.729 554.291 351.78 554.385C351.831 554.475 351.903 554.539 351.993 554.576C352.087 554.613 352.195 554.632 352.317 554.632C352.403 554.632 352.488 554.625 352.573 554.61C352.658 554.593 352.724 554.581 352.769 554.572L353.055 555.923C352.964 555.951 352.836 555.984 352.671 556.021C352.506 556.061 352.306 556.085 352.07 556.093C351.633 556.11 351.249 556.052 350.92 555.919C350.593 555.785 350.339 555.578 350.157 555.297C349.975 555.015 349.885 554.66 349.888 554.231V547.89ZM355.358 558.458C355.128 558.458 354.912 558.44 354.711 558.403C354.512 558.369 354.347 558.325 354.216 558.271L354.625 556.916C354.839 556.981 355.03 557.017 355.201 557.022C355.374 557.028 355.523 556.988 355.648 556.903C355.776 556.818 355.88 556.673 355.959 556.468L356.066 556.191L353.718 549.458H355.627L356.982 554.265H357.05L358.418 549.458H360.34L357.796 556.711C357.674 557.064 357.508 557.37 357.297 557.632C357.09 557.896 356.827 558.099 356.509 558.241C356.191 558.386 355.807 558.458 355.358 558.458ZM220.999 571.402C220.656 571.402 220.342 571.318 220.058 571.15C219.774 570.98 219.546 570.752 219.376 570.468C219.208 570.184 219.124 569.87 219.124 569.527C219.124 569.18 219.208 568.866 219.376 568.585C219.546 568.301 219.774 568.075 220.058 567.907C220.342 567.737 220.656 567.652 220.999 567.652C221.346 567.652 221.66 567.737 221.941 567.907C222.225 568.075 222.451 568.301 222.619 568.585C222.789 568.866 222.874 569.18 222.874 569.527C222.874 569.87 222.789 570.184 222.619 570.468C222.451 570.752 222.225 570.98 221.941 571.15C221.66 571.318 221.346 571.402 220.999 571.402ZM230.759 573.004V564.277H234.253C234.895 564.277 235.43 564.372 235.859 564.562C236.288 564.752 236.611 565.017 236.827 565.355C237.043 565.69 237.151 566.076 237.151 566.514C237.151 566.855 237.082 567.154 236.946 567.413C236.81 567.669 236.622 567.879 236.384 568.044C236.148 568.206 235.878 568.321 235.574 568.389V568.474C235.906 568.488 236.217 568.582 236.507 568.755C236.8 568.929 237.037 569.172 237.219 569.484C237.401 569.794 237.491 570.163 237.491 570.592C237.491 571.055 237.376 571.468 237.146 571.832C236.919 572.193 236.582 572.478 236.136 572.689C235.69 572.899 235.141 573.004 234.487 573.004H230.759ZM232.604 571.495H234.108C234.622 571.495 234.997 571.397 235.233 571.201C235.469 571.002 235.587 570.738 235.587 570.409C235.587 570.167 235.528 569.954 235.412 569.77C235.295 569.585 235.129 569.44 234.913 569.335C234.7 569.23 234.446 569.177 234.151 569.177H232.604V571.495ZM232.604 567.929H233.972C234.224 567.929 234.449 567.885 234.645 567.797C234.844 567.706 235 567.578 235.114 567.413C235.23 567.248 235.288 567.051 235.288 566.821C235.288 566.505 235.176 566.251 234.952 566.058C234.73 565.865 234.415 565.768 234.006 565.768H232.604V567.929ZM241.761 573.132C241.088 573.132 240.508 572.995 240.022 572.723C239.539 572.447 239.167 572.058 238.906 571.555C238.645 571.049 238.514 570.451 238.514 569.761C238.514 569.088 238.645 568.497 238.906 567.988C239.167 567.48 239.535 567.083 240.01 566.799C240.487 566.515 241.046 566.373 241.689 566.373C242.12 566.373 242.522 566.443 242.895 566.582C243.27 566.718 243.596 566.924 243.875 567.2C244.156 567.475 244.375 567.822 244.531 568.24C244.687 568.654 244.765 569.14 244.765 569.697V570.196H239.238V569.071H243.056C243.056 568.809 243 568.578 242.886 568.376C242.772 568.174 242.615 568.017 242.413 567.903C242.214 567.787 241.983 567.728 241.718 567.728C241.443 567.728 241.198 567.792 240.985 567.92C240.775 568.045 240.61 568.214 240.491 568.427C240.372 568.637 240.311 568.872 240.308 569.13V570.2C240.308 570.524 240.368 570.804 240.487 571.039C240.609 571.275 240.781 571.457 241.002 571.585C241.224 571.713 241.487 571.777 241.791 571.777C241.993 571.777 242.177 571.748 242.345 571.691C242.512 571.635 242.656 571.549 242.775 571.436C242.895 571.322 242.985 571.183 243.048 571.018L244.727 571.129C244.642 571.532 244.467 571.885 244.203 572.186C243.941 572.484 243.603 572.717 243.189 572.885C242.777 573.049 242.301 573.132 241.761 573.132ZM249.551 566.458V567.822H245.61V566.458H249.551ZM246.505 564.89H248.32V570.993C248.32 571.16 248.345 571.291 248.397 571.385C248.448 571.475 248.519 571.539 248.61 571.576C248.703 571.613 248.811 571.632 248.934 571.632C249.019 571.632 249.104 571.625 249.189 571.61C249.274 571.593 249.34 571.581 249.385 571.572L249.671 572.923C249.58 572.951 249.452 572.984 249.287 573.021C249.122 573.061 248.922 573.085 248.686 573.093C248.249 573.11 247.865 573.052 247.536 572.919C247.209 572.785 246.955 572.578 246.773 572.297C246.591 572.015 246.502 571.66 246.505 571.231V564.89ZM252.72 573.127C252.303 573.127 251.931 573.055 251.604 572.91C251.277 572.762 251.019 572.545 250.828 572.258C250.641 571.968 250.547 571.608 250.547 571.176C250.547 570.812 250.614 570.507 250.747 570.26C250.881 570.012 251.063 569.814 251.293 569.663C251.523 569.512 251.784 569.399 252.077 569.322C252.372 569.245 252.682 569.191 253.006 569.16C253.387 569.12 253.693 569.083 253.926 569.049C254.159 569.012 254.328 568.958 254.434 568.887C254.539 568.816 254.591 568.711 254.591 568.572V568.547C254.591 568.277 254.506 568.068 254.335 567.92C254.168 567.772 253.929 567.699 253.62 567.699C253.293 567.699 253.033 567.771 252.84 567.916C252.647 568.058 252.519 568.237 252.456 568.453L250.777 568.316C250.862 567.919 251.03 567.575 251.28 567.285C251.53 566.993 251.853 566.768 252.247 566.612C252.645 566.453 253.105 566.373 253.628 566.373C253.992 566.373 254.34 566.416 254.672 566.501C255.007 566.586 255.304 566.718 255.563 566.897C255.824 567.076 256.03 567.306 256.181 567.588C256.331 567.866 256.407 568.2 256.407 568.589V573.004H254.685V572.096H254.634C254.529 572.301 254.388 572.481 254.212 572.637C254.036 572.791 253.824 572.912 253.577 573C253.33 573.085 253.044 573.127 252.72 573.127ZM253.24 571.875C253.507 571.875 253.743 571.822 253.948 571.717C254.152 571.609 254.313 571.464 254.429 571.282C254.546 571.1 254.604 570.895 254.604 570.664V569.97C254.547 570.007 254.469 570.041 254.37 570.072C254.273 570.1 254.164 570.127 254.041 570.153C253.919 570.176 253.797 570.197 253.675 570.217C253.553 570.234 253.442 570.25 253.343 570.264C253.13 570.295 252.943 570.345 252.784 570.413C252.625 570.481 252.502 570.574 252.414 570.69C252.326 570.804 252.282 570.946 252.282 571.116C252.282 571.363 252.371 571.552 252.55 571.683C252.732 571.811 252.962 571.875 253.24 571.875ZM264.16 569.97H265.729L266.517 570.984L267.292 571.887L268.754 573.72H267.033L266.027 572.484L265.511 571.751L264.16 569.97ZM268.886 568.64C268.886 569.592 268.706 570.402 268.345 571.069C267.987 571.737 267.498 572.247 266.879 572.599C266.263 572.949 265.569 573.123 264.8 573.123C264.024 573.123 263.328 572.947 262.712 572.595C262.095 572.243 261.608 571.733 261.25 571.065C260.892 570.397 260.713 569.589 260.713 568.64C260.713 567.689 260.892 566.879 261.25 566.211C261.608 565.544 262.095 565.035 262.712 564.686C263.328 564.333 264.024 564.157 264.8 564.157C265.569 564.157 266.263 564.333 266.879 564.686C267.498 565.035 267.987 565.544 268.345 566.211C268.706 566.879 268.886 567.689 268.886 568.64ZM267.015 568.64C267.015 568.024 266.923 567.504 266.738 567.081C266.557 566.657 266.3 566.336 265.967 566.118C265.635 565.899 265.246 565.789 264.8 565.789C264.354 565.789 263.964 565.899 263.632 566.118C263.3 566.336 263.041 566.657 262.856 567.081C262.675 567.504 262.584 568.024 262.584 568.64C262.584 569.257 262.675 569.777 262.856 570.2C263.041 570.623 263.3 570.944 263.632 571.163C263.964 571.382 264.354 571.491 264.8 571.491C265.246 571.491 265.635 571.382 265.967 571.163C266.3 570.944 266.557 570.623 266.738 570.2C266.923 569.777 267.015 569.257 267.015 568.64ZM274.536 570.217V566.458H276.352V573.004H274.609V571.815H274.541C274.393 572.199 274.147 572.507 273.803 572.74C273.463 572.973 273.046 573.089 272.555 573.089C272.117 573.089 271.732 572.99 271.4 572.791C271.068 572.592 270.808 572.309 270.62 571.943C270.436 571.576 270.342 571.137 270.339 570.626V566.458H272.154V570.302C272.157 570.689 272.261 570.994 272.465 571.218C272.67 571.443 272.944 571.555 273.288 571.555C273.507 571.555 273.711 571.505 273.901 571.406C274.092 571.304 274.245 571.153 274.362 570.954C274.481 570.755 274.539 570.51 274.536 570.217ZM280.907 573.132C280.233 573.132 279.654 572.995 279.168 572.723C278.685 572.447 278.313 572.058 278.052 571.555C277.79 571.049 277.66 570.451 277.66 569.761C277.66 569.088 277.79 568.497 278.052 567.988C278.313 567.48 278.681 567.083 279.155 566.799C279.633 566.515 280.192 566.373 280.834 566.373C281.266 566.373 281.668 566.443 282.04 566.582C282.415 566.718 282.742 566.924 283.02 567.2C283.302 567.475 283.52 567.822 283.677 568.24C283.833 568.654 283.911 569.14 283.911 569.697V570.196H278.384V569.071H282.202C282.202 568.809 282.145 568.578 282.032 568.376C281.918 568.174 281.76 568.017 281.559 567.903C281.36 567.787 281.128 567.728 280.864 567.728C280.589 567.728 280.344 567.792 280.131 567.92C279.921 568.045 279.756 568.214 279.637 568.427C279.518 568.637 279.456 568.872 279.454 569.13V570.2C279.454 570.524 279.513 570.804 279.633 571.039C279.755 571.275 279.927 571.457 280.148 571.585C280.37 571.713 280.633 571.777 280.937 571.777C281.138 571.777 281.323 571.748 281.491 571.691C281.658 571.635 281.802 571.549 281.921 571.436C282.04 571.322 282.131 571.183 282.194 571.018L283.873 571.129C283.787 571.532 283.613 571.885 283.349 572.186C283.087 572.484 282.749 572.717 282.334 572.885C281.922 573.049 281.447 573.132 280.907 573.132ZM290.662 568.325L289 568.427C288.971 568.285 288.91 568.157 288.817 568.044C288.723 567.927 288.599 567.835 288.446 567.767C288.295 567.696 288.115 567.66 287.905 567.66C287.623 567.66 287.386 567.72 287.193 567.839C287 567.956 286.903 568.112 286.903 568.308C286.903 568.464 286.966 568.596 287.091 568.704C287.216 568.812 287.43 568.899 287.734 568.964L288.919 569.203C289.555 569.333 290.03 569.544 290.342 569.833C290.655 570.123 290.811 570.504 290.811 570.975C290.811 571.404 290.684 571.781 290.432 572.105C290.182 572.429 289.838 572.681 289.4 572.863C288.966 573.042 288.464 573.132 287.896 573.132C287.03 573.132 286.339 572.951 285.825 572.591C285.314 572.227 285.014 571.733 284.926 571.108L286.711 571.014C286.765 571.278 286.896 571.48 287.103 571.619C287.311 571.755 287.576 571.824 287.9 571.824C288.219 571.824 288.474 571.762 288.667 571.64C288.863 571.515 288.963 571.355 288.966 571.159C288.963 570.994 288.893 570.859 288.757 570.754C288.621 570.646 288.41 570.564 288.126 570.507L286.993 570.281C286.353 570.153 285.878 569.931 285.565 569.616C285.255 569.301 285.101 568.899 285.101 568.41C285.101 567.99 285.214 567.627 285.442 567.324C285.672 567.02 285.994 566.785 286.409 566.62C286.826 566.456 287.315 566.373 287.875 566.373C288.701 566.373 289.352 566.548 289.826 566.897C290.304 567.247 290.582 567.723 290.662 568.325ZM295.555 566.458V567.822H291.614V566.458H295.555ZM292.509 564.89H294.324V570.993C294.324 571.16 294.35 571.291 294.401 571.385C294.452 571.475 294.523 571.539 294.614 571.576C294.707 571.613 294.815 571.632 294.938 571.632C295.023 571.632 295.108 571.625 295.193 571.61C295.279 571.593 295.344 571.581 295.389 571.572L295.675 572.923C295.584 572.951 295.456 572.984 295.291 573.021C295.127 573.061 294.926 573.085 294.69 573.093C294.253 573.11 293.869 573.052 293.54 572.919C293.213 572.785 292.959 572.578 292.777 572.297C292.595 572.015 292.506 571.66 292.509 571.231V564.89ZM303.237 566.458V567.822H299.295V566.458H303.237ZM300.19 564.89H302.005V570.993C302.005 571.16 302.031 571.291 302.082 571.385C302.133 571.475 302.204 571.539 302.295 571.576C302.389 571.613 302.497 571.632 302.619 571.632C302.704 571.632 302.789 571.625 302.875 571.61C302.96 571.593 303.025 571.581 303.071 571.572L303.356 572.923C303.265 572.951 303.137 572.984 302.973 573.021C302.808 573.061 302.608 573.085 302.372 573.093C301.934 573.11 301.551 573.052 301.221 572.919C300.895 572.785 300.64 572.578 300.458 572.297C300.277 572.015 300.187 571.66 300.19 571.231V564.89ZM307.427 573.132C306.765 573.132 306.192 572.991 305.709 572.71C305.229 572.426 304.858 572.031 304.597 571.525C304.336 571.017 304.205 570.427 304.205 569.757C304.205 569.081 304.336 568.49 304.597 567.984C304.858 567.475 305.229 567.081 305.709 566.799C306.192 566.515 306.765 566.373 307.427 566.373C308.088 566.373 308.659 566.515 309.14 566.799C309.623 567.081 309.995 567.475 310.256 567.984C310.517 568.49 310.648 569.081 310.648 569.757C310.648 570.427 310.517 571.017 310.256 571.525C309.995 572.031 309.623 572.426 309.14 572.71C308.659 572.991 308.088 573.132 307.427 573.132ZM307.435 571.725C307.736 571.725 307.988 571.64 308.189 571.47C308.391 571.297 308.543 571.061 308.645 570.762C308.75 570.464 308.803 570.125 308.803 569.744C308.803 569.363 308.75 569.024 308.645 568.725C308.543 568.427 308.391 568.191 308.189 568.018C307.988 567.845 307.736 567.758 307.435 567.758C307.131 567.758 306.875 567.845 306.668 568.018C306.463 568.191 306.309 568.427 306.203 568.725C306.101 569.024 306.05 569.363 306.05 569.744C306.05 570.125 306.101 570.464 306.203 570.762C306.309 571.061 306.463 571.297 306.668 571.47C306.875 571.64 307.131 571.725 307.435 571.725ZM314.88 573.004V564.277H320.761V565.798H316.725V567.877H320.458V569.399H316.725V571.483H320.778V573.004H314.88ZM324.18 573.127C323.762 573.127 323.39 573.055 323.063 572.91C322.737 572.762 322.478 572.545 322.288 572.258C322.1 571.968 322.007 571.608 322.007 571.176C322.007 570.812 322.073 570.507 322.207 570.26C322.34 570.012 322.522 569.814 322.752 569.663C322.983 569.512 323.244 569.399 323.537 569.322C323.832 569.245 324.142 569.191 324.465 569.16C324.846 569.12 325.153 569.083 325.386 569.049C325.619 569.012 325.788 568.958 325.893 568.887C325.998 568.816 326.051 568.711 326.051 568.572V568.547C326.051 568.277 325.965 568.068 325.795 567.92C325.627 567.772 325.389 567.699 325.079 567.699C324.752 567.699 324.492 567.771 324.299 567.916C324.106 568.058 323.978 568.237 323.916 568.453L322.237 568.316C322.322 567.919 322.49 567.575 322.74 567.285C322.99 566.993 323.312 566.768 323.707 566.612C324.105 566.453 324.565 566.373 325.088 566.373C325.451 566.373 325.799 566.416 326.132 566.501C326.467 566.586 326.764 566.718 327.022 566.897C327.284 567.076 327.49 567.306 327.64 567.588C327.791 567.866 327.866 568.2 327.866 568.589V573.004H326.144V572.096H326.093C325.988 572.301 325.848 572.481 325.671 572.637C325.495 572.791 325.284 572.912 325.037 573C324.789 573.085 324.504 573.127 324.18 573.127ZM324.7 571.875C324.967 571.875 325.203 571.822 325.407 571.717C325.612 571.609 325.772 571.464 325.889 571.282C326.005 571.1 326.063 570.895 326.063 570.664V569.97C326.007 570.007 325.929 570.041 325.829 570.072C325.733 570.1 325.623 570.127 325.501 570.153C325.379 570.176 325.257 570.197 325.135 570.217C325.012 570.234 324.902 570.25 324.802 570.264C324.589 570.295 324.403 570.345 324.244 570.413C324.085 570.481 323.961 570.574 323.873 570.69C323.785 570.804 323.741 570.946 323.741 571.116C323.741 571.363 323.831 571.552 324.01 571.683C324.191 571.811 324.421 571.875 324.7 571.875ZM329.394 573.004V566.458H331.154V567.6H331.223C331.342 567.194 331.542 566.887 331.823 566.68C332.105 566.47 332.429 566.365 332.795 566.365C332.886 566.365 332.984 566.37 333.089 566.382C333.194 566.393 333.286 566.409 333.366 566.429V568.039C333.281 568.014 333.163 567.991 333.012 567.971C332.862 567.951 332.724 567.941 332.599 567.941C332.332 567.941 332.093 568 331.883 568.116C331.676 568.23 331.511 568.389 331.389 568.593C331.269 568.798 331.21 569.034 331.21 569.301V573.004H329.394ZM336.24 569.22V573.004H334.425V566.458H336.155V567.613H336.231C336.376 567.233 336.619 566.931 336.96 566.71C337.301 566.485 337.714 566.373 338.2 566.373C338.655 566.373 339.051 566.473 339.389 566.672C339.727 566.87 339.99 567.154 340.177 567.524C340.365 567.89 340.459 568.328 340.459 568.836V573.004H338.643V569.16C338.646 568.76 338.544 568.447 338.337 568.223C338.129 567.995 337.844 567.882 337.48 567.882C337.236 567.882 337.02 567.934 336.832 568.039C336.648 568.145 336.503 568.298 336.398 568.5C336.295 568.699 336.243 568.939 336.24 569.22Z" fill="white"></path></g><defs><filter id="filter0_d_698_1124" x="85.0797" y="413.084" width="31.8405" height="31.8405" filterUnits="userSpaceOnUse" color-interpolation-filters="sRGB"><feFlood flood-opacity="0" result="BackgroundImageFix"></feFlood><feColorMatrix in="SourceAlpha" type="matrix" values="0 0 0 0 0 0 0 0 0 0 0 0 0 0 0 0 0 0 127 0" result="hardAlpha"></feColorMatrix><feOffset></feOffset><feGaussianBlur stdDeviation="1.96013"></feGaussianBlur><feComposite in2="hardAlpha" operator="out"></feComposite><feColorMatrix type="matrix" values="0 0 0 0 0 0 0 0 0 0 0 0 0 0 0 0 0 0 0.25 0"></feColorMatrix><feBlend mode="normal" in2="BackgroundImageFix" result="effect1_dropShadow_698_1124"></feBlend><feBlend mode="normal" in="SourceGraphic" in2="effect1_dropShadow_698_1124" result="shape"></feBlend></filter><filter id="filter1_d_698_1124" x="72.0108" y="400.013" width="57.9803" height="57.9783" filterUnits="userSpaceOnUse" color-interpolation-filters="sRGB"><feFlood flood-opacity="0" result="BackgroundImageFix"></feFlood><feColorMatrix in="SourceAlpha" type="matrix" values="0 0 0 0 0 0 0 0 0 0 0 0 0 0 0 0 0 0 127 0" result="hardAlpha"></feColorMatrix><feOffset></feOffset><feGaussianBlur stdDeviation="10.7807"></feGaussianBlur><feComposite in2="hardAlpha" operator="out"></feComposite><feColorMatrix type="matrix" values="0 0 0 0 0 0 0 0 0 0 0 0 0 0 0 0 0 0 0.4 0"></feColorMatrix><feBlend mode="normal" in2="BackgroundImageFix" result="effect1_dropShadow_698_1124"></feBlend><feBlend mode="normal" in="SourceGraphic" in2="effect1_dropShadow_698_1124" result="shape"></feBlend></filter><filter id="filter2_d_698_1124" x="275.08" y="411.08" width="31.8405" height="31.8405" filterUnits="userSpaceOnUse" color-interpolation-filters="sRGB"><feFlood flood-opacity="0" result="BackgroundImageFix"></feFlood><feColorMatrix in="SourceAlpha" type="matrix" values="0 0 0 0 0 0 0 0 0 0 0 0 0 0 0 0 0 0 127 0" result="hardAlpha"></feColorMatrix><feOffset></feOffset><feGaussianBlur stdDeviation="1.96013"></feGaussianBlur><feComposite in2="hardAlpha" operator="out"></feComposite><feColorMatrix type="matrix" values="0 0 0 0 0 0 0 0 0 0 0 0 0 0 0 0 0 0 0.25 0"></feColorMatrix><feBlend mode="normal" in2="BackgroundImageFix" result="effect1_dropShadow_698_1124"></feBlend><feBlend mode="normal" in="SourceGraphic" in2="effect1_dropShadow_698_1124" result="shape"></feBlend></filter><filter id="filter3_d_698_1124" x="275.57" y="411.574" width="30.8574" height="30.8555" filterUnits="userSpaceOnUse" color-interpolation-filters="sRGB"><feFlood flood-opacity="0" result="BackgroundImageFix"></feFlood><feColorMatrix in="SourceAlpha" type="matrix" values="0 0 0 0 0 0 0 0 0 0 0 0 0 0 0 0 0 0 127 0" result="hardAlpha"></feColorMatrix><feOffset></feOffset><feGaussianBlur stdDeviation="4"></feGaussianBlur><feComposite in2="hardAlpha" operator="out"></feComposite><feColorMatrix type="matrix" values="0 0 0 0 0 0 0 0 0 0 0 0 0 0 0 0 0 0 0.6 0"></feColorMatrix><feBlend mode="normal" in2="BackgroundImageFix" result="effect1_dropShadow_698_1124"></feBlend><feBlend mode="normal" in="SourceGraphic" in2="effect1_dropShadow_698_1124" result="shape"></feBlend></filter><linearGradient id="paint0_linear_698_1124" x1="89" y1="417.004" x2="114.155" y2="418.282" gradientUnits="userSpaceOnUse"><stop stop-color="#DBFF00"></stop><stop offset="0.515625" stop-color="#87FF21"></stop><stop offset="1" stop-color="#00FFC2"></stop></linearGradient><linearGradient id="paint1_linear_698_1124" x1="279" y1="415" x2="304.155" y2="416.279" gradientUnits="userSpaceOnUse"><stop stop-color="#DBFF00"></stop><stop offset="0.515625" stop-color="#87FF21"></stop><stop offset="1" stop-color="#00FFC2"></stop></linearGradient><clipPath id="clip0_698_1124"><rect width="375" height="683" fill="white"></rect></clipPath></defs></svg>