<svg
    class="absolute -left-[73px] -top-[104px] w-[113px] self-start mds:-left-[8.72vw] mds:-top-[102px] mds:w-[12.39583vw] lg:-top-[96px] xl:-top-[88px] 2xl:-top-[84px] 2xxl:w-[222.75px] 2xxl:-left-[140px]"
    viewBox="0 0 336 253" fill="none" xmlns="http://www.w3.org/2000/svg">
    <path fill-rule="evenodd" clip-rule="evenodd"
        d="M79.9882 242.391C44.1443 234.067 16.2536 203.937 -5.86324e-05 179.8C16.1117 203.727 44.5348 229.819 79.6858 237.983C97.2305 242.058 114.818 241.423 134.537 232.215C154.271 223.001 174.97 203.887 195.259 174.925L202.188 180.965C181.759 210.127 157.606 229.046 137.47 238.448C117.32 247.857 97.9409 246.561 79.9882 242.391Z"
        fill="url(#paint0_linear_252_2407)"></path>
    <g clip-path="url(#clip0_252_2407)">
        <path
            d="M185.725 196.063C181.237 192.772 179.228 186.429 180.899 180.141C181.857 176.59 183.552 173.688 185.168 171.091C185.525 170.469 185.881 169.848 186.244 169.326C187.755 166.635 188.421 164.698 188.224 163.217C188.066 162.33 187.599 161.265 187.118 160.002C185.933 157.091 184.372 153.009 185.864 148.527C187.025 145.062 189.466 142.908 191.253 141.395C192.005 140.748 192.941 139.889 193.205 139.373C193.654 138.646 193.529 136.761 193.418 135.075C193.339 133.884 193.248 132.495 193.36 131.193C193.72 121.604 200.667 112.476 210.821 108.319C210.683 107.73 210.452 107.247 210.314 106.658L184.862 115.314C182.436 116.171 179.825 115.746 177.743 114.289C174.309 111.925 173.302 107.209 175.453 103.68C175.532 103.375 175.802 102.959 176.079 102.642L200.234 74.3437C204.476 69.3807 209.896 65.7346 216.015 63.6367L231.076 58.5571C246.134 41.4213 266.415 23.6418 283.172 12.6711C287.544 9.6922 291.758 7.32154 295.807 5.45997C304.57 1.2943 311.17 0.459931 315.903 2.93727C316.417 3.20224 316.832 3.47373 317.247 3.74522C317.662 4.01672 318.084 4.38741 318.407 4.76464C321.584 7.7433 323.091 12.526 323.042 19.3046C323.086 25.9775 321.83 34.0315 319.321 42.6663L319.162 43.2746C319.01 43.9821 318.766 44.7954 318.515 45.5094C318.515 45.5094 317.947 47.44 317.782 47.9491C317.782 47.9491 317.221 49.9789 317.049 50.3888L316.726 51.5062C316.554 51.9161 316.488 52.4186 316.317 52.8285L315.993 53.9459C315.828 54.455 315.168 56.4913 315.168 56.4913C314.924 57.3046 314.679 58.1178 314.336 58.9376C314.336 58.9376 313.676 60.9739 313.412 61.4895C313.412 61.4895 312.653 63.5324 312.488 64.0415L312.066 65.1654L311.043 67.7239C310.878 68.233 310.02 70.2824 310.02 70.2824C309.762 70.8972 308.997 72.8409 308.997 72.8409C308.654 73.6607 308.31 74.4804 307.974 75.3994C307.974 75.3994 307.116 77.4488 306.852 77.9644L305.73 80.5295L305.209 81.6599C304.945 82.1755 304.087 84.2249 304.087 84.2249C303.83 84.8398 302.965 86.79 302.965 86.79C302.622 87.6097 302.18 88.436 301.837 89.2558L301.48 89.8771C301.223 90.492 300.867 91.1133 300.609 91.7281C300.609 91.7281 299.653 93.7841 299.382 94.2005L298.854 95.2317C298.59 95.7473 298.326 96.263 298.056 96.6794L297.528 97.7106C297.264 98.2262 296.294 100.084 296.294 100.084C295.938 100.705 295.588 101.426 295.232 102.047C295.232 102.047 294.79 102.873 294.612 103.184L294.882 119.308C295.011 125.775 293.347 132.163 290.147 137.854L271.93 170.343C271.759 170.753 271.482 171.07 271.211 171.487C268.54 174.652 263.819 175.362 260.478 172.893C258.395 171.436 257.15 169.127 257.177 166.535L256.786 139.559C256.292 139.591 255.699 139.631 255.204 139.663C254.745 149.259 249.565 159.565 239.464 163.021C238.495 163.384 237.42 163.655 236.536 163.813C235.56 164.076 234.097 164.472 233.622 164.802C233.457 165.311 233.357 166.812 233.324 167.811C233.198 170.41 233.104 173.505 231.323 176.612C229.007 180.65 224.602 183.133 218.681 183.724C217.692 183.789 216.703 183.854 215.714 183.92C213.835 184.044 212.055 184.161 210.895 184.636C209.154 185.349 207.386 187.16 205.526 189.076C204.966 189.611 204.411 190.246 203.851 190.781C198.726 195.902 193.504 198.04 188.282 197.189C187.379 197.05 186.562 196.705 185.725 196.063Z"
            fill="white" stroke="#1B2F37" stroke-width="1.5" stroke-miterlimit="10"
            stroke-linecap="round" stroke-linejoin="round"></path>
        <path
            d="M270.634 102.575L288.555 83.6564L289.14 119.587C289.197 124.964 287.863 130.333 285.197 135.092L266.77 167.396C265.793 169.154 263.064 168.438 263.131 166.441L262.503 123.837C262.282 115.98 265.252 108.311 270.634 102.575Z"
            fill="white" stroke="#1B2F37" stroke-width="1.5" stroke-miterlimit="10"
            stroke-linecap="round" stroke-linejoin="round"></path>
        <path opacity="0.25"
            d="M266.769 167.396L285.19 134.993C287.862 130.333 289.196 124.964 289.133 119.488L288.857 101.771L262.637 131.899L262.584 134.094C266.75 134.018 270.602 130.675 273.214 128.112C275.826 125.548 280.377 119.269 283.894 113.856L283.443 120.561C283.5 125.938 282.166 131.307 279.5 136.066L263.032 164.952L263.032 166.447C263.064 168.438 265.793 169.154 266.769 167.396Z"
            fill="#1B2F37"></path>
        <path
            d="M240.211 81.0698L251.982 57.7743L218.077 69.2796C212.927 71.0146 208.364 74.1058 204.861 78.223L180.706 106.521C179.413 108.001 180.955 110.291 182.801 109.671L223.017 95.9553C230.501 93.4683 236.601 88.0835 240.211 81.0698Z"
            fill="white" stroke="#1B2F37" stroke-width="1.5" stroke-miterlimit="10"
            stroke-linecap="round" stroke-linejoin="round"></path>
        <path opacity="0.25"
            d="M180.706 106.521L204.861 78.223C208.364 74.1058 212.927 71.0146 218.077 69.2796L234.786 63.5929L215.929 98.4161L213.502 99.2738C212.647 95.3448 213.822 90.5842 215.386 87.1928C216.95 83.8015 221.297 77.4365 225.229 72.2947L219.044 74.8951C213.894 76.6301 209.33 79.7213 205.828 83.8385L184.252 109.077L182.795 109.571C180.856 110.297 179.315 108.008 180.706 106.521Z"
            fill="#1B2F37"></path>
        <path
            d="M214.728 99.7907C210.572 75.9528 297.966 -2.45437 313.705 8.76177C329.536 19.8722 285.279 128.809 261.517 132.969C237.649 137.036 218.786 123.635 214.728 99.7907Z"
            fill="url(#paint1_linear_252_2407)" stroke="#1B2F37" stroke-width="1.5"
            stroke-miterlimit="10" stroke-linecap="round" stroke-linejoin="round"></path>
        <path
            d="M282.673 23.1661C282.567 23.0734 282.462 22.9807 282.264 22.9938C282.159 22.9011 282.06 22.9076 281.862 22.9207C281.763 22.9272 281.565 22.9403 281.473 23.046C281.374 23.0526 281.282 23.1583 281.189 23.264C281.097 23.3698 281.097 23.3698 281.005 23.4755C280.919 23.6804 280.925 23.7796 280.939 23.9781C280.945 24.0773 280.952 24.1765 280.958 24.2757C280.971 24.4741 281.077 24.5668 281.182 24.6594C281.288 24.7521 281.393 24.8448 281.492 24.8382C281.597 24.9309 281.696 24.9244 281.894 24.9113C281.993 24.9048 282.191 24.8917 282.283 24.786C282.382 24.7795 282.474 24.6737 282.567 24.568C282.659 24.4623 282.659 24.4623 282.751 24.3565C282.837 24.1516 282.831 24.0524 282.818 23.854C282.811 23.7548 282.804 23.6556 282.798 23.5564C282.884 23.3514 282.778 23.2587 282.673 23.1661Z"
            fill="#03843F"></path>
        <path
            d="M285.268 27.8769C285.466 27.8639 285.565 27.8573 285.756 27.7451C285.855 27.7385 285.947 27.6328 286.04 27.5271C286.132 27.4213 286.224 27.3156 286.218 27.2164C286.31 27.1106 286.304 27.0114 286.29 26.813C286.284 26.7138 286.277 26.6146 286.271 26.5154C286.258 26.317 286.152 26.2243 286.047 26.1317C285.941 26.039 285.941 26.039 285.836 25.9463C285.632 25.8602 285.533 25.8667 285.335 25.8798L285.236 25.8863C285.137 25.8928 284.939 25.9059 284.847 26.0116C284.748 26.0181 284.656 26.1239 284.563 26.2296C284.471 26.3354 284.379 26.4411 284.385 26.5403C284.293 26.646 284.299 26.7452 284.313 26.9436C284.319 27.0428 284.326 27.1421 284.332 27.2413C284.345 27.4397 284.451 27.5323 284.556 27.625C284.662 27.7177 284.662 27.7177 284.767 27.8104C284.873 27.903 285.07 27.89 285.268 27.8769Z"
            fill="#03843F"></path>
        <path
            d="M289.256 31.1009C290.442 31.0226 290.417 29.1311 289.131 29.216C287.945 29.2944 288.069 31.1793 289.256 31.1009Z"
            fill="#03843F"></path>
        <path
            d="M293.131 34.1331C293.138 34.2323 293.138 34.2323 293.131 34.1331C293.237 34.2258 293.342 34.3184 293.54 34.3054C293.645 34.3981 293.744 34.3915 293.942 34.3785C294.041 34.3719 294.239 34.3589 294.331 34.2531C294.43 34.2466 294.522 34.1409 294.615 34.0351C294.707 33.9294 294.707 33.9294 294.799 33.8237C294.885 33.6187 294.878 33.5195 294.865 33.3211C294.859 33.2219 294.852 33.1227 294.846 33.0235C294.833 32.8251 294.727 32.7324 294.622 32.6397C294.516 32.547 294.411 32.4544 294.312 32.4609C294.206 32.3682 294.108 32.3748 293.91 32.3878C293.811 32.3944 293.613 32.4074 293.521 32.5132C293.422 32.5197 293.33 32.6254 293.237 32.7312C293.145 32.8369 293.145 32.8369 293.052 32.9426C292.967 33.1476 292.973 33.2468 292.986 33.4452C292.993 33.5444 292.999 33.6436 293.006 33.7428C292.92 33.9477 293.026 34.0404 293.131 34.1331Z"
            fill="#03843F"></path>
        <path
            d="M298.014 37.3975C299.201 37.3192 299.176 35.4277 297.89 35.5126C296.604 35.5975 296.729 37.4824 298.014 37.3975Z"
            fill="#03843F"></path>
        <path
            d="M302.273 40.2052C302.471 40.1921 302.57 40.1856 302.761 40.0733C302.86 40.0668 302.952 39.961 303.045 39.8553C303.137 39.7496 303.229 39.6438 303.223 39.5446C303.315 39.4389 303.308 39.3397 303.295 39.1413C303.289 39.0421 303.282 38.9429 303.276 38.8436C303.263 38.6452 303.157 38.5526 303.052 38.4599C302.946 38.3672 302.946 38.3672 302.841 38.2745C302.636 38.1884 302.538 38.1949 302.34 38.208L302.241 38.2145C302.142 38.221 301.944 38.2341 301.852 38.3398C301.753 38.3464 301.661 38.4521 301.568 38.5578C301.476 38.6636 301.384 38.7693 301.39 38.8685C301.298 38.9743 301.304 39.0735 301.317 39.2719C301.324 39.3711 301.331 39.4703 301.337 39.5695C301.35 39.7679 301.456 39.8606 301.561 39.9533C301.667 40.0459 301.667 40.0459 301.772 40.1386C301.976 40.2247 302.075 40.2182 302.273 40.2052Z"
            fill="#03843F"></path>
        <path
            d="M306.102 42.5429C306.208 42.6355 306.313 42.7282 306.511 42.7151C306.617 42.8078 306.715 42.8013 306.913 42.7882C307.012 42.7817 307.21 42.7686 307.302 42.6629C307.401 42.6564 307.493 42.5506 307.586 42.4449C307.678 42.3392 307.678 42.3392 307.77 42.2334C307.856 42.0285 307.85 41.9293 307.837 41.7309C307.83 41.6317 307.824 41.5325 307.817 41.4333C307.804 41.2348 307.698 41.1422 307.593 41.0495C307.488 40.9568 307.382 40.8641 307.283 40.8707C307.178 40.778 307.079 40.7845 306.881 40.7976C306.782 40.8041 306.584 40.8172 306.492 40.9229C306.393 40.9294 306.301 41.0352 306.208 41.1409C306.116 41.2467 306.116 41.2467 306.024 41.3524C305.938 41.5573 305.945 41.6565 305.958 41.855C305.964 41.9542 305.971 42.0534 305.977 42.1526C305.885 42.2583 305.898 42.4567 306.102 42.5429Z"
            fill="#03843F"></path>
        <path
            d="M310.506 44.5438C311.692 44.4654 311.667 42.574 310.381 42.6589C309.096 42.7438 309.22 44.6287 310.506 44.5438Z"
            fill="#03843F"></path>
        <path
            d="M225.225 81.2623C225.014 81.077 224.915 81.0835 224.81 80.9908C224.705 80.8981 224.606 80.9047 224.408 80.9177C224.309 80.9243 224.111 80.9373 224.019 81.0431C223.92 81.0496 223.828 81.1553 223.735 81.2611C223.643 81.3668 223.643 81.3668 223.551 81.4725C223.465 81.6775 223.471 81.7767 223.484 81.9751C223.491 82.0743 223.498 82.1735 223.504 82.2727C223.517 82.4711 223.623 82.5638 223.728 82.6565C223.728 82.6565 223.827 82.6499 223.834 82.7491C223.939 82.8418 224.044 82.9345 224.143 82.928C224.249 83.0206 224.348 83.0141 224.545 83.001C224.644 82.9945 224.842 82.9814 224.935 82.8757C225.033 82.8692 225.126 82.7634 225.218 82.6577C225.31 82.552 225.31 82.552 225.403 82.4462C225.489 82.2413 225.482 82.1421 225.469 81.9437C225.462 81.8445 225.456 81.7453 225.449 81.6461C225.443 81.5469 225.337 81.4542 225.225 81.2623Z"
            fill="#03843F"></path>
        <path
            d="M230.173 88.508C230.272 88.5015 230.272 88.5015 230.371 88.495C230.47 88.4884 230.668 88.4754 230.76 88.3696C230.859 88.3631 230.951 88.2574 231.044 88.1516C231.136 88.0459 231.229 87.9402 231.222 87.841C231.314 87.7352 231.308 87.636 231.295 87.4376C231.288 87.3384 231.282 87.2392 231.275 87.14C231.262 86.9416 231.156 86.8489 231.051 86.7562C230.946 86.6636 230.946 86.6636 230.84 86.5709C230.636 86.4848 230.537 86.4913 230.339 86.5043C230.24 86.5109 230.24 86.5109 230.141 86.5174C230.042 86.5239 229.845 86.537 229.752 86.6427C229.653 86.6493 229.561 86.755 229.469 86.8607C229.376 86.9665 229.284 87.0722 229.291 87.1714C229.198 87.2771 229.205 87.3763 229.218 87.5748C229.224 87.674 229.231 87.7732 229.238 87.8724C229.251 88.0708 229.356 88.1635 229.462 88.2561C229.567 88.3488 229.567 88.3488 229.672 88.4415C229.87 88.4284 230.075 88.5146 230.173 88.508Z"
            fill="#03843F"></path>
        <path
            d="M237.509 94.3008C238.695 94.2225 238.67 92.331 237.384 92.4159C236.099 92.5008 236.223 94.3857 237.509 94.3008Z"
            fill="#03843F"></path>
        <path
            d="M244.831 99.8952C244.93 99.8887 244.936 99.9879 244.831 99.8952C245.042 100.081 245.14 100.074 245.246 100.167C245.351 100.259 245.45 100.253 245.648 100.24C245.747 100.233 245.945 100.22 246.037 100.114C246.136 100.108 246.228 100.002 246.321 99.8965C246.413 99.7907 246.413 99.7907 246.505 99.685C246.591 99.48 246.585 99.3808 246.571 99.1824C246.565 99.0832 246.558 98.984 246.552 98.8848C246.539 98.6864 246.433 98.5937 246.328 98.5011C246.328 98.5011 246.229 98.5076 246.222 98.4084C246.117 98.3157 246.011 98.223 245.913 98.2296C245.807 98.1369 245.708 98.1434 245.51 98.1565C245.412 98.163 245.214 98.1761 245.121 98.2818C245.023 98.2883 244.93 98.3941 244.838 98.4998C244.745 98.6055 244.745 98.6055 244.653 98.7113C244.567 98.9162 244.574 99.0154 244.587 99.2138C244.594 99.313 244.6 99.4122 244.607 99.5115C244.62 99.7099 244.725 99.8025 244.831 99.8952Z"
            fill="#03843F"></path>
        <path
            d="M252.951 105.537C254.138 105.458 254.112 103.567 252.827 103.652C251.64 103.73 251.764 105.615 252.951 105.537Z"
            fill="#03843F"></path>
        <path
            d="M260.636 110.609C260.735 110.602 260.735 110.602 260.834 110.596C260.933 110.589 261.131 110.576 261.223 110.47C261.322 110.464 261.414 110.358 261.507 110.252C261.599 110.147 261.691 110.041 261.685 109.942C261.777 109.836 261.771 109.737 261.758 109.538C261.751 109.439 261.744 109.34 261.738 109.241C261.725 109.042 261.619 108.95 261.514 108.857C261.408 108.764 261.408 108.764 261.303 108.672C261.099 108.585 261 108.592 260.802 108.605C260.703 108.612 260.703 108.612 260.604 108.618C260.505 108.625 260.308 108.638 260.215 108.743C260.116 108.75 260.024 108.856 259.932 108.961C259.839 109.067 259.747 109.173 259.753 109.272C259.661 109.378 259.668 109.477 259.681 109.676C259.687 109.775 259.694 109.874 259.7 109.973C259.713 110.172 259.819 110.264 259.924 110.357C260.03 110.45 260.03 110.45 260.135 110.542C260.333 110.529 260.537 110.615 260.636 110.609Z"
            fill="#03843F"></path>
        <path
            d="M267.972 114.907C268.183 115.092 268.282 115.086 268.387 115.178C268.493 115.271 268.592 115.265 268.79 115.252C268.889 115.245 269.086 115.232 269.179 115.126C269.278 115.12 269.37 115.014 269.462 114.908C269.555 114.802 269.555 114.802 269.647 114.697C269.733 114.492 269.726 114.393 269.713 114.194C269.706 114.095 269.7 113.996 269.693 113.897C269.68 113.698 269.575 113.605 269.469 113.513C269.469 113.513 269.371 113.519 269.364 113.42C269.259 113.327 269.153 113.235 269.054 113.241C268.949 113.149 268.85 113.155 268.652 113.168C268.553 113.175 268.355 113.188 268.263 113.294C268.164 113.3 268.072 113.406 267.979 113.512C267.887 113.617 267.887 113.617 267.795 113.723C267.709 113.928 267.715 114.027 267.729 114.226C267.735 114.325 267.742 114.424 267.748 114.523C267.755 114.622 267.867 114.814 267.972 114.907Z"
            fill="#03843F"></path>
        <path
            d="M275.348 118.306C276.534 118.227 276.509 116.336 275.223 116.421C273.931 116.407 274.062 118.391 275.348 118.306Z"
            fill="#03843F"></path>
        <path opacity="0.29"
            d="M317.042 20.199C311.015 55.271 280.726 120.043 262.456 123.143C239.083 127.177 220.457 114.358 215.957 91.3399C214.783 94.6059 214.28 97.5285 214.629 99.7972C218.785 123.635 237.648 137.036 261.411 132.876C281.645 129.448 316.403 51.129 317.042 20.199Z"
            fill="#1B2F37"></path>
        <path
            d="M282.595 20.481C296.417 10.2022 309.223 5.5704 313.704 8.76177C318.186 11.9531 318.286 25.4973 313.229 42.1719C302.755 36.9849 290.47 28.4302 282.595 20.481Z"
            fill="white" stroke="#1B2F37" stroke-width="1.5" stroke-miterlimit="10"
            stroke-linecap="round" stroke-linejoin="round"></path>
        <path
            d="M249.048 136.682C249.604 145.114 245.46 154.555 237.396 157.279C234.383 158.275 230.822 158.511 228.797 160.936C226.04 164.306 228.187 169.744 226.05 173.473C224.44 176.169 221.136 177.284 217.978 177.592C214.82 177.901 211.629 177.713 208.629 178.907C204.95 180.346 202.384 183.604 199.488 186.386C196.692 189.161 192.992 191.797 189.076 191.159C186.262 189.152 185.591 185.012 186.463 181.666C187.334 178.321 189.426 175.393 191.108 172.293C192.79 169.192 194.354 165.801 193.828 162.348C193.257 158.201 189.922 154.336 191.249 150.363C192.411 146.899 196.38 145.341 198.162 142.234C199.937 139.028 198.877 135.013 198.938 131.422C199.211 123.533 205.517 116.74 212.876 113.862C219.555 111.229 231.265 109.559 237.883 113.506C245.001 117.52 248.563 129.341 249.048 136.682Z"
            fill="url(#paint2_linear_252_2407)" stroke="#1B2F37" stroke-width="1.5"
            stroke-miterlimit="10" stroke-linecap="round" stroke-linejoin="round"></path>
        <path
            d="M224.222 115.704C218.762 117.26 213.809 121.971 213.879 127.546C213.918 129.636 214.563 131.885 213.487 133.65C211.964 136.142 208.08 136 206.24 138.214C204.855 139.8 204.907 142.088 205.44 144.145C205.966 146.103 206.796 148.141 206.729 150.138C206.603 152.737 205.171 155.123 204.03 157.39C202.895 159.757 202.089 162.6 203.335 164.909C205.206 166.18 207.956 165.7 209.855 164.379C211.754 163.058 213.12 161.174 214.69 159.377C216.161 157.586 218.04 155.967 220.289 155.42C223.032 154.84 226.189 156.027 228.359 154.289C230.252 152.869 230.358 149.972 231.928 148.175C233.597 146.371 236.267 146.195 238.588 145.244C243.527 143.324 246.344 137.857 246.597 132.659C246.784 127.964 245.284 120.291 241.296 117.067C237.118 113.955 229.002 114.392 224.222 115.704Z"
            fill="#43FF73" stroke="#1B2F37" stroke-width="1.5" stroke-miterlimit="10"
            stroke-linecap="round" stroke-linejoin="round"></path>
        <path opacity="0.29"
            d="M225.004 153.116C223.072 152.446 220.989 152.484 219.044 153.111C217.099 153.738 215.404 155.145 214.322 156.81"
            stroke="#1B2F37" stroke-width="1.5" stroke-miterlimit="10" stroke-linecap="round"
            stroke-linejoin="round"></path>
        <path opacity="0.29"
            d="M221.6 125.641C219.964 126.447 218.882 128.112 218.302 129.845C217.721 131.577 217.647 133.475 217.469 135.28C217.363 136.682 217.164 138.19 216.557 139.525C216.049 140.854 215.04 142.116 213.787 142.697"
            stroke="#1B2F37" stroke-width="1.5" stroke-miterlimit="10" stroke-linecap="round"
            stroke-linejoin="round"></path>
        <path opacity="0.29"
            d="M242.535 135.817C242.349 137.523 241.564 139.169 240.357 140.444C239.15 141.72 237.515 142.525 235.846 142.835"
            stroke="#1B2F37" stroke-width="1.5" stroke-miterlimit="10" stroke-linecap="round"
            stroke-linejoin="round"></path>
        <path opacity="0.29" d="M232.404 144.855C232.305 144.862 232.114 144.974 232.015 144.981"
            stroke="#1B2F37" stroke-width="1.5" stroke-miterlimit="10" stroke-linecap="round"
            stroke-linejoin="round"></path>
        <path opacity="0.29" d="M208.181 146.555C209.776 149.638 209.247 153.658 207.037 156.295"
            stroke="#1B2F37" stroke-width="1.5" stroke-miterlimit="10" stroke-linecap="round"
            stroke-linejoin="round"></path>
        <path opacity="0.29" d="M223.371 144.954C223.174 144.967 222.976 144.98 222.884 145.086"
            stroke="#1B2F37" stroke-width="1.5" stroke-miterlimit="10" stroke-linecap="round"
            stroke-linejoin="round"></path>
        <path opacity="0.29" d="M210.865 160.127C209.566 161.508 207.95 162.612 206.203 163.225"
            stroke="#1B2F37" stroke-width="1.5" stroke-miterlimit="10" stroke-linecap="round"
            stroke-linejoin="round"></path>
        <path opacity="0.29" d="M223.917 118.613C221.385 119.378 219.11 121.023 217.566 123.217"
            stroke="#1B2F37" stroke-width="1.5" stroke-miterlimit="10" stroke-linecap="round"
            stroke-linejoin="round"></path>
        <path
            d="M220.9 81.9465C216.334 89.5215 213.965 95.7559 214.629 99.7972C218.786 123.635 237.649 137.036 261.411 132.876C265.44 132.212 270.511 127.792 276.118 120.945C252.651 113.029 234.493 99.7808 220.9 81.9465Z"
            fill="#1B2F37" stroke="#1B2F37" stroke-width="1.5" stroke-miterlimit="10"
            stroke-linecap="round" stroke-linejoin="round"></path>
        <path
            d="M261.812 89.3083L262.089 104.036C262.206 108.811 260.022 113.34 256.243 116.279L224.567 140.491C222.391 142.129 219.471 140.03 220.29 137.385L232.377 99.3227C233.863 94.7409 237.398 91.1197 241.868 89.6289L255.762 84.9252C258.676 83.9356 261.8 86.1207 261.812 89.3083Z"
            fill="white" stroke="#1B2F37" stroke-width="1.5" stroke-miterlimit="10"
            stroke-linecap="round" stroke-linejoin="round"></path>
        <path opacity="0.29"
            d="M262.182 103.931L261.904 89.2025C261.793 86.0214 258.768 83.8299 255.755 84.826L241.862 89.5297C237.292 91.0271 233.856 94.6417 232.371 99.2235L224.152 125.174L230.857 109.387C232.658 105.083 235.989 101.376 239.827 99.3289L251.532 93.0759C254.025 91.7156 256.213 93.265 255.803 96.0819L253.886 109.161C253.277 113.486 250.882 117.829 247.413 120.948L234.869 132.537L256.52 115.962C260.022 113.34 262.206 108.811 262.182 103.931Z"
            fill="#1B2F37"></path>
        <path
            d="M294.97 50.9738C296.473 46.0957 293.749 40.9176 288.885 39.4082C284.021 37.8988 278.86 40.6296 277.358 45.5077C275.855 50.3858 278.579 55.5639 283.443 57.0733C288.307 58.5827 293.468 55.8519 294.97 50.9738Z"
            fill="#1B2F37" stroke="url(#paint3_linear_252_2407)" stroke-width="0.8625"
            stroke-miterlimit="10"></path>
        <path
            d="M280.922 50.8608C281.653 51.4103 282.378 51.8606 283.097 52.2117C283.815 52.5629 284.62 52.709 285.318 52.7625C286.017 52.816 286.808 52.7638 287.593 52.6123C288.378 52.4609 289.156 52.2102 290.02 51.7546C289.683 52.6736 288.931 53.3211 288.067 53.7767C287.203 54.2322 286.122 54.4033 285.127 54.3694C284.125 54.2363 283.109 53.9048 282.371 53.256C281.633 52.6073 281.086 51.8463 280.922 50.8608Z"
            fill="white"></path>
        <path
            d="M296.741 55.7154C292.658 61.5647 284.508 62.9996 278.669 58.8019C272.836 54.7034 271.402 46.5281 275.584 40.6722C279.668 34.8228 287.817 33.3879 293.657 37.5857C299.489 41.6842 300.824 49.866 296.741 55.7154Z"
            stroke="#1B2F37" stroke-width="1.5" stroke-miterlimit="10" stroke-linecap="round"
            stroke-linejoin="round"></path>
        <g opacity="0.72">
            <path
                d="M222.987 167.697C223.118 169.681 221.944 171.452 220.427 172.549C218.528 173.87 216.266 174.218 213.998 174.468C213.207 174.52 213.292 175.81 214.083 175.757C216.648 175.488 219.298 175.014 221.382 173.482C223.176 172.068 224.43 169.993 224.279 167.711C224.214 166.719 222.928 166.804 222.987 167.697Z"
                fill="white"></path>
        </g>
        <g opacity="0.72">
            <path
                d="M243.617 147.702C240.991 151.562 236.804 154.329 232.182 155.033C231.397 155.185 231.483 156.474 232.267 156.323C237.285 155.593 241.769 152.806 244.573 148.635C245.021 147.908 244.066 146.975 243.617 147.702Z"
                fill="white"></path>
        </g>
        <g opacity="0.72">
            <path
                d="M196.597 148.615C194.796 151.424 194.742 155.114 196.422 157.992C196.863 158.661 197.912 157.994 197.464 157.226C196.008 154.732 196.095 151.538 197.724 149.138C197.903 148.828 197.679 148.444 197.468 148.258C197.164 148.179 196.775 148.304 196.597 148.615Z"
                fill="white"></path>
        </g>
        <g opacity="0.72">
            <path
                d="M215.019 114.717C211.392 115.455 208.148 117.463 205.859 120.404C205.305 121.038 206.353 121.866 206.808 121.238C208.912 118.508 211.965 116.613 215.394 115.888C215.691 115.868 215.856 115.359 215.836 115.062C215.718 114.771 215.315 114.698 215.019 114.717Z"
                fill="white"></path>
        </g>
        <g opacity="0.72">
            <path
                d="M205.418 133.286C202.062 135.102 200.531 138.989 201.465 142.614C201.715 143.395 202.882 143.019 202.632 142.238C201.829 139.103 203.307 135.916 206.09 134.437C206.38 134.318 206.446 133.816 206.229 133.531C206.104 133.141 205.807 133.161 205.418 133.286Z"
                fill="white"></path>
        </g>
        <g opacity="0.72">
            <path
                d="M221.857 158.106C220.459 157.999 219.107 158.587 218.085 159.651C217.801 159.869 217.933 160.358 218.144 160.543C218.454 160.722 218.75 160.703 219.034 160.485C219.133 160.478 219.126 160.379 219.225 160.372C219.225 160.372 219.324 160.366 219.317 160.267C219.41 160.161 219.502 160.055 219.7 160.042C219.792 159.936 219.99 159.923 220.082 159.818C220.181 159.811 220.181 159.811 220.082 159.818L220.181 159.811C220.28 159.805 220.373 159.699 220.373 159.699C220.471 159.692 220.663 159.58 220.762 159.574C220.86 159.567 220.86 159.567 220.959 159.56C220.86 159.567 221.058 159.554 220.959 159.56L221.058 159.554C221.355 159.534 221.652 159.515 221.948 159.495C222.245 159.476 222.621 159.152 222.502 158.861C222.47 158.365 222.16 158.186 221.857 158.106Z"
                fill="white"></path>
        </g>
        <g opacity="0.72">
            <path
                d="M196.554 170.538C196.355 173.54 194.956 176.422 192.602 178.371C192.318 178.589 192.246 178.993 192.463 179.277C192.68 179.562 193.083 179.635 193.366 179.417C195.905 177.257 197.588 174.156 197.86 170.751C197.84 170.453 197.715 170.063 197.313 169.99C197.016 170.009 196.627 170.135 196.554 170.538Z"
                fill="white"></path>
        </g>
        <g opacity="0.72">
            <path
                d="M215.219 170.401C210.993 169.585 206.661 171.664 204.635 175.584C204.286 176.305 205.419 176.927 205.769 176.207C207.432 172.809 211.184 170.967 214.909 171.717C215.812 171.857 216.023 170.548 215.219 170.401Z"
                fill="white"></path>
        </g>
        <g opacity="0.72">
            <path
                d="M200.345 157.235C199.441 158.59 199.058 160.309 199.064 161.903C199.07 163.497 199.379 165.17 200.545 166.289C201.079 166.852 202.009 165.893 201.376 165.337C200.526 164.497 200.329 163.015 200.349 161.818C200.363 160.522 200.667 159.107 201.393 158.063C201.571 157.752 201.65 157.448 201.334 157.17C201.024 156.991 200.523 156.924 200.345 157.235Z"
                fill="white"></path>
        </g>
        <g opacity="0.72">
            <path
                d="M190.424 184.494L190.332 184.599C190.239 184.705 190.239 184.705 190.246 184.804C190.252 184.903 190.16 185.009 190.16 185.009C190.167 185.108 190.173 185.208 190.272 185.201C190.279 185.3 190.378 185.294 190.384 185.393L190.49 185.486C190.595 185.578 190.694 185.572 190.793 185.565C190.892 185.559 190.892 185.559 190.991 185.552C191.089 185.546 191.182 185.44 191.274 185.334L191.367 185.228C191.459 185.123 191.459 185.123 191.452 185.024C191.446 184.924 191.538 184.819 191.538 184.819C191.532 184.719 191.525 184.62 191.426 184.627C191.42 184.527 191.321 184.534 191.314 184.435L191.209 184.342C191.103 184.249 191.004 184.256 190.905 184.263C190.807 184.269 190.807 184.269 190.708 184.276C190.615 184.381 190.523 184.487 190.424 184.494Z"
                fill="white"></path>
        </g>
        <g opacity="0.72">
            <path
                d="M216.059 163.571C216.851 163.518 216.765 162.229 215.974 162.281C215.084 162.34 215.169 163.629 216.059 163.571Z"
                fill="white"></path>
        </g>
        <g opacity="0.72">
            <path
                d="M204.137 124.403C204.928 124.351 204.843 123.061 204.051 123.114C203.26 123.166 203.345 124.455 204.137 124.403Z"
                fill="white"></path>
        </g>
        <g opacity="0.72">
            <path
                d="M246.447 145.423C246.698 144.709 246.949 143.995 247.305 143.373C247.391 143.168 247.384 143.069 247.371 142.871C247.358 142.672 247.154 142.586 247.048 142.493C246.738 142.315 246.349 142.44 246.171 142.751C245.92 143.465 245.67 144.179 245.313 144.8C245.228 145.005 245.234 145.104 245.247 145.303C245.26 145.501 245.465 145.587 245.57 145.68C245.972 145.753 246.368 145.727 246.447 145.423Z"
                fill="white"></path>
        </g>
        <path opacity="0.36"
            d="M309.342 19.4122C314.345 22.9677 312.104 37.1646 307.277 54.3222C315.052 33.6819 317.888 14.962 312.049 10.7642C297.463 0.468306 219.21 69.9022 217.116 95.3485C231.152 65.726 296.114 10.1226 309.342 19.4122Z"
            fill="white"></path>
    </g>
    <defs>
        <linearGradient id="paint0_linear_252_2407" x1="197.924" y1="177.248" x2="19.3433"
            y2="189.499" gradientUnits="userSpaceOnUse">
            <stop stop-color="#4CFF69"></stop>
            <stop offset="1" stop-color="white" stop-opacity="0"></stop>
        </linearGradient>
        <linearGradient id="paint1_linear_252_2407" x1="209.029" y1="14.2921" x2="321.889"
            y2="11.8962" gradientUnits="userSpaceOnUse">
            <stop stop-color="#DBFF00"></stop>
            <stop offset="0.515625" stop-color="#87FF21"></stop>
            <stop offset="1" stop-color="#00FFC2"></stop>
        </linearGradient>
        <linearGradient id="paint2_linear_252_2407" x1="181.436" y1="114.118" x2="250.685"
            y2="112.543" gradientUnits="userSpaceOnUse">
            <stop stop-color="#DBFF00"></stop>
            <stop offset="0.515625" stop-color="#87FF21"></stop>
            <stop offset="1" stop-color="#00FFC2"></stop>
        </linearGradient>
        <linearGradient id="paint3_linear_252_2407" x1="274.637" y1="54.3403" x2="281.321"
            y2="36.1318" gradientUnits="userSpaceOnUse">
            <stop stop-color="#DBFF00"></stop>
            <stop offset="0.515625" stop-color="#87FF21"></stop>
            <stop offset="1" stop-color="#00FFC2"></stop>
        </linearGradient>
        <clipPath id="clip0_252_2407">
            <rect width="156" height="189" fill="white"
                transform="translate(167 10.2791) rotate(-3.77806)"></rect>
        </clipPath>
    </defs>

  
</svg>