<svg xmlns="http://www.w3.org/2000/svg">
    <symbol id='arrow-right' viewBox="0 0 11 19">
        <path
            d="M10.3594 8.64062C10.8672 9.10938 10.8672 9.92969 10.3594 10.3984L2.85938 17.8984C2.39062 18.4062 1.57031 18.4062 1.10156 17.8984C0.59375 17.4297 0.59375 16.6094 1.10156 16.1406L7.70312 9.5L1.10156 2.89844C0.59375 2.42969 0.59375 1.60938 1.10156 1.14062C1.57031 0.632812 2.39062 0.632812 2.85938 1.14062L10.3594 8.64062Z"
            class="fill-white group-hover:fill-[#96F048]"></path>
    </symbol>
    <symbol id='logo' viewBox="0 0 210 22">
        <path fill-rule="evenodd" clip-rule="evenodd"
            d="M123.569 21.0266H129.318V13.3805H146.058V8.4531H129.318V6.24425H146.101V0.807079H126.739C126.345 0.807079 125.964 0.906194 125.598 1.10442C125.232 1.27434 124.893 1.51504 124.583 1.82655C124.273 2.13805 124.02 2.49204 123.823 2.8885C123.653 3.28496 123.569 3.68142 123.569 4.07788V21.0266ZM129.318 21.8336H123.569C123.033 21.8336 122.766 21.5646 122.766 21.0266V4.07788C122.766 3.56814 122.878 3.07257 123.104 2.59115C123.358 2.10974 123.668 1.68496 124.034 1.31681C124.428 0.920354 124.851 0.60885 125.302 0.382301C125.781 0.127434 126.26 0 126.739 0H146.101C146.636 0 146.904 0.269026 146.904 0.807079V6.24425C146.904 6.78231 146.636 7.05133 146.101 7.05133H130.121V7.64602H146.058C146.594 7.64602 146.862 7.91505 146.862 8.4531V13.3805C146.862 13.9186 146.594 14.1876 146.058 14.1876H130.121V21.0266C130.121 21.5646 129.854 21.8336 129.318 21.8336ZM10.1457 13.9752H19.6995V15.4195H6.76377V6.62655H26.0405C26.2941 6.62655 26.421 6.49912 26.421 6.24425V0.637168C26.421 0.382301 26.2941 0.254867 26.0405 0.254867H3.72007C3.26915 0.254867 2.81824 0.368141 2.36732 0.594691C1.94458 0.79292 1.55003 1.07611 1.18366 1.44425C0.845471 1.78407 0.563647 2.18053 0.338188 2.63363C0.112729 3.08673 0 3.53983 0 3.99292V18.0956C0 18.577 0.112729 19.0443 0.338188 19.4974C0.563647 19.9221 0.845471 20.3186 1.18366 20.6867C1.55003 21.0266 1.94458 21.3098 2.36732 21.5363C2.81824 21.7345 3.26915 21.8336 3.72007 21.8336H22.7432C23.1941 21.8336 23.6309 21.7345 24.0536 21.5363C24.5046 21.3098 24.8991 21.0266 25.2373 20.6867C25.6037 20.3186 25.8855 19.9221 26.0828 19.4974C26.3082 19.0443 26.421 18.577 26.421 18.0956V11.8513C26.421 11.3982 26.3082 10.9451 26.0828 10.492C25.8855 10.0389 25.6037 9.62833 25.2373 9.26019C24.8991 8.89204 24.5046 8.60886 24.0536 8.41063C23.6309 8.18408 23.1941 8.0708 22.7432 8.0708H10.1457C9.89201 8.0708 9.76519 8.2124 9.76519 8.49558V13.5929C9.76519 13.8478 9.89201 13.9752 10.1457 13.9752ZM47.5634 7.26372C47.9015 7.26372 48.0706 7.377 48.0706 7.60355V12.5735H42.6596L46.1261 8.32567L46.0838 8.36815C46.3092 8.11328 46.5488 7.87257 46.8024 7.64602C47.0843 7.39116 47.3379 7.26372 47.5634 7.26372ZM54.7921 21.4089V5.35222C54.7921 4.36107 54.6371 3.53983 54.3271 2.8885C54.0453 2.23717 53.6367 1.71328 53.1012 1.31681C52.5939 0.920354 51.9598 0.651327 51.1989 0.509733C50.4661 0.339822 49.6489 0.254867 48.747 0.254867C47.5634 0.254867 46.422 0.368141 45.3229 0.594691C44.2237 0.821239 43.3219 1.2177 42.6174 1.78407L28.1175 21.154C28.033 21.2956 28.0189 21.4513 28.0752 21.6213C28.1316 21.7629 28.2584 21.8336 28.4557 21.8336H35.3886C35.5858 21.8336 35.6986 21.777 35.7268 21.6637L38.3054 18.3929H48.0706V21.4089C48.0706 21.6921 48.2116 21.8336 48.4934 21.8336H54.4117C54.6653 21.8336 54.7921 21.6921 54.7921 21.4089ZM64.6316 21.8336H58.7133C58.4315 21.8336 58.2906 21.6921 58.2906 21.4089V3.2708C58.2906 2.90266 58.3892 2.53451 58.5865 2.16637C58.7838 1.79823 59.0515 1.47257 59.3897 1.18938C59.7561 0.906194 60.1647 0.679645 60.6156 0.509733C61.0666 0.339822 61.5457 0.254867 62.0529 0.254867H63.7016C64.5189 0.339823 65.308 0.637169 66.0689 1.1469C66.8299 1.62832 67.4358 2.23717 67.8867 2.97345L74.0586 13.2531L80.2728 2.97345C80.7238 2.23717 81.3156 1.62832 82.0483 1.1469C82.8093 0.637169 83.5984 0.339823 84.4156 0.254867H86.0643C86.5716 0.254867 87.0507 0.339822 87.5016 0.509733C87.9807 0.679645 88.3894 0.906194 88.7275 1.18938C89.0939 1.47257 89.3757 1.79823 89.573 2.16637C89.7703 2.53451 89.8689 2.90266 89.8689 3.2708V21.4089C89.8689 21.6921 89.728 21.8336 89.4462 21.8336H83.5279C83.2461 21.8336 83.1052 21.6921 83.1052 21.4089V11.3841C81.9215 13.3664 80.8224 15.108 79.8078 16.6089C78.8215 18.0814 78.0605 19.1859 77.5251 19.9221C76.9051 20.7434 76.3273 21.2673 75.7918 21.4938C75.2564 21.7204 74.8336 21.8336 74.5236 21.8336H73.6359C73.1286 21.8336 72.6495 21.7204 72.1986 21.4938C71.7759 21.2673 71.2545 20.7434 70.6345 19.9221C70.0708 19.1859 69.2817 18.0814 68.2672 16.6089C67.2808 15.108 66.1958 13.3664 65.0121 11.3841V21.4089C65.0121 21.6921 64.8853 21.8336 64.6316 21.8336ZM101.981 8.0708H112.846V6.62655H100.164V15.4195H119.187C119.44 15.4195 119.567 15.5611 119.567 15.8443V21.4089C119.567 21.6921 119.44 21.8336 119.187 21.8336H97.1198C96.6689 21.8336 96.218 21.7345 95.7671 21.5363C95.3443 21.3098 94.9498 21.0266 94.5834 20.6867C94.2452 20.3186 93.9634 19.9221 93.7379 19.4974C93.5125 19.0443 93.3998 18.577 93.3998 18.0956V3.99292C93.3998 3.53983 93.5125 3.08673 93.7379 2.63363C93.9634 2.18053 94.2452 1.78407 94.5834 1.44425C94.9498 1.07611 95.3443 0.79292 95.7671 0.594691C96.218 0.368141 96.6689 0.254867 97.1198 0.254867H115.889C116.34 0.254867 116.777 0.368141 117.2 0.594691C117.651 0.79292 118.045 1.07611 118.383 1.44425C118.75 1.78407 119.032 2.18053 119.229 2.63363C119.454 3.08673 119.567 3.53983 119.567 3.99292V10.2372C119.567 10.7186 119.454 11.1859 119.229 11.6389C119.032 12.0637 118.75 12.4602 118.383 12.8283C118.045 13.1682 117.651 13.4513 117.2 13.6779C116.777 13.8761 116.34 13.9752 115.889 13.9752H101.981C101.728 13.9752 101.601 13.8478 101.601 13.5929V8.49558C101.601 8.2124 101.728 8.0708 101.981 8.0708ZM156.412 1.27434V21.0266H150.706V1.27434H156.412ZM157.173 21.0266V1.27434C157.173 0.736283 156.92 0.467256 156.412 0.467256H150.706C150.198 0.467256 149.945 0.736283 149.945 1.27434V21.0266C149.945 21.5646 150.198 21.8336 150.706 21.8336H156.412C156.92 21.8336 157.173 21.5646 157.173 21.0266ZM177.937 10.8319C177.712 10.7115 177.488 10.6514 177.263 10.6514H167.249C167.025 10.6514 166.793 10.7115 166.553 10.8319C166.329 10.9372 166.119 11.0876 165.924 11.2831C165.745 11.4636 165.595 11.6742 165.475 11.9148C165.371 12.1555 165.318 12.3962 165.318 12.6368V20.0146C165.318 20.2703 165.371 20.5184 165.475 20.7591C165.595 20.9847 165.745 21.1953 165.924 21.3908C166.119 21.5713 166.329 21.7217 166.553 21.8421C166.793 21.9474 167.025 22 167.249 22H177.263C177.488 22 177.712 21.9474 177.937 21.8421C178.177 21.7217 178.386 21.5713 178.566 21.3908C178.76 21.1953 178.91 20.9847 179.015 20.7591C179.135 20.5184 179.194 20.2703 179.194 20.0146V12.6368C179.194 12.3962 179.135 12.1555 179.015 11.9148C178.91 11.6742 178.76 11.4636 178.566 11.2831C178.386 11.0876 178.177 10.9372 177.937 10.8319ZM168.843 14.0131H175.647V18.6383H168.843V14.0131ZM163.657 18.8188V21.7744C163.657 21.9248 163.589 22 163.454 22H160.311C160.161 22 160.086 21.9248 160.086 21.7744V18.8188C160.086 18.6684 160.161 18.5932 160.311 18.5932H163.454C163.589 18.5932 163.657 18.6684 163.657 18.8188ZM181.384 14.7802H190.68V14.0131H181.384C181.249 14.0131 181.182 13.9379 181.182 13.7875V10.877C181.182 10.7266 181.249 10.6514 181.384 10.6514H192.274C192.499 10.6514 192.723 10.7115 192.948 10.8319C193.187 10.9372 193.397 11.0876 193.576 11.2831C193.771 11.4636 193.921 11.6742 194.025 11.9148C194.145 12.1555 194.205 12.3962 194.205 12.6368V15.9083C194.205 16.149 194.145 16.3896 194.025 16.6303C193.921 16.8559 193.771 17.0665 193.576 17.262C193.397 17.4425 193.187 17.5929 192.948 17.7132C192.723 17.8185 192.499 17.8712 192.274 17.8712H191.825L194.542 21.6616C194.602 21.7368 194.609 21.812 194.564 21.8872C194.534 21.9624 194.467 22 194.362 22H190.837C190.747 22 190.695 21.9699 190.68 21.9098L187.559 17.8712H184.707V21.7744C184.707 21.9248 184.64 22 184.505 22H181.384C181.249 22 181.182 21.9248 181.182 21.7744V14.9833C181.182 14.8479 181.249 14.7802 181.384 14.7802ZM201.49 17.8712H206.452V18.6383H199.694V14.0131H209.798C209.933 14.0131 210 13.9379 210 13.7875V10.877C210 10.7266 209.933 10.6514 209.798 10.6514H198.1C197.875 10.6514 197.643 10.7115 197.404 10.8319C197.179 10.9372 196.97 11.0876 196.775 11.2831C196.595 11.4636 196.446 11.6742 196.326 11.9148C196.221 12.1555 196.169 12.3962 196.169 12.6368V20.0146C196.169 20.2703 196.221 20.5184 196.326 20.7591C196.446 20.9847 196.595 21.1953 196.775 21.3908C196.97 21.5713 197.179 21.7217 197.404 21.8421C197.643 21.9474 197.875 22 198.1 22H208.069C208.294 22 208.518 21.9474 208.743 21.8421C208.982 21.7217 209.192 21.5713 209.371 21.3908C209.566 21.1953 209.716 20.9847 209.82 20.7591C209.94 20.5184 210 20.2703 210 20.0146V16.7431C210 16.5024 209.94 16.2693 209.82 16.0437C209.716 15.803 209.566 15.5924 209.371 15.4119C209.192 15.2164 208.982 15.066 208.743 14.9607C208.518 14.8404 208.294 14.7802 208.069 14.7802H201.49C201.355 14.7802 201.288 14.8479 201.288 14.9833V17.6681C201.288 17.8035 201.355 17.8712 201.49 17.8712Z"
            fill="#7FF252"></path>
    </symbol>
    <symbol id='arrow-bottom' viewBox="0 0 24 24">
        <path d="m7 10 5 5 5-5z"></path>
    </symbol>
    <symbol id='gafi-arrow' viewBox="0 0 12 12">
        <path
            d="M10.954 9.10707C11.0554 9.00576 11.148 8.86728 11.1324 8.67665L11.1675 1.37708C11.175 1.22173 11.1234 1.08232 11.0245 0.983469C10.9257 0.884615 10.7863 0.833008 10.6309 0.84053L3.32821 0.875577C2.99199 0.868141 2.72066 1.13895 2.70225 1.45061C2.65998 1.79492 2.91518 2.05242 3.23607 2.03704L9.16634 2.01855L1.00984 10.175C0.884774 10.3001 0.831827 10.4656 0.833204 10.6212C0.834567 10.7754 0.889437 10.9302 0.993939 11.0347C1.20779 11.2486 1.57704 11.2127 1.81229 10.9775L9.9696 2.82019L9.97094 8.77211C9.95568 9.09292 10.2132 9.34803 10.5574 9.30574C10.7208 9.29592 10.8539 9.20723 10.954 9.10707Z"
            fill="black" stroke="black" stroke-width="0.2"></path>
    </symbol>
    <symbol id='sign' viewBox="0 0 17 16">
        <path
            d="M15.5 0H1.5C0.9 0 0.5 0.4 0.5 1V15C0.5 15.6 0.9 16 1.5 16H15.5C16.1 16 16.5 15.6 16.5 15V1C16.5 0.4 16.1 0 15.5 0ZM12.5 9H9.5V12H7.5V9H4.5V7H7.5V4H9.5V7H12.5V9Z"
            fill="black"></path>
    </symbol>
    <symbol id='arrow-bottom-2' viewBox="0 0 17 16">
        <path d="M4 6.5L8.5 11L13 6.5" stroke="#EBEDF0" stroke-miterlimit="10"
            stroke-linecap="round"
            stroke-linejoin="round"></path>
    </symbol>
    <symbol id='gf' viewBox="0 0 17 16">

        <path fill-rule="evenodd" clip-rule="evenodd"
            d="M0.5 8C0.5 3.6 4.1 0 8.5 0C12.9 0 16.5 3.6 16.5 8C16.5 12.4 12.9 16 8.5 16C4.1 16 0.5 12.4 0.5 8ZM4.6123 10.7326C4.97287 10.9109 5.39126 11 5.86748 11C6.35049 11 6.76548 10.9109 7.11244 10.7326C7.4662 10.5474 7.74173 10.2903 7.93902 9.96114C8.1363 9.62514 8.23495 9.23086 8.23495 8.77829V7.76343H5.68379V8.87429H6.94667C6.93053 9.17795 6.83612 9.4168 6.66344 9.59086C6.47975 9.78286 6.21443 9.87886 5.86748 9.87886C5.52052 9.87886 5.2518 9.78286 5.06131 9.59086C4.87082 9.39886 4.77558 9.128 4.77558 8.77829V7.21143C4.77558 6.86171 4.87082 6.59429 5.06131 6.40914C5.2518 6.224 5.52052 6.13143 5.86748 6.13143C6.21443 6.13143 6.47975 6.224 6.66344 6.40914C6.85392 6.59429 6.94917 6.86514 6.94917 7.22171H8.23495C8.23495 6.76229 8.1363 6.368 7.93902 6.03886C7.74173 5.70971 7.4662 5.456 7.11244 5.27771C6.76548 5.09257 6.35049 5 5.86748 5C5.39126 5 4.97287 5.09257 4.6123 5.27771C4.25854 5.456 3.98302 5.70971 3.78573 6.03886C3.59524 6.368 3.5 6.76229 3.5 7.22171V8.77829C3.5 9.23086 3.59524 9.62514 3.78573 9.96114C3.98302 10.2903 4.25854 10.5474 4.6123 10.7326ZM13.5 5.10286H8.8671V10.8971H10.1427V8.63772H13.2347V7.44457H10.1223V6.296H13.5V5.10286Z"
            fill="currentColor"></path>

    </symbol>
    <symbol id='menu-button' viewBox="0 0 34 14">
        <rect width="34" height="2.61538" rx="1.30769" fill="currentColor"></rect>
        <rect y="10.4617" width="34" height="2.61538" rx="1.30769" fill="currentColor"></rect>
    </symbol>
    <symbol id='slider-icon' viewBox="0 0 27 28">
        <path
            d="M3.77184 14.9795L19.2677 14.9795L15.3527 18.9054L16.8946 20.4474L23.4561 13.886L16.8947 7.32455L15.3527 8.86648L19.2677 12.7924L3.77184 12.7924L3.77184 14.9795Z"
            fill="black"></path>
    </symbol>
    <symbol id='binance' viewBox="0 0 28 28">
        <path
            d="M14 28C21.732 28 28 21.732 28 14C28 6.26801 21.732 0 14 0C6.26801 0 0 6.26801 0 14C0 21.732 6.26801 28 14 28Z"
            fill="#EDBC04"></path>
        <path
            d="M14.1831 9.70336L16.9933 12.5141C17.0944 12.6152 17.2583 12.6152 17.3593 12.5141L18.8406 11.0325C18.9416 10.9315 18.9416 10.7676 18.8406 10.6666L14.183 6.00796C14.082 5.90685 13.918 5.90685 13.817 6.00796L9.16112 10.6649C9.06006 10.7659 9.06006 10.9298 9.16112 11.0309L10.6424 12.5124C10.7434 12.6135 10.9073 12.6135 11.0084 12.5124L13.817 9.70336C13.9182 9.60225 14.082 9.60225 14.1831 9.70336Z"
            fill="white"></path>
        <path
            d="M7.49068 12.3353L6.00938 13.8169C5.90833 13.918 5.90833 14.0818 6.00938 14.1829L7.49056 15.6644C7.59161 15.7655 7.75553 15.7655 7.85658 15.6644L9.33788 14.1828C9.43893 14.0818 9.43893 13.9179 9.33788 13.8169L7.85664 12.3354C7.75565 12.2343 7.5918 12.2343 7.49068 12.3353Z"
            fill="white"></path>
        <path
            d="M14.1829 21.9921L18.8413 17.3327C18.9423 17.2316 18.9423 17.0676 18.8411 16.9666L17.3591 15.4859C17.258 15.3849 17.0942 15.3849 16.9931 15.486L14.1829 18.2967C14.0818 18.3978 13.9179 18.3978 13.8169 18.2967L11.008 15.4874C10.907 15.3864 10.7434 15.3863 10.6423 15.4871L9.15882 16.9667C9.05752 17.0678 9.05739 17.2318 9.15857 17.3329L13.8169 21.9921C13.918 22.0932 14.0818 22.0932 14.1829 21.9921Z"
            fill="white"></path>
        <path
            d="M20.1435 12.336L18.6622 13.8177C18.5612 13.9187 18.5612 14.0826 18.6622 14.1836L20.1435 15.6652C20.2445 15.7663 20.4084 15.7663 20.5095 15.6652L21.9908 14.1836C22.0918 14.0825 22.0918 13.9186 21.9908 13.8176L20.5095 12.336C20.4084 12.235 20.2446 12.235 20.1435 12.336Z"
            fill="white"></path>
        <path
            d="M15.6925 13.817L14.1831 12.3073C14.0821 12.2062 13.9181 12.2062 13.8171 12.3073L12.3077 13.817C12.2067 13.918 12.2067 14.0819 12.3077 14.1829L13.8171 15.6927C13.9181 15.793z9 14.0821 15.7939 14.1831 15.6927L15.6925 14.1829C15.7935 14.0818 15.7935 13.918 15.6925 13.817Z"
            fill="white"></path>
    </symbol>

    <symbol id='instruction-check' viewBox="0 0 43 43">
        <path
            d="M42.125 21.9419C42.125 24.977 40.6484 27.602 38.2695 29.0786C38.8438 31.7856 38.1055 34.7388 35.9727 36.7896C33.9219 38.9224 30.9687 39.7427 28.2617 39.1685C26.7031 41.4653 24.1602 42.9419 21.125 42.9419C18.1719 42.9419 15.5469 41.4653 13.9883 39.1685C11.2812 39.7427 8.41016 38.9224 6.27734 36.7896C4.22656 34.7388 3.40625 31.7856 3.98047 29.0786C1.68359 27.602 0.125 24.977 0.125 21.9419C0.125 18.9888 1.68359 16.3638 3.98047 14.8872C3.40625 12.1802 4.22656 9.22705 6.27734 7.09424C8.41016 5.04346 11.3633 4.22314 13.9883 4.79736C15.5469 2.50049 18.1719 0.941895 21.125 0.941895C24.1602 0.941895 26.7031 2.50049 28.2617 4.79736C30.9687 4.22314 33.9219 5.04346 35.9727 7.09424C38.1055 9.22705 38.8438 12.1802 38.2695 14.8872C40.5664 16.3638 42.125 18.9888 42.125 21.9419ZM29.082 18.7427C29.9023 18.0044 29.9023 16.7739 29.082 16.0356C28.3437 15.2153 27.1133 15.2153 26.375 16.0356L18.582 23.8286L15.957 21.2856C15.2187 20.4653 13.9883 20.4653 13.25 21.2856C12.4297 22.0239 12.4297 23.2544 13.25 23.9927L17.1875 27.9302C17.5156 28.3403 18.0078 28.5044 18.582 28.5044C19.0742 28.5044 19.5664 28.3403 19.8945 27.9302L29.082 18.7427Z"
        ></path>
    </symbol>
    <symbol id='instruction-apply' viewBox="0 0 45 37">
        <path
            d="M19.2234 22.3169C25.8272 22.3169 31.1928 27.8013 31.1928 34.5513C31.1928 35.8872 30.0922 36.9419 28.7852 36.9419H2.71385C1.40685 36.9419 0.375 35.8872 0.375 34.5513C0.375 27.8013 5.67181 22.3169 12.2756 22.3169H19.2234ZM15.7839 18.9419C10.8998 18.9419 6.97882 14.9341 6.97882 9.94189C6.97882 5.02002 10.8998 0.941895 15.7839 0.941895C20.5992 0.941895 24.589 5.02002 24.589 9.94189C24.589 14.9341 20.5992 18.9419 15.7839 18.9419ZM43.8501 10.4341C44.538 11.0669 44.538 12.1216 43.9189 12.8247L36.7648 20.6997C36.4896 21.0513 36.0081 21.1919 35.5954 21.1919C35.1138 21.1919 34.7011 21.0513 34.4259 20.6997L30.5737 16.7622C29.8858 16.1294 29.8858 15.0747 30.5737 14.4419C31.1928 13.7388 32.2247 13.7388 32.8438 14.4419L35.5266 17.1138L41.5113 10.5044C42.1304 9.80127 43.1622 9.80127 43.8501 10.4341Z"
        ></path>
    </symbol>
    <symbol id='instruction-stake' viewBox="0 0 67 55">

        <path
            d="M33.625 36.4419C20.8672 36.4419 10.625 30.7752 10.625 23.6919C10.625 16.6971 20.8672 10.9419 33.625 10.9419C46.293 10.9419 56.625 16.6971 56.625 23.6919C56.625 30.7752 46.293 36.4419 33.625 36.4419ZM18.3516 27.3221C19.4297 28.2961 20.8672 29.0929 22.3945 29.6242C25.3594 30.8638 29.3125 31.4836 33.625 31.4836C37.8477 31.4836 41.8008 30.8638 44.8555 29.6242C46.293 29.0929 47.7305 28.2961 48.8086 27.3221C49.8867 26.2596 50.875 24.8429 50.875 22.9836C50.875 21.2127 49.8867 19.7961 48.8086 18.7336C47.7305 17.7596 46.293 16.9627 44.8555 16.3429C41.8008 15.1919 37.8477 14.4836 33.625 14.4836C29.3125 14.4836 25.3594 15.1919 22.3945 16.3429C20.8672 16.9627 19.4297 17.7596 18.3516 18.7336C17.2734 19.7961 16.375 21.2127 16.375 22.9836C16.375 24.8429 17.2734 26.2596 18.3516 27.3221ZM19.25 22.9836C19.25 19.8846 25.6289 17.3169 33.625 17.3169C41.5312 17.3169 48 19.8846 48 22.9836C48 26.1711 41.5312 28.6502 33.625 28.6502C25.6289 28.6502 19.25 26.1711 19.25 22.9836ZM10.625 31.0409C11.793 32.369 13.2305 33.6086 14.9375 34.5825V40.2492C12.1523 38.3898 10.625 36.0877 10.625 33.6086V31.0409ZM17.8125 41.8429V36.1763C20.3281 37.3273 23.2031 38.2127 26.4375 38.744V44.4106C23.1133 43.8794 20.2383 42.994 17.8125 41.8429ZM29.3125 44.7648V39.0981C30.6602 39.2752 32.0977 39.3638 33.625 39.3638C35.0625 39.3638 36.5 39.2752 37.9375 39.0981V44.7648C36.5 44.9419 35.0625 44.9419 33.625 44.9419C32.0977 44.9419 30.6602 44.9419 29.3125 44.7648ZM40.8125 44.4106V38.744C43.957 38.2127 46.832 37.3273 49.4375 36.1763V41.9315C46.9219 42.994 44.0469 43.8794 40.8125 44.4106ZM52.3125 40.2492V34.5825C53.9297 33.6086 55.3672 32.369 56.625 31.0409V33.6086C56.625 36.0877 55.0078 38.3898 52.3125 40.2492Z"
        ></path>

    </symbol>
    <symbol id='instruction-gf' viewBox="0 0 49 49">

        <path fill-rule="evenodd" clip-rule="evenodd"
            d="M0.875 24.9419C0.875 11.7419 11.675 0.941895 24.875 0.941895C38.075 0.941895 48.875 11.7419 48.875 24.9419C48.875 38.1419 38.075 48.9419 24.875 48.9419C11.675 48.9419 0.875 38.1419 0.875 24.9419ZM13.2119 33.1396C14.2936 33.6745 15.5488 33.9419 16.9774 33.9419C18.4265 33.9419 19.6714 33.6745 20.7123 33.1396C21.7736 32.5842 22.6002 31.8128 23.192 30.8253C23.7839 29.8173 24.0798 28.6345 24.0798 27.2768V24.2322H16.4264V27.5648H20.215C20.1666 28.4757 19.8834 29.1923 19.3653 29.7145C18.8143 30.2905 18.0183 30.5785 16.9774 30.5785C15.9366 30.5785 15.1304 30.2905 14.5589 29.7145C13.9875 29.1385 13.7017 28.3259 13.7017 27.2768V22.5762C13.7017 21.527 13.9875 20.7248 14.5589 20.1693C15.1304 19.6139 15.9366 19.3362 16.9774 19.3362C18.0183 19.3362 18.8143 19.6139 19.3653 20.1693C19.9368 20.7248 20.2225 21.5373 20.2225 22.607H24.0798C24.0798 21.2288 23.7839 20.0459 23.192 19.0585C22.6002 18.071 21.7736 17.3099 20.7123 16.775C19.6714 16.2196 18.4265 15.9419 16.9774 15.9419C15.5488 15.9419 14.2936 16.2196 13.2119 16.775C12.1506 17.3099 11.3241 18.071 10.7322 19.0585C10.1607 20.0459 9.875 21.2288 9.875 22.607V27.2768C9.875 28.6345 10.1607 29.8173 10.7322 30.8253C11.3241 31.8128 12.1506 32.5842 13.2119 33.1396ZM39.875 16.2505H25.9763V33.6333H29.803V26.855H39.079V23.2756H29.7418V19.8299H39.875V16.2505Z"
        ></path>


    </symbol>

    <symbol id='rocket' viewBox="0 0 60 60">

        <path
            d="M19.1975 19.947H26.2274C32.3982 9.71455 42.0057 9.324 47.7859 10.4175C48.7232 10.5738 49.4262 11.2768 49.5825 12.2141C50.676 17.9943 50.2854 27.6018 40.053 33.7726V40.8025C40.053 42.7553 38.9594 44.6299 37.241 45.6453L30.3673 49.7071C29.7424 50.0976 29.0394 50.0976 28.4926 49.7071C27.8678 49.3946 27.5553 48.7698 27.5553 48.0668V39.1622C27.5553 37.3656 26.8523 35.6472 25.6026 34.3974C24.3528 33.1477 22.6344 32.4447 20.8378 32.4447H11.9332C11.2302 32.4447 10.6054 32.1322 10.2929 31.5074C9.90236 30.9606 9.90236 30.2576 10.2929 29.6327L14.3547 22.759C15.3701 21.0406 17.2447 19.947 19.1975 19.947ZM43.1774 19.947C43.1774 18.2286 41.7714 16.8226 40.053 16.8226C38.2564 16.8226 36.9286 18.2286 36.9286 19.947C36.9286 21.7436 38.2564 23.0714 40.053 23.0714C41.7714 23.0714 43.1774 21.7436 43.1774 19.947ZM23.0249 46.6608C19.1975 50.5663 10.0586 49.9414 10.0586 49.9414C10.0586 49.9414 9.4337 40.8025 13.3392 36.9751C15.995 34.3193 20.3692 34.3193 23.0249 36.9751C25.6807 39.6308 25.6807 44.005 23.0249 46.6608ZM19.3537 43.8488C20.291 42.9896 20.291 41.5055 19.3537 40.6463C18.4945 39.709 17.0104 39.709 16.1512 40.6463C14.8233 41.896 15.0576 44.9424 15.0576 44.9424C15.0576 44.9424 18.104 45.1767 19.3537 43.8488Z"
            fill="#fff"></path>


    </symbol>
    <symbol id='nft' viewBox="0 0 40 41">

        <path
            d="M23.1626 46.3863C21.2027 47.5361 18.7973 47.5361 16.7483 46.3863L3.20713 38.6034C1.15813 37.4537 0 35.3311 0 33.0316V17.4657C0 15.1662 1.15813 13.0436 3.20713 11.8939L16.7483 4.11097C18.7973 2.96122 21.2027 2.96122 23.1626 4.11097L36.7929 11.8939C38.8419 13.0436 40 15.1662 40 17.4657V33.0316C40 35.3311 38.8419 37.4537 36.7929 38.6034L23.1626 46.3863ZM8.46325 17.6426C8.28508 17.0235 7.57238 16.6698 6.85969 16.7582C6.23608 16.9351 5.70156 17.4657 5.70156 18.1733V32.324C5.70156 33.12 6.41425 33.7391 7.12695 33.7391C7.92873 33.7391 8.55234 33.12 8.55234 32.324V25.514L11.5813 32.8547C11.7595 33.4738 12.4722 33.8276 13.0958 33.7391C13.8085 33.5622 14.2539 33.0316 14.2539 32.324V18.1733C14.2539 17.3773 13.6303 16.7582 12.8285 16.7582C12.1158 16.7582 11.4031 17.3773 11.4031 18.1733V24.9833L8.46325 17.6426ZM17.1047 18.1733V25.2487V32.324C17.1047 33.12 17.8174 33.7391 18.5301 33.7391C19.3318 33.7391 19.9555 33.12 19.9555 32.324V26.6637H22.8062C23.608 26.6637 24.2316 26.0446 24.2316 25.2487C24.2316 24.4527 23.608 23.8336 22.8062 23.8336H19.9555V19.5884H22.8062C23.608 19.5884 24.2316 18.9693 24.2316 18.1733C24.2316 17.3773 23.608 16.7582 22.8062 16.7582H18.5301C17.8174 16.7582 17.1047 17.3773 17.1047 18.1733ZM27.0824 16.7582C26.3697 16.7582 25.657 17.3773 25.657 18.1733C25.657 18.9693 26.3697 19.5884 27.0824 19.5884H28.5078V32.324C28.5078 33.12 29.2205 33.7391 29.9332 33.7391C30.735 33.7391 31.3586 33.12 31.3586 32.324V19.5884H32.784C33.5857 19.5884 34.2094 18.9693 34.2094 18.1733C34.2094 17.3773 33.5857 16.7582 32.784 16.7582H27.0824Z"
        ></path>

    </symbol>
    <symbol id='dmission' viewBox="0 0 40 50">
        <path
            d="M8.10065 36.8848H1.34101C0.436731 36.8848 -0.209713 36.0723 0.063064 35.2737L6.69192 15.8206C6.86754 15.3055 7.3832 14.9529 7.96986 14.9529H14.7332C15.6375 14.9529 16.284 15.7653 16.0112 16.5639L9.38232 36.0205C9.2067 36.5356 8.69104 36.8882 8.10438 36.8882L8.10065 36.8848Z"
        ></path>
        <path
            d="M16.8558 36.8848H13.3022C12.3979 36.8848 11.7515 36.0723 12.0242 35.2737L18.6531 15.8206C18.8287 15.302 19.3481 14.9529 19.931 14.9529H24.1161C26.2983 14.9529 27.8528 16.9131 27.1951 18.8387L22.3076 33.1857C21.5565 35.3878 19.3519 36.8848 16.8558 36.8848Z"
        ></path>
        <path
            d="M32.0265 36.8848H25.2631C24.3588 36.8848 23.7124 36.0723 23.9852 35.2737L30.6178 15.8206C30.7934 15.3055 31.3091 14.9529 31.8957 14.9529H38.6591C39.5634 14.9529 40.2098 15.7653 39.937 16.5639L33.3082 36.0205C33.1326 36.5356 32.6169 36.8882 32.0302 36.8882L32.0265 36.8848Z"
        ></path>
    </symbol>
    <symbol id='hub' viewBox="0 0 60 64">
        <path
            d="M30.9978 28.2188L16.8547 18.3359C16.1605 18.7656 15.3796 19.0234 14.5119 19.0234C11.9957 19.0234 10 17.0469 10 14.5547C10 12.0625 11.9957 10 14.5119 10C17.0282 10 19.0239 12.0625 19.0239 14.5547C19.0239 14.8984 19.0239 15.3281 18.8503 15.6719C23.3623 19.1094 31.1714 24.6094 33.5141 26.4141C34.6421 25.8125 35.9436 25.4688 37.2451 25.2969V19.9688C35.6833 19.3672 34.8156 17.9922 34.8156 16.3594C34.8156 14.0391 36.551 12.2344 38.8069 12.2344C41.1497 12.2344 42.885 14.0391 42.885 16.3594C42.885 17.9922 42.0174 19.3672 40.4555 19.9688V25.2969C45.9219 26.1562 50 30.7969 50 36.3828C50 42.5703 44.9675 47.5547 38.7202 47.5547C36.2039 47.5547 33.7744 46.6953 31.8655 45.2344L27.5271 49.5312C27.6139 49.875 27.7007 50.2188 27.7007 50.5625C27.7007 51.5078 27.3536 52.3672 26.6594 53.0547C26.0521 53.7422 25.0976 54 24.2299 54C23.2755 54 22.4078 53.6562 21.7137 53.0547C21.1063 52.3672 20.6725 51.5078 20.6725 50.5625C20.6725 49.7031 21.1063 48.7578 21.7137 48.1562C22.4078 47.4688 23.2755 47.125 24.2299 47.125C24.6638 47.125 25.0108 47.2109 25.4447 47.2969L29.6963 43.0859C28.308 41.1953 27.4403 38.875 27.4403 36.3828C27.4403 33.1172 28.8286 30.2812 30.9978 28.2188ZM38.7202 42.3125C42.1041 42.3125 44.7072 39.6484 44.7072 36.3828C44.7072 33.1172 42.1041 30.4531 38.7202 30.4531C35.423 30.4531 32.7332 33.1172 32.7332 36.3828C32.7332 39.6484 35.423 42.3125 38.7202 42.3125Z"
        ></path>
    </symbol>
    <symbol id='rating' viewBox="0 0 50 41">
        <path
            d="M27.6563 5.19531L31.7188 5.82031C32.0833 5.8724 32.3177 6.08073 32.4219 6.44531C32.5781 6.75781 32.526 7.04427 32.2656 7.30469L29.2969 10.1953L30 14.2578C30 14.6224 29.8698 14.9089 29.6094 15.1172C29.349 15.3255 29.0365 15.3516 28.6719 15.1953L25 13.3203L21.3281 15.2734C20.9635 15.4297 20.651 15.4036 20.3906 15.1953C20.1302 14.987 20.026 14.7005 20.0781 14.3359L20.7813 10.1953L17.8125 7.30469C17.5521 7.04427 17.474 6.73177 17.5781 6.36719C17.6823 6.05469 17.9167 5.8724 18.2813 5.82031L22.3438 5.19531L24.2188 1.44531C24.4271 1.13281 24.6875 0.976562 25 0.976562C25.3646 0.976562 25.625 1.13281 25.7813 1.44531L27.6563 5.19531ZM20 20.9766H30C30.7292 20.9766 31.3281 21.2109 31.7969 21.6797C32.2656 22.1484 32.5 22.7474 32.5 23.4766V38.4766C32.5 39.2057 32.2656 39.8047 31.7969 40.2734C31.3281 40.7422 30.7292 40.9766 30 40.9766H20C19.2708 40.9766 18.6719 40.7422 18.2031 40.2734C17.7344 39.8047 17.5 39.2057 17.5 38.4766V23.4766C17.5 22.7474 17.7344 22.1484 18.2031 21.6797C18.6719 21.2109 19.2708 20.9766 20 20.9766ZM2.5 25.9766H12.5C13.2292 25.9766 13.8281 26.2109 14.2969 26.6797C14.7656 27.1484 15 27.7474 15 28.4766V38.4766C15 39.2057 14.7656 39.8047 14.2969 40.2734C13.8281 40.7422 13.2292 40.9766 12.5 40.9766H2.5C1.77083 40.9766 1.17188 40.7422 0.703125 40.2734C0.234375 39.8047 0 39.2057 0 38.4766V28.4766C0 27.7474 0.234375 27.1484 0.703125 26.6797C1.17188 26.2109 1.77083 25.9766 2.5 25.9766ZM35 33.4766C35 32.7474 35.2344 32.1484 35.7031 31.6797C36.1719 31.2109 36.7708 30.9766 37.5 30.9766H47.5C48.2292 30.9766 48.8281 31.2109 49.2969 31.6797C49.7656 32.1484 50 32.7474 50 33.4766V38.4766C50 39.2057 49.7656 39.8047 49.2969 40.2734C48.8281 40.7422 48.2292 40.9766 47.5 40.9766H37.5C36.7708 40.9766 36.1719 40.7422 35.7031 40.2734C35.2344 39.8047 35 39.2057 35 38.4766V33.4766Z"
        ></path>
    </symbol>
    <symbol id='navi' viewBox="0 0 40 52">
        <path
            d="M20.0002 51.2315C8.5973 51.2315 0.000244141 47.8619 0.000244141 43.3992C0.000244141 38.9365 8.5973 35.5669 20.0002 35.5669C31.403 35.5669 40.0001 38.9365 40.0001 43.3992C40.0001 47.8619 31.403 51.2315 20.0002 51.2315ZM20.0002 37.4356C9.36876 37.4356 1.96061 40.5786 1.96061 43.3992C1.96061 46.2198 9.36876 49.3628 20.0002 49.3628C30.6315 49.3628 38.0397 46.2198 38.0397 43.3992C38.0397 40.5786 30.6315 37.4356 20.0002 37.4356Z"
            fill="currentColor"></path>
        <path
            d="M20.0002 51.2315C8.5973 51.2315 0.000244141 47.8619 0.000244141 43.3992C0.000244141 38.9365 8.5973 35.5669 20.0002 35.5669C31.403 35.5669 40.0001 38.9365 40.0001 43.3992C40.0001 47.8619 31.403 51.2315 20.0002 51.2315ZM20.0002 37.4356C9.36876 37.4356 1.96061 40.5786 1.96061 43.3992C1.96061 46.2198 9.36876 49.3628 20.0002 49.3628C30.6315 49.3628 38.0397 46.2198 38.0397 43.3992C38.0397 40.5786 30.6315 37.4356 20.0002 37.4356Z"
            fill="currentColor"></path>
        <path
            d="M19.9998 51.2318C12.206 51.2318 3.92065 48.9854 3.92065 44.8199C3.92065 42.9411 5.71721 41.2538 8.97743 40.0752C11.9365 39.0023 15.8519 38.408 20.0051 38.408C27.799 38.408 36.0843 40.6544 36.0843 44.8199C36.0843 46.6986 34.2878 48.386 31.0275 49.5646C28.0685 50.6374 24.1531 51.2318 19.9998 51.2318ZM19.9998 40.2766C16.0844 40.2766 12.4173 40.8256 9.66964 41.8179C7.29713 42.6792 5.88102 43.7974 5.88102 44.8148C5.88102 45.8323 7.29713 46.9505 9.66964 47.8118C12.412 48.8091 16.0791 49.353 19.9998 49.353C23.9206 49.353 27.5824 48.804 30.33 47.8118C32.7026 46.9505 34.1187 45.8323 34.1187 44.8148C34.1187 43.7974 32.7026 42.6792 30.33 41.8179C27.5877 40.8206 23.9206 40.2766 19.9998 40.2766Z"
            fill="currentColor"></path>
        <path
            d="M19.9998 51.2318C12.206 51.2318 3.92065 48.9854 3.92065 44.8199C3.92065 42.9411 5.71721 41.2538 8.97743 40.0752C11.9365 39.0023 15.8519 38.408 20.0051 38.408C27.799 38.408 36.0843 40.6544 36.0843 44.8199C36.0843 46.6986 34.2878 48.386 31.0275 49.5646C28.0685 50.6374 24.1531 51.2318 19.9998 51.2318ZM19.9998 40.2766C16.0844 40.2766 12.4173 40.8256 9.66964 41.8179C7.29713 42.6792 5.88102 43.7974 5.88102 44.8148C5.88102 45.8323 7.29713 46.9505 9.66964 47.8118C12.412 48.8091 16.0791 49.353 19.9998 49.353C23.9206 49.353 27.5824 48.804 30.33 47.8118C32.7026 46.9505 34.1187 45.8323 34.1187 44.8148C34.1187 43.7974 32.7026 42.6792 30.33 41.8179C27.5877 40.8206 23.9206 40.2766 19.9998 40.2766Z"
            fill="currentColor"></path>
        <path
            d="M19.9999 51.2319C17.1412 51.2319 14.4358 50.8239 12.3909 50.0784C10.0448 49.2272 8.75024 47.9831 8.75024 46.5728C8.75024 45.1625 10.0448 43.9184 12.3909 43.0671C14.4411 42.3217 17.1412 41.9137 19.9999 41.9137C22.8585 41.9137 25.5639 42.3217 27.6088 43.0671C29.9549 43.9184 31.2495 45.1625 31.2495 46.5728C31.2495 47.9831 29.9549 49.2272 27.6088 50.0784C25.5586 50.8239 22.8585 51.2319 19.9999 51.2319ZM19.9999 43.7824C13.4741 43.7824 10.7106 45.777 10.7106 46.5728C10.7106 47.3686 13.4741 49.3632 19.9999 49.3632C26.5256 49.3632 29.2891 47.3686 29.2891 46.5728C29.2891 45.777 26.5256 43.7824 19.9999 43.7824Z"
            fill="currentColor"></path>
        <path
            d="M19.9999 51.2319C17.1412 51.2319 14.4358 50.8239 12.3909 50.0784C10.0448 49.2272 8.75024 47.9831 8.75024 46.5728C8.75024 45.1625 10.0448 43.9184 12.3909 43.0671C14.4411 42.3217 17.1412 41.9137 19.9999 41.9137C22.8585 41.9137 25.5639 42.3217 27.6088 43.0671C29.9549 43.9184 31.2495 45.1625 31.2495 46.5728C31.2495 47.9831 29.9549 49.2272 27.6088 50.0784C25.5586 50.8239 22.8585 51.2319 19.9999 51.2319ZM19.9999 43.7824C13.4741 43.7824 10.7106 45.777 10.7106 46.5728C10.7106 47.3686 13.4741 49.3632 19.9999 49.3632C26.5256 49.3632 29.2891 47.3686 29.2891 46.5728C29.2891 45.777 26.5256 43.7824 19.9999 43.7824Z"
            fill="currentColor"></path>
        <path
            d="M38.0871 28.6918L30.5521 16.4976C30.2245 15.9687 29.4741 15.8579 28.9933 16.2609L19.1756 24.5566C18.7476 24.9192 18.7159 25.5438 19.1017 25.9467L21.5746 28.5256C21.9497 28.9134 22.5785 28.9487 22.996 28.6062L25.6802 26.4101C26.103 26.0676 26.7318 26.1029 27.1016 26.4957L27.741 27.1656C28.0897 27.5333 28.095 28.0874 27.7568 28.4601C26.4781 29.8604 23.4821 33.1444 22.1505 34.6C21.7859 34.998 21.1571 35.0483 20.7291 34.7109L13.247 28.4601C12.1215 27.5787 11.9313 26.0072 12.8137 24.8991L26.531 11.3147C26.7846 10.9973 26.811 10.5692 26.5997 10.2267L20.56 0.364537C20.4808 0.228542 20.3593 0.112694 20.206 0.0623256C20.0739 0.0220308 19.926 0.0220308 19.7939 0.0623256C19.6406 0.107657 19.5191 0.228542 19.4398 0.364537L1.91812 28.6918C1.65392 28.9437 1.65392 29.3516 1.91812 29.6035L18.8005 45.6962C19.461 46.3258 20.5442 46.3258 21.2047 45.6962L38.0871 29.6035C38.3513 29.3516 38.3513 28.9437 38.0871 28.6918Z"
            fill="currentColor"></path>
        <path
            d="M38.0871 28.6918L30.5521 16.4976C30.2245 15.9687 29.4741 15.8579 28.9933 16.2609L19.1756 24.5566C18.7476 24.9192 18.7159 25.5438 19.1017 25.9467L21.5746 28.5256C21.9497 28.9134 22.5785 28.9487 22.996 28.6062L25.6802 26.4101C26.103 26.0676 26.7318 26.1029 27.1016 26.4957L27.741 27.1656C28.0897 27.5333 28.095 28.0874 27.7568 28.4601C26.4781 29.8604 23.4821 33.1444 22.1505 34.6C21.7859 34.998 21.1571 35.0483 20.7291 34.7109L13.247 28.4601C12.1215 27.5787 11.9313 26.0072 12.8137 24.8991L26.531 11.3147C26.7846 10.9973 26.811 10.5692 26.5997 10.2267L20.56 0.364537C20.4808 0.228542 20.3593 0.112694 20.206 0.0623256C20.0739 0.0220308 19.926 0.0220308 19.7939 0.0623256C19.6406 0.107657 19.5191 0.228542 19.4398 0.364537L1.91812 28.6918C1.65392 28.9437 1.65392 29.3516 1.91812 29.6035L18.8005 45.6962C19.461 46.3258 20.5442 46.3258 21.2047 45.6962L38.0871 29.6035C38.3513 29.3516 38.3513 28.9437 38.0871 28.6918Z"
            fill="currentColor"></path>
    </symbol>
    <symbol id='social' viewBox="0 0 40 40">
        <path
            d="M31.316 11.9297C31.1725 11.9102 31.029 11.9102 30.8854 11.9297C27.7072 11.8324 25.1851 9.361 25.1851 6.32533C25.1851 3.23127 27.8302 0.701538 31.111 0.701538C34.3713 0.701538 37.0369 3.21181 37.0369 6.32533C37.0164 9.361 34.4943 11.8324 31.316 11.9297Z"
            fill="currentColor"></path>
        <path
            d="M37.5645 24.9764C35.2455 26.3887 31.9947 26.9159 28.9924 26.5581C29.7793 25.0141 30.1934 23.3006 30.2141 21.4929C30.2141 19.6099 29.7585 17.821 28.8889 16.2581C31.9533 15.8815 35.2041 16.4088 37.5438 17.821C40.8153 19.7793 40.8153 22.9993 37.5645 24.9764Z"
            fill="currentColor"></path>
        <path
            d="M8.67339 11.9297C8.81717 11.9102 8.96095 11.9102 9.10474 11.9297C12.2885 11.8324 14.815 9.361 14.815 6.32533C14.815 3.21181 12.1653 0.701538 8.87879 0.701538C5.61286 0.701538 2.96313 3.21181 2.96313 6.32533C2.96313 9.361 5.48961 11.8324 8.67339 11.9297Z"
            fill="currentColor"></path>
        <path
            d="M9.11033 21.4834C9.11033 23.3066 9.53034 25.0358 10.2904 26.5958C7.47027 26.8777 4.53016 26.3139 2.37009 24.9794C-0.790028 23.0058 -0.790028 19.7918 2.37009 17.8183C4.51016 16.465 7.53027 15.9199 10.3704 16.2207C9.55034 17.7995 9.11033 19.5851 9.11033 21.4834Z"
            fill="currentColor"></path>
        <path
            d="M20.2418 27.3683C20.087 27.3489 19.9128 27.3489 19.7387 27.3683C16.178 27.2519 13.3333 24.3212 13.3333 20.7113C13.3526 17.0238 16.3134 14.0349 20.0096 14.0349C23.6864 14.0349 26.6666 17.0238 26.6666 20.7113C26.6472 24.3212 23.8219 27.2519 20.2418 27.3683Z"
            fill="currentColor"></path>
        <path
            d="M13.4728 31.1565C10.3239 33.1271 10.3239 36.366 13.4728 38.3171C17.0596 40.5609 22.9403 40.5609 26.5272 38.3171C29.6761 36.3465 29.6761 33.1076 26.5272 31.1565C22.9612 28.9127 17.0805 28.9127 13.4728 31.1565Z"
            fill="currentColor"></path>
    </symbol>
    <symbol id='logo-footer'>
        <path xmlns="http://www.w3.org/2000/svg" fillRule="evenodd" clipRule="evenodd"
            d="M154.167 26.1069H161.34V16.6135H182.225V10.4955H161.34V7.75297H182.278V1.00208H158.122C157.63 1.00208 157.156 1.12515 156.698 1.37127C156.241 1.58224 155.819 1.8811 155.433 2.26787C155.046 2.65464 154.729 3.09415 154.483 3.58641C154.272 4.07866 154.167 4.57091 154.167 5.06316V26.1069ZM161.34 27.109H154.167C153.499 27.109 153.165 26.775 153.165 26.1069V5.06316C153.165 4.43027 153.305 3.81495 153.587 3.21722C153.903 2.61948 154.29 2.09207 154.747 1.63498C155.239 1.14273 155.767 0.755958 156.329 0.474672C156.927 0.158224 157.525 0 158.122 0H182.278C182.946 0 183.28 0.334028 183.28 1.00208V7.75297C183.28 8.42102 182.946 8.75505 182.278 8.75505H162.342V9.49343H182.225C182.893 9.49343 183.227 9.82746 183.227 10.4955V16.6135C183.227 17.2816 182.893 17.6156 182.225 17.6156H162.342V26.1069C162.342 26.775 162.008 27.109 161.34 27.109ZM12.6579 17.3519H24.5774V19.1451H8.4386V8.22764H32.4886C32.8051 8.22764 32.9633 8.06942 32.9633 7.75297V0.791119C32.9633 0.474671 32.8051 0.316447 32.4886 0.316447H4.64123C4.07866 0.316447 3.51608 0.45709 2.95351 0.738378C2.4261 0.984503 1.93385 1.33611 1.47676 1.7932C1.05483 2.21513 0.703217 2.70738 0.42193 3.26996C0.140643 3.83253 0 4.39511 0 4.95768V22.4678C0 23.0655 0.140643 23.6457 0.42193 24.2082C0.703217 24.7357 1.05483 25.2279 1.47676 25.685C1.93385 26.1069 2.4261 26.4585 2.95351 26.7398C3.51608 26.986 4.07866 27.109 4.64123 27.109H28.3748C28.9374 27.109 29.4824 26.986 30.0098 26.7398C30.5724 26.4585 31.0646 26.1069 31.4865 25.685C31.9436 25.2279 32.2952 24.7357 32.5414 24.2082C32.8227 23.6457 32.9633 23.0655 32.9633 22.4678V14.7148C32.9633 14.1522 32.8227 13.5897 32.5414 13.0271C32.2952 12.4645 31.9436 11.9547 31.4865 11.4976C31.0646 11.0405 30.5724 10.6889 30.0098 10.4428C29.4824 10.1615 28.9374 10.0208 28.3748 10.0208H12.6579C12.3415 10.0208 12.1832 10.1966 12.1832 10.5483V16.8772C12.1832 17.1937 12.3415 17.3519 12.6579 17.3519ZM59.3409 9.01876C59.7629 9.01876 59.9738 9.1594 59.9738 9.44069V15.6114H53.223L57.5477 10.3373L57.495 10.39C57.7763 10.0736 58.0751 9.77472 58.3916 9.49343C58.7432 9.17698 59.0596 9.01876 59.3409 9.01876ZM68.3597 26.5816V6.6454C68.3597 5.41477 68.1663 4.39511 67.7795 3.58641C67.4279 2.77771 66.9181 2.12723 66.25 1.63498C65.6171 1.14273 64.826 0.808699 63.8767 0.632894C62.9625 0.421929 61.9428 0.316447 60.8177 0.316447C59.3409 0.316447 57.9169 0.45709 56.5457 0.738378C55.1744 1.01966 54.0492 1.51192 53.1702 2.21513L35.0799 26.2652C34.9745 26.441 34.9569 26.6343 35.0272 26.8453C35.0975 27.0211 35.2558 27.109 35.5019 27.109H44.1514C44.3976 27.109 44.5382 27.0387 44.5734 26.8981L47.7906 22.837H59.9738V26.5816C59.9738 26.9332 60.1496 27.109 60.5012 27.109H67.885C68.2015 27.109 68.3597 26.9332 68.3597 26.5816ZM80.6356 27.109H73.2519C72.9003 27.109 72.7244 26.9332 72.7244 26.5816V4.06108C72.7244 3.60399 72.8475 3.1469 73.0936 2.6898C73.3398 2.23271 73.6738 1.82836 74.0957 1.47675C74.5528 1.12515 75.0626 0.843859 75.6252 0.632894C76.1878 0.421929 76.7855 0.316447 77.4184 0.316447H79.4753C80.495 0.42193 81.4795 0.791119 82.4288 1.42401C83.3782 2.02175 84.1341 2.77771 84.6967 3.69189L92.3969 16.4553L100.15 3.69189C100.712 2.77771 101.451 2.02175 102.365 1.42401C103.314 0.791119 104.299 0.42193 105.319 0.316447H107.375C108.008 0.316447 108.606 0.421929 109.169 0.632894C109.766 0.843859 110.276 1.12515 110.698 1.47675C111.155 1.82836 111.507 2.23271 111.753 2.6898C111.999 3.1469 112.122 3.60399 112.122 4.06108V26.5816C112.122 26.9332 111.946 27.109 111.595 27.109H104.211C103.859 27.109 103.684 26.9332 103.684 26.5816V14.1347C102.207 16.5959 100.836 18.7583 99.5698 20.6218C98.3391 22.4502 97.3898 23.8215 96.7217 24.7357C95.9482 25.7553 95.2274 26.4058 94.5593 26.6871C93.8913 26.9684 93.3639 27.109 92.9771 27.109H91.8695C91.2366 27.109 90.6389 26.9684 90.0763 26.6871C89.5489 26.4058 88.8984 25.7553 88.1249 24.7357C87.4217 23.8215 86.4372 22.4502 85.1714 20.6218C83.9408 18.7583 82.5871 16.5959 81.1103 14.1347V26.5816C81.1103 26.9332 80.9521 27.109 80.6356 27.109ZM127.234 10.0208H140.788V8.22764H124.966V19.1451H148.699C149.016 19.1451 149.174 19.3209 149.174 19.6725V26.5816C149.174 26.9332 149.016 27.109 148.699 27.109H121.169C120.606 27.109 120.043 26.986 119.481 26.7398C118.953 26.4585 118.461 26.1069 118.004 25.685C117.582 25.2279 117.231 24.7357 116.949 24.2082C116.668 23.6457 116.527 23.0655 116.527 22.4678V4.95768C116.527 4.39511 116.668 3.83253 116.949 3.26996C117.231 2.70738 117.582 2.21513 118.004 1.7932C118.461 1.33611 118.953 0.984503 119.481 0.738378C120.043 0.45709 120.606 0.316447 121.169 0.316447H144.586C145.148 0.316447 145.693 0.45709 146.221 0.738378C146.783 0.984503 147.275 1.33611 147.697 1.7932C148.154 2.21513 148.506 2.70738 148.752 3.26996C149.034 3.83253 149.174 4.39511 149.174 4.95768V12.7107C149.174 13.3084 149.034 13.8885 148.752 14.4511C148.506 14.9785 148.154 15.4708 147.697 15.9279C147.275 16.3498 146.783 16.7014 146.221 16.9827C145.693 17.2288 145.148 17.3519 144.586 17.3519H127.234C126.917 17.3519 126.759 17.1937 126.759 16.8772V10.5483C126.759 10.1966 126.917 10.0208 127.234 10.0208ZM195.143 1.58224V26.1069H188.023V1.58224H195.143ZM196.092 26.1069V1.58224C196.092 0.914181 195.776 0.580153 195.143 0.580153H188.023C187.39 0.580153 187.074 0.914181 187.074 1.58224V26.1069C187.074 26.775 187.39 27.109 188.023 27.109H195.143C195.776 27.109 196.092 26.775 196.092 26.1069ZM221.998 13.4495C221.717 13.3001 221.437 13.2254 221.157 13.2254H208.663C208.383 13.2254 208.094 13.3001 207.795 13.4495C207.515 13.5802 207.253 13.767 207.01 14.0098C206.786 14.2339 206.6 14.4953 206.45 14.7941C206.319 15.0929 206.254 15.3918 206.254 15.6906V24.8509C206.254 25.1684 206.319 25.4765 206.45 25.7753C206.6 26.0555 206.786 26.3169 207.01 26.5597C207.253 26.7838 207.515 26.9706 207.795 27.12C208.094 27.2507 208.383 27.316 208.663 27.316H221.157C221.437 27.316 221.717 27.2507 221.998 27.12C222.296 26.9706 222.558 26.7838 222.782 26.5597C223.025 26.3169 223.211 26.0555 223.342 25.7753C223.492 25.4765 223.566 25.1684 223.566 24.8509V15.6906C223.566 15.3918 223.492 15.0929 223.342 14.7941C223.211 14.4953 223.025 14.2339 222.782 14.0098C222.558 13.767 222.296 13.5802 221.998 13.4495ZM210.652 17.3994H219.14V23.1421H210.652V17.3994ZM204.181 23.3662V27.0359C204.181 27.2227 204.097 27.316 203.929 27.316H200.007C199.82 27.316 199.727 27.2227 199.727 27.0359V23.3662C199.727 23.1794 199.82 23.0861 200.007 23.0861H203.929C204.097 23.0861 204.181 23.1794 204.181 23.3662ZM226.298 18.3518H237.896V17.3994H226.298C226.13 17.3994 226.046 17.306 226.046 17.1192V13.5055C226.046 13.3188 226.13 13.2254 226.298 13.2254H239.885C240.165 13.2254 240.445 13.3001 240.725 13.4495C241.024 13.5802 241.285 13.767 241.509 14.0098C241.752 14.2339 241.939 14.4953 242.07 14.7941C242.219 15.0929 242.294 15.3918 242.294 15.6906V19.7525C242.294 20.0513 242.219 20.3501 242.07 20.6489C241.939 20.929 241.752 21.1905 241.509 21.4333C241.285 21.6574 241.024 21.8441 240.725 21.9935C240.445 22.1243 240.165 22.1896 239.885 22.1896H239.324L242.714 26.8959C242.789 26.9892 242.798 27.0826 242.742 27.176C242.705 27.2694 242.621 27.316 242.49 27.316H238.092C237.98 27.316 237.914 27.2787 237.896 27.204L234.002 22.1896H230.444V27.0359C230.444 27.2227 230.36 27.316 230.192 27.316H226.298C226.13 27.316 226.046 27.2227 226.046 27.0359V18.6039C226.046 18.4359 226.13 18.3518 226.298 18.3518ZM251.383 22.1896H257.574V23.1421H249.142V17.3994H261.748C261.916 17.3994 262 17.306 262 17.1192V13.5055C262 13.3188 261.916 13.2254 261.748 13.2254H247.153C246.873 13.2254 246.583 13.3001 246.285 13.4495C246.004 13.5802 245.743 13.767 245.5 14.0098C245.276 14.2339 245.089 14.4953 244.94 14.7941C244.809 15.0929 244.744 15.3918 244.744 15.6906V24.8509C244.744 25.1684 244.809 25.4765 244.94 25.7753C245.089 26.0555 245.276 26.3169 245.5 26.5597C245.743 26.7838 246.004 26.9706 246.285 27.12C246.583 27.2507 246.873 27.316 247.153 27.316H259.591C259.871 27.316 260.151 27.2507 260.431 27.12C260.73 26.9706 260.991 26.7838 261.216 26.5597C261.458 26.3169 261.645 26.0555 261.776 25.7753C261.925 25.4765 262 25.1684 262 24.8509V20.789C262 20.4902 261.925 20.2007 261.776 19.9206C261.645 19.6217 261.458 19.3603 261.216 19.1362C260.991 18.8934 260.73 18.7067 260.431 18.5759C260.151 18.4265 259.871 18.3518 259.591 18.3518H251.383C251.215 18.3518 251.131 18.4359 251.131 18.6039V21.9375C251.131 22.1056 251.215 22.1896 251.383 22.1896Z"
            fill='#7FF252'
        />
        <path xmlns="http://www.w3.org/2000/svg"
            d="M1.69815 56.6796H3.37997L7.33452 66.3386H7.47088L11.4254 56.6796H13.1072V68.3159H11.7891V59.475H11.6754L8.03906 68.3159H6.76634L3.12997 59.475H3.01634V68.3159H1.69815V56.6796ZM18.3189 68.5205C17.7659 68.5205 17.264 68.4163 16.8132 68.208C16.3625 67.9958 16.0045 67.6909 15.7393 67.2932C15.4742 66.8917 15.3416 66.4068 15.3416 65.8386C15.3416 65.3386 15.4401 64.9333 15.6371 64.6227C15.834 64.3083 16.0973 64.0621 16.4268 63.8841C16.7564 63.7061 17.12 63.5735 17.5178 63.4864C17.9193 63.3955 18.3227 63.3235 18.728 63.2705C19.2583 63.2023 19.6882 63.1511 20.0178 63.1171C20.3511 63.0792 20.5935 63.0167 20.745 62.9296C20.9003 62.8424 20.978 62.6909 20.978 62.475V62.4296C20.978 61.8689 20.8246 61.4333 20.5178 61.1227C20.2147 60.8121 19.7545 60.6568 19.1371 60.6568C18.4969 60.6568 17.995 60.797 17.6314 61.0773C17.2678 61.3576 17.0121 61.6568 16.8643 61.975L15.5916 61.5205C15.8189 60.9902 16.1219 60.5773 16.5007 60.2818C16.8833 59.9826 17.3 59.7743 17.7507 59.6568C18.2053 59.5356 18.6522 59.475 19.0916 59.475C19.3719 59.475 19.6939 59.5091 20.0575 59.5773C20.425 59.6417 20.7791 59.7761 21.12 59.9807C21.4647 60.1852 21.7507 60.4939 21.978 60.9068C22.2053 61.3197 22.3189 61.8727 22.3189 62.5659V68.3159H20.978V67.1341H20.9098C20.8189 67.3235 20.6674 67.5261 20.4553 67.7421C20.2431 67.958 19.9609 68.1417 19.6087 68.2932C19.2564 68.4447 18.8265 68.5205 18.3189 68.5205ZM18.5234 67.3159C19.0537 67.3159 19.5007 67.2118 19.8643 67.0034C20.2318 66.7951 20.5083 66.5261 20.6939 66.1966C20.8833 65.8671 20.978 65.5205 20.978 65.1568V63.9296C20.9212 63.9977 20.7962 64.0602 20.603 64.1171C20.4136 64.1701 20.1939 64.2174 19.9439 64.2591C19.6977 64.297 19.4571 64.3311 19.2223 64.3614C18.9912 64.3879 18.8037 64.4106 18.6598 64.4296C18.3113 64.475 17.9856 64.5489 17.6825 64.6511C17.3833 64.7496 17.1409 64.8993 16.9553 65.1C16.7734 65.297 16.6825 65.5659 16.6825 65.9068C16.6825 66.3727 16.8549 66.725 17.1996 66.9636C17.5481 67.1985 17.9893 67.3159 18.5234 67.3159ZM25.7663 59.5886L27.8572 63.1568L29.9482 59.5886H31.4936L28.6754 63.9523L31.4936 68.3159H29.9482L27.8572 64.9296L25.7663 68.3159H24.2209L26.9936 63.9523L24.2209 59.5886H25.7663ZM33.407 68.3159V59.5886H34.7479V68.3159H33.407ZM34.0888 58.1341C33.8274 58.1341 33.602 58.0451 33.4126 57.8671C33.227 57.689 33.1342 57.475 33.1342 57.225C33.1342 56.975 33.227 56.761 33.4126 56.583C33.602 56.4049 33.8274 56.3159 34.0888 56.3159C34.3501 56.3159 34.5736 56.4049 34.7592 56.583C34.9486 56.761 35.0433 56.975 35.0433 57.225C35.0433 57.475 34.9486 57.689 34.7592 57.8671C34.5736 58.0451 34.3501 58.1341 34.0888 58.1341ZM37.2038 68.3159V59.5886H38.4993V60.9523H38.6129C38.7947 60.4864 39.0883 60.1246 39.4936 59.8671C39.8989 59.6057 40.3857 59.475 40.9538 59.475C41.5296 59.475 42.0088 59.6057 42.3913 59.8671C42.7777 60.1246 43.0788 60.4864 43.2947 60.9523H43.3857C43.6091 60.5015 43.9444 60.1436 44.3913 59.8784C44.8383 59.6095 45.3743 59.475 45.9993 59.475C46.7796 59.475 47.4179 59.7193 47.9141 60.208C48.4103 60.6928 48.6584 61.4485 48.6584 62.475V68.3159H47.3175V62.475C47.3175 61.8311 47.1413 61.3708 46.7891 61.0943C46.4368 60.8178 46.022 60.6796 45.5447 60.6796C44.9311 60.6796 44.4557 60.8652 44.1186 61.2364C43.7815 61.6038 43.6129 62.0697 43.6129 62.6341V68.3159H42.2493V62.3386C42.2493 61.8424 42.0883 61.4428 41.7663 61.1398C41.4444 60.833 41.0296 60.6796 40.522 60.6796C40.1735 60.6796 39.8478 60.7724 39.5447 60.958C39.2455 61.1436 39.0031 61.4011 38.8175 61.7307C38.6357 62.0564 38.5447 62.4333 38.5447 62.8614V68.3159H37.2038ZM56.6101 64.7477V59.5886H57.951V68.3159H56.6101V66.8386H56.5192C56.3146 67.2818 55.9964 67.6587 55.5646 67.9693C55.1328 68.2761 54.5874 68.4296 53.9283 68.4296C53.3828 68.4296 52.898 68.3102 52.4737 68.0716C52.0495 67.8292 51.7161 67.4655 51.4737 66.9807C51.2313 66.4921 51.1101 65.8765 51.1101 65.1341V59.5886H52.451V65.0432C52.451 65.6796 52.629 66.1871 52.9851 66.5659C53.3449 66.9447 53.8033 67.1341 54.3601 67.1341C54.6934 67.1341 55.0324 67.0489 55.3771 66.8784C55.7256 66.708 56.0173 66.4466 56.2521 66.0943C56.4908 65.7421 56.6101 65.2932 56.6101 64.7477ZM60.407 68.3159V59.5886H61.7024V60.9523H61.8161C61.9979 60.4864 62.2914 60.1246 62.6967 59.8671C63.102 59.6057 63.5888 59.475 64.157 59.475C64.7327 59.475 65.2119 59.6057 65.5945 59.8671C65.9808 60.1246 66.282 60.4864 66.4979 60.9523H66.5888C66.8123 60.5015 67.1475 60.1436 67.5945 59.8784C68.0414 59.6095 68.5774 59.475 69.2024 59.475C69.9827 59.475 70.621 59.7193 71.1172 60.208C71.6134 60.6928 71.8615 61.4485 71.8615 62.475V68.3159H70.5206V62.475C70.5206 61.8311 70.3445 61.3708 69.9922 61.0943C69.6399 60.8178 69.2251 60.6796 68.7479 60.6796C68.1342 60.6796 67.6589 60.8652 67.3217 61.2364C66.9846 61.6038 66.8161 62.0697 66.8161 62.6341V68.3159H65.4524V62.3386C65.4524 61.8424 65.2914 61.4428 64.9695 61.1398C64.6475 60.833 64.2327 60.6796 63.7251 60.6796C63.3767 60.6796 63.0509 60.7724 62.7479 60.958C62.4486 61.1436 62.2062 61.4011 62.0206 61.7307C61.8388 62.0564 61.7479 62.4333 61.7479 62.8614V68.3159H60.407ZM82.4723 68.4977C81.6314 68.4977 80.906 68.3121 80.2962 67.9409C79.6901 67.5659 79.2223 67.0432 78.8928 66.3727C78.567 65.6985 78.4041 64.9144 78.4041 64.0205C78.4041 63.1265 78.567 62.3386 78.8928 61.6568C79.2223 60.9712 79.6806 60.4371 80.2678 60.0546C80.8587 59.6682 81.5481 59.475 82.3359 59.475C82.7905 59.475 83.2393 59.5508 83.6825 59.7023C84.1257 59.8538 84.5291 60.1 84.8928 60.4409C85.2564 60.778 85.5462 61.225 85.7621 61.7818C85.978 62.3386 86.0859 63.0243 86.0859 63.8386V64.4068H79.3587V63.2477H84.7223C84.7223 62.7553 84.6238 62.3159 84.4268 61.9296C84.2337 61.5432 83.9571 61.2383 83.5973 61.0148C83.2412 60.7913 82.8208 60.6796 82.3359 60.6796C81.8018 60.6796 81.3397 60.8121 80.9496 61.0773C80.5632 61.3386 80.2659 61.6796 80.0575 62.1C79.8492 62.5205 79.745 62.9712 79.745 63.4523V64.225C79.745 64.8841 79.8587 65.4428 80.0859 65.9011C80.317 66.3557 80.6371 66.7023 81.0462 66.9409C81.4553 67.1758 81.9306 67.2932 82.4723 67.2932C82.8246 67.2932 83.1428 67.2439 83.4268 67.1455C83.7147 67.0432 83.9628 66.8917 84.1712 66.6909C84.3795 66.4864 84.5405 66.2326 84.6541 65.9296L85.9496 66.2932C85.8132 66.7326 85.584 67.1189 85.2621 67.4523C84.9401 67.7818 84.5424 68.0394 84.0689 68.225C83.5954 68.4068 83.0632 68.4977 82.4723 68.4977ZM88.8913 59.5886L90.9822 63.1568L93.0732 59.5886H94.6186L91.8004 63.9523L94.6186 68.3159H93.0732L90.9822 64.9296L88.8913 68.3159H87.3459L90.1186 63.9523L87.3459 59.5886H88.8913ZM96.532 71.5886V59.5886H97.8274V60.975H97.9865C98.085 60.8235 98.2214 60.6303 98.3956 60.3955C98.5736 60.1568 98.8274 59.9447 99.157 59.7591C99.4903 59.5697 99.9411 59.475 100.509 59.475C101.244 59.475 101.892 59.6587 102.452 60.0261C103.013 60.3936 103.451 60.9144 103.765 61.5886C104.079 62.2629 104.237 63.0583 104.237 63.975C104.237 64.8993 104.079 65.7004 103.765 66.3784C103.451 67.0527 103.015 67.5754 102.458 67.9466C101.901 68.314 101.259 68.4977 100.532 68.4977C99.9714 68.4977 99.5225 68.4049 99.1854 68.2193C98.8482 68.0299 98.5888 67.8159 98.407 67.5773C98.2251 67.3349 98.085 67.1341 97.9865 66.975H97.8729V71.5886H96.532ZM97.8501 63.9523C97.8501 64.6114 97.9467 65.1928 98.1399 65.6966C98.3331 66.1966 98.6153 66.5886 98.9865 66.8727C99.3577 67.153 99.8123 67.2932 100.35 67.2932C100.911 67.2932 101.379 67.1455 101.754 66.85C102.132 66.5508 102.416 66.1493 102.606 65.6455C102.799 65.1379 102.896 64.5735 102.896 63.9523C102.896 63.3386 102.801 62.7856 102.612 62.2932C102.426 61.797 102.144 61.4049 101.765 61.1171C101.39 60.8254 100.918 60.6796 100.35 60.6796C99.8047 60.6796 99.3464 60.8178 98.9751 61.0943C98.6039 61.3671 98.3236 61.7496 98.1342 62.2421C97.9448 62.7307 97.8501 63.3008 97.8501 63.9523ZM109.941 68.4977C109.1 68.4977 108.375 68.3121 107.765 67.9409C107.159 67.5659 106.691 67.0432 106.362 66.3727C106.036 65.6985 105.873 64.9144 105.873 64.0205C105.873 63.1265 106.036 62.3386 106.362 61.6568C106.691 60.9712 107.149 60.4371 107.737 60.0546C108.327 59.6682 109.017 59.475 109.805 59.475C110.259 59.475 110.708 59.5508 111.151 59.7023C111.594 59.8538 111.998 60.1 112.362 60.4409C112.725 60.778 113.015 61.225 113.231 61.7818C113.447 62.3386 113.555 63.0243 113.555 63.8386V64.4068H106.827V63.2477H112.191C112.191 62.7553 112.093 62.3159 111.896 61.9296C111.702 61.5432 111.426 61.2383 111.066 61.0148C110.71 60.7913 110.29 60.6796 109.805 60.6796C109.271 60.6796 108.808 60.8121 108.418 61.0773C108.032 61.3386 107.735 61.6796 107.526 62.1C107.318 62.5205 107.214 62.9712 107.214 63.4523V64.225C107.214 64.8841 107.327 65.4428 107.555 65.9011C107.786 66.3557 108.106 66.7023 108.515 66.9409C108.924 67.1758 109.399 67.2932 109.941 67.2932C110.293 67.2932 110.612 67.2439 110.896 67.1455C111.183 67.0432 111.432 66.8917 111.64 66.6909C111.848 66.4864 112.009 66.2326 112.123 65.9296L113.418 66.2932C113.282 66.7326 113.053 67.1189 112.731 67.4523C112.409 67.7818 112.011 68.0394 111.538 68.225C111.064 68.4068 110.532 68.4977 109.941 68.4977ZM115.594 68.3159V59.5886H116.89V60.9068H116.981C117.14 60.475 117.428 60.1246 117.844 59.8557C118.261 59.5868 118.731 59.4523 119.254 59.4523C119.352 59.4523 119.475 59.4542 119.623 59.458C119.771 59.4618 119.882 59.4674 119.958 59.475V60.8386C119.913 60.8273 119.808 60.8102 119.646 60.7875C119.487 60.761 119.318 60.7477 119.14 60.7477C118.716 60.7477 118.337 60.8368 118.004 61.0148C117.674 61.189 117.413 61.4314 117.219 61.7421C117.03 62.0489 116.935 62.3993 116.935 62.7932V68.3159H115.594ZM121.548 68.3159V59.5886H122.888V68.3159H121.548ZM122.229 58.1341C121.968 58.1341 121.743 58.0451 121.553 57.8671C121.368 57.689 121.275 57.475 121.275 57.225C121.275 56.975 121.368 56.761 121.553 56.583C121.743 56.4049 121.968 56.3159 122.229 56.3159C122.491 56.3159 122.714 56.4049 122.9 56.583C123.089 56.761 123.184 56.975 123.184 57.225C123.184 57.475 123.089 57.689 122.9 57.8671C122.714 58.0451 122.491 58.1341 122.229 58.1341ZM129.004 68.4977C128.163 68.4977 127.437 68.3121 126.827 67.9409C126.221 67.5659 125.754 67.0432 125.424 66.3727C125.098 65.6985 124.935 64.9144 124.935 64.0205C124.935 63.1265 125.098 62.3386 125.424 61.6568C125.754 60.9712 126.212 60.4371 126.799 60.0546C127.39 59.6682 128.079 59.475 128.867 59.475C129.322 59.475 129.771 59.5508 130.214 59.7023C130.657 59.8538 131.06 60.1 131.424 60.4409C131.788 60.778 132.077 61.225 132.293 61.7818C132.509 62.3386 132.617 63.0243 132.617 63.8386V64.4068H125.89V63.2477H131.254C131.254 62.7553 131.155 62.3159 130.958 61.9296C130.765 61.5432 130.488 61.2383 130.129 61.0148C129.772 60.7913 129.352 60.6796 128.867 60.6796C128.333 60.6796 127.871 60.8121 127.481 61.0773C127.094 61.3386 126.797 61.6796 126.589 62.1C126.38 62.5205 126.276 62.9712 126.276 63.4523V64.225C126.276 64.8841 126.39 65.4428 126.617 65.9011C126.848 66.3557 127.168 66.7023 127.577 66.9409C127.987 67.1758 128.462 67.2932 129.004 67.2932C129.356 67.2932 129.674 67.2439 129.958 67.1455C130.246 67.0432 130.494 66.8917 130.702 66.6909C130.911 66.4864 131.072 66.2326 131.185 65.9296L132.481 66.2932C132.344 66.7326 132.115 67.1189 131.793 67.4523C131.471 67.7818 131.074 68.0394 130.6 68.225C130.127 68.4068 129.594 68.4977 129.004 68.4977ZM135.998 63.0659V68.3159H134.657V59.5886H135.952V60.9523H136.066C136.271 60.5091 136.581 60.153 136.998 59.8841C137.415 59.6114 137.952 59.475 138.612 59.475C139.202 59.475 139.719 59.5962 140.163 59.8386C140.606 60.0773 140.951 60.4409 141.197 60.9296C141.443 61.4144 141.566 62.028 141.566 62.7705V68.3159H140.225V62.8614C140.225 62.1758 140.047 61.6417 139.691 61.2591C139.335 60.8727 138.846 60.6796 138.225 60.6796C137.797 60.6796 137.415 60.7724 137.077 60.958C136.744 61.1436 136.481 61.4144 136.288 61.7705C136.094 62.1265 135.998 62.5583 135.998 63.0659ZM147.562 68.4977C146.744 68.4977 146.039 68.3046 145.448 67.9182C144.857 67.5318 144.403 66.9996 144.085 66.3216C143.766 65.6436 143.607 64.8689 143.607 63.9977C143.607 63.1114 143.77 62.3292 144.096 61.6511C144.425 60.9693 144.884 60.4371 145.471 60.0546C146.062 59.6682 146.751 59.475 147.539 59.475C148.153 59.475 148.706 59.5886 149.198 59.8159C149.691 60.0432 150.094 60.3614 150.408 60.7705C150.723 61.1796 150.918 61.6568 150.994 62.2023H149.653C149.55 61.8046 149.323 61.4523 148.971 61.1455C148.622 60.8349 148.153 60.6796 147.562 60.6796C147.039 60.6796 146.581 60.8159 146.187 61.0886C145.797 61.3576 145.492 61.7383 145.272 62.2307C145.056 62.7193 144.948 63.2932 144.948 63.9523C144.948 64.6265 145.054 65.2136 145.266 65.7136C145.482 66.2136 145.785 66.6019 146.175 66.8784C146.569 67.1549 147.031 67.2932 147.562 67.2932C147.91 67.2932 148.227 67.2326 148.511 67.1114C148.795 66.9902 149.035 66.8159 149.232 66.5886C149.429 66.3614 149.569 66.0886 149.653 65.7705H150.994C150.918 66.2856 150.73 66.7496 150.431 67.1625C150.136 67.5716 149.744 67.8974 149.255 68.1398C148.77 68.3784 148.206 68.4977 147.562 68.4977ZM156.613 68.4977C155.772 68.4977 155.047 68.3121 154.437 67.9409C153.831 67.5659 153.363 67.0432 153.033 66.3727C152.708 65.6985 152.545 64.9144 152.545 64.0205C152.545 63.1265 152.708 62.3386 153.033 61.6568C153.363 60.9712 153.821 60.4371 154.408 60.0546C154.999 59.6682 155.689 59.475 156.477 59.475C156.931 59.475 157.38 59.5508 157.823 59.7023C158.266 59.8538 158.67 60.1 159.033 60.4409C159.397 60.778 159.687 61.225 159.903 61.7818C160.119 62.3386 160.227 63.0243 160.227 63.8386V64.4068H153.499V63.2477H158.863C158.863 62.7553 158.764 62.3159 158.567 61.9296C158.374 61.5432 158.098 61.2383 157.738 61.0148C157.382 60.7913 156.961 60.6796 156.477 60.6796C155.942 60.6796 155.48 60.8121 155.09 61.0773C154.704 61.3386 154.406 61.6796 154.198 62.1C153.99 62.5205 153.886 62.9712 153.886 63.4523V64.225C153.886 64.8841 153.999 65.4428 154.227 65.9011C154.458 66.3557 154.778 66.7023 155.187 66.9409C155.596 67.1758 156.071 67.2932 156.613 67.2932C156.965 67.2932 157.283 67.2439 157.567 67.1455C157.855 67.0432 158.103 66.8917 158.312 66.6909C158.52 66.4864 158.681 66.2326 158.795 65.9296L160.09 66.2932C159.954 66.7326 159.725 67.1189 159.403 67.4523C159.081 67.7818 158.683 68.0394 158.21 68.225C157.736 68.4068 157.204 68.4977 156.613 68.4977ZM164.266 66.725L164.175 67.3386C164.111 67.7705 164.013 68.2326 163.88 68.725C163.751 69.2174 163.617 69.6814 163.477 70.1171C163.336 70.5527 163.221 70.8993 163.13 71.1568H162.107C162.156 70.9144 162.221 70.5943 162.3 70.1966C162.38 69.7989 162.46 69.3538 162.539 68.8614C162.622 68.3727 162.691 67.8727 162.744 67.3614L162.812 66.725H164.266ZM171.251 68.3159V59.5886H172.546V60.9523H172.66C172.842 60.4864 173.135 60.1246 173.54 59.8671C173.946 59.6057 174.433 59.475 175.001 59.475C175.576 59.475 176.056 59.6057 176.438 59.8671C176.825 60.1246 177.126 60.4864 177.342 60.9523H177.433C177.656 60.5015 177.991 60.1436 178.438 59.8784C178.885 59.6095 179.421 59.475 180.046 59.475C180.826 59.475 181.465 59.7193 181.961 60.208C182.457 60.6928 182.705 61.4485 182.705 62.475V68.3159H181.364V62.475C181.364 61.8311 181.188 61.3708 180.836 61.0943C180.484 60.8178 180.069 60.6796 179.592 60.6796C178.978 60.6796 178.503 60.8652 178.165 61.2364C177.828 61.6038 177.66 62.0697 177.66 62.6341V68.3159H176.296V62.3386C176.296 61.8424 176.135 61.4428 175.813 61.1398C175.491 60.833 175.076 60.6796 174.569 60.6796C174.22 60.6796 173.895 60.7724 173.592 60.958C173.292 61.1436 173.05 61.4011 172.864 61.7307C172.683 62.0564 172.592 62.4333 172.592 62.8614V68.3159H171.251ZM187.725 68.5205C187.172 68.5205 186.67 68.4163 186.219 68.208C185.769 67.9958 185.411 67.6909 185.146 67.2932C184.88 66.8917 184.748 66.4068 184.748 65.8386C184.748 65.3386 184.846 64.9333 185.043 64.6227C185.24 64.3083 185.504 64.0621 185.833 63.8841C186.163 63.7061 186.526 63.5735 186.924 63.4864C187.326 63.3955 187.729 63.3235 188.134 63.2705C188.665 63.2023 189.094 63.1511 189.424 63.1171C189.757 63.0792 190 63.0167 190.151 62.9296C190.307 62.8424 190.384 62.6909 190.384 62.475V62.4296C190.384 61.8689 190.231 61.4333 189.924 61.1227C189.621 60.8121 189.161 60.6568 188.543 60.6568C187.903 60.6568 187.401 60.797 187.038 61.0773C186.674 61.3576 186.418 61.6568 186.271 61.975L184.998 61.5205C185.225 60.9902 185.528 60.5773 185.907 60.2818C186.29 59.9826 186.706 59.7743 187.157 59.6568C187.612 59.5356 188.058 59.475 188.498 59.475C188.778 59.475 189.1 59.5091 189.464 59.5773C189.831 59.6417 190.185 59.7761 190.526 59.9807C190.871 60.1852 191.157 60.4939 191.384 60.9068C191.612 61.3197 191.725 61.8727 191.725 62.5659V68.3159H190.384V67.1341H190.316C190.225 67.3235 190.074 67.5261 189.862 67.7421C189.649 67.958 189.367 68.1417 189.015 68.2932C188.663 68.4447 188.233 68.5205 187.725 68.5205ZM187.93 67.3159C188.46 67.3159 188.907 67.2118 189.271 67.0034C189.638 66.7951 189.915 66.5261 190.1 66.1966C190.29 65.8671 190.384 65.5205 190.384 65.1568V63.9296C190.327 63.9977 190.202 64.0602 190.009 64.1171C189.82 64.1701 189.6 64.2174 189.35 64.2591C189.104 64.297 188.863 64.3311 188.629 64.3614C188.397 64.3879 188.21 64.4106 188.066 64.4296C187.718 64.475 187.392 64.5489 187.089 64.6511C186.79 64.7496 186.547 64.8993 186.362 65.1C186.18 65.297 186.089 65.5659 186.089 65.9068C186.089 66.3727 186.261 66.725 186.606 66.9636C186.954 67.1985 187.396 67.3159 187.93 67.3159ZM195.173 59.5886L197.263 63.1568L199.354 59.5886H200.9L198.082 63.9523L200.9 68.3159H199.354L197.263 64.9296L195.173 68.3159H193.627L196.4 63.9523L193.627 59.5886H195.173ZM202.813 68.3159V59.5886H204.154V68.3159H202.813ZM203.495 58.1341C203.234 58.1341 203.008 58.0451 202.819 57.8671C202.633 57.689 202.54 57.475 202.54 57.225C202.54 56.975 202.633 56.761 202.819 56.583C203.008 56.4049 203.234 56.3159 203.495 56.3159C203.756 56.3159 203.98 56.4049 204.165 56.583C204.355 56.761 204.45 56.975 204.45 57.225C204.45 57.475 204.355 57.689 204.165 57.8671C203.98 58.0451 203.756 58.1341 203.495 58.1341ZM206.61 68.3159V59.5886H207.906V60.9523H208.019C208.201 60.4864 208.495 60.1246 208.9 59.8671C209.305 59.6057 209.792 59.475 210.36 59.475C210.936 59.475 211.415 59.6057 211.798 59.8671C212.184 60.1246 212.485 60.4864 212.701 60.9523H212.792C213.015 60.5015 213.351 60.1436 213.798 59.8784C214.245 59.6095 214.781 59.475 215.406 59.475C216.186 59.475 216.824 59.7193 217.32 60.208C217.817 60.6928 218.065 61.4485 218.065 62.475V68.3159H216.724V62.475C216.724 61.8311 216.548 61.3708 216.195 61.0943C215.843 60.8178 215.428 60.6796 214.951 60.6796C214.337 60.6796 213.862 60.8652 213.525 61.2364C213.188 61.6038 213.019 62.0697 213.019 62.6341V68.3159H211.656V62.3386C211.656 61.8424 211.495 61.4428 211.173 61.1398C210.851 60.833 210.436 60.6796 209.928 60.6796C209.58 60.6796 209.254 60.7724 208.951 60.958C208.652 61.1436 208.409 61.4011 208.224 61.7307C208.042 62.0564 207.951 62.4333 207.951 62.8614V68.3159H206.61ZM226.016 64.7477V59.5886H227.357V68.3159H226.016V66.8386H225.925C225.721 67.2818 225.403 67.6587 224.971 67.9693C224.539 68.2761 223.994 68.4296 223.335 68.4296C222.789 68.4296 222.304 68.3102 221.88 68.0716C221.456 67.8292 221.122 67.4655 220.88 66.9807C220.638 66.4921 220.516 65.8765 220.516 65.1341V59.5886H221.857V65.0432C221.857 65.6796 222.035 66.1871 222.391 66.5659C222.751 66.9447 223.21 67.1341 223.766 67.1341C224.1 67.1341 224.439 67.0489 224.783 66.8784C225.132 66.708 225.424 66.4466 225.658 66.0943C225.897 65.7421 226.016 65.2932 226.016 64.7477ZM229.813 68.3159V59.5886H231.109V60.9523H231.222C231.404 60.4864 231.698 60.1246 232.103 59.8671C232.508 59.6057 232.995 59.475 233.563 59.475C234.139 59.475 234.618 59.6057 235.001 59.8671C235.387 60.1246 235.688 60.4864 235.904 60.9523H235.995C236.219 60.5015 236.554 60.1436 237.001 59.8784C237.448 59.6095 237.984 59.475 238.609 59.475C239.389 59.475 240.027 59.7193 240.523 60.208C241.02 60.6928 241.268 61.4485 241.268 62.475V68.3159H239.927V62.475C239.927 61.8311 239.751 61.3708 239.398 61.0943C239.046 60.8178 238.631 60.6796 238.154 60.6796C237.54 60.6796 237.065 60.8652 236.728 61.2364C236.391 61.6038 236.222 62.0697 236.222 62.6341V68.3159H234.859V62.3386C234.859 61.8424 234.698 61.4428 234.376 61.1398C234.054 60.833 233.639 60.6796 233.131 60.6796C232.783 60.6796 232.457 60.7724 232.154 60.958C231.855 61.1436 231.612 61.4011 231.427 61.7307C231.245 62.0564 231.154 62.4333 231.154 62.8614V68.3159H229.813ZM248.219 68.3159V59.5886H249.56V68.3159H248.219ZM248.901 58.1341C248.64 58.1341 248.415 58.0451 248.225 57.8671C248.04 57.689 247.947 57.475 247.947 57.225C247.947 56.975 248.04 56.761 248.225 56.583C248.415 56.4049 248.64 56.3159 248.901 56.3159C249.163 56.3159 249.386 56.4049 249.572 56.583C249.761 56.761 249.856 56.975 249.856 57.225C249.856 57.475 249.761 57.689 249.572 57.8671C249.386 58.0451 249.163 58.1341 248.901 58.1341ZM253.357 63.0659V68.3159H252.016V59.5886H253.312V60.9523H253.425C253.63 60.5091 253.941 60.153 254.357 59.8841C254.774 59.6114 255.312 59.475 255.971 59.475C256.562 59.475 257.079 59.5962 257.522 59.8386C257.965 60.0773 258.31 60.4409 258.556 60.9296C258.802 61.4144 258.925 62.028 258.925 62.7705V68.3159H257.585V62.8614C257.585 62.1758 257.406 61.6417 257.05 61.2591C256.694 60.8727 256.206 60.6796 255.585 60.6796C255.156 60.6796 254.774 60.7724 254.437 60.958C254.103 61.1436 253.84 61.4144 253.647 61.7705C253.454 62.1265 253.357 62.5583 253.357 63.0659ZM268.2 59.5886L264.972 68.3159H263.609L260.381 59.5886H261.836L264.245 66.5432H264.336L266.745 59.5886H268.2ZM273.316 68.4977C272.475 68.4977 271.75 68.3121 271.14 67.9409C270.534 67.5659 270.066 67.0432 269.737 66.3727C269.411 65.6985 269.248 64.9144 269.248 64.0205C269.248 63.1265 269.411 62.3386 269.737 61.6568C270.066 60.9712 270.524 60.4371 271.112 60.0546C271.702 59.6682 272.392 59.475 273.18 59.475C273.634 59.475 274.083 59.5508 274.526 59.7023C274.969 59.8538 275.373 60.1 275.737 60.4409C276.1 60.778 276.39 61.225 276.606 61.7818C276.822 62.3386 276.93 63.0243 276.93 63.8386V64.4068H270.202V63.2477H275.566C275.566 62.7553 275.468 62.3159 275.271 61.9296C275.077 61.5432 274.801 61.2383 274.441 61.0148C274.085 60.7913 273.665 60.6796 273.18 60.6796C272.646 60.6796 272.183 60.8121 271.793 61.0773C271.407 61.3386 271.11 61.6796 270.901 62.1C270.693 62.5205 270.589 62.9712 270.589 63.4523V64.225C270.589 64.8841 270.702 65.4428 270.93 65.9011C271.161 66.3557 271.481 66.7023 271.89 66.9409C272.299 67.1758 272.774 67.2932 273.316 67.2932C273.668 67.2932 273.987 67.2439 274.271 67.1455C274.558 67.0432 274.807 66.8917 275.015 66.6909C275.223 66.4864 275.384 66.2326 275.498 65.9296L276.793 66.2932C276.657 66.7326 276.428 67.1189 276.106 67.4523C275.784 67.7818 275.386 68.0394 274.913 68.225C274.439 68.4068 273.907 68.4977 273.316 68.4977ZM285.151 61.5432L283.947 61.8841C283.871 61.6833 283.759 61.4883 283.612 61.2989C283.468 61.1057 283.271 60.9466 283.021 60.8216C282.771 60.6966 282.451 60.6341 282.06 60.6341C281.526 60.6341 281.081 60.7572 280.725 61.0034C280.373 61.2458 280.197 61.5546 280.197 61.9296C280.197 62.2629 280.318 62.5261 280.56 62.7193C280.803 62.9125 281.182 63.0735 281.697 63.2023L282.992 63.5205C283.772 63.7099 284.354 63.9996 284.737 64.3898C285.119 64.7761 285.31 65.2743 285.31 65.8841C285.31 66.3841 285.166 66.8311 284.879 67.225C284.594 67.6189 284.197 67.9296 283.685 68.1568C283.174 68.3841 282.579 68.4977 281.901 68.4977C281.011 68.4977 280.274 68.3046 279.691 67.9182C279.108 67.5318 278.738 66.9674 278.583 66.225L279.856 65.9068C279.977 66.3765 280.206 66.7288 280.543 66.9636C280.884 67.1985 281.329 67.3159 281.879 67.3159C282.504 67.3159 283 67.1833 283.367 66.9182C283.738 66.6493 283.924 66.3273 283.924 65.9523C283.924 65.6493 283.818 65.3955 283.606 65.1909C283.394 64.9826 283.068 64.8273 282.629 64.725L281.174 64.3841C280.375 64.1947 279.788 63.9011 279.413 63.5034C279.041 63.1019 278.856 62.6 278.856 61.9977C278.856 61.5053 278.994 61.0697 279.271 60.6909C279.551 60.3121 279.932 60.0148 280.413 59.7989C280.897 59.583 281.447 59.475 282.06 59.475C282.924 59.475 283.602 59.6644 284.094 60.0432C284.591 60.422 284.943 60.922 285.151 61.5432ZM291.124 59.5886V60.725H286.602V59.5886H291.124ZM287.92 57.4977H289.261V65.8159C289.261 66.1947 289.316 66.4788 289.425 66.6682C289.539 66.8538 289.683 66.9788 289.857 67.0432C290.035 67.1038 290.223 67.1341 290.42 67.1341C290.567 67.1341 290.689 67.1265 290.783 67.1114C290.878 67.0924 290.954 67.0773 291.011 67.0659L291.283 68.2705C291.192 68.3046 291.066 68.3386 290.903 68.3727C290.74 68.4106 290.533 68.4296 290.283 68.4296C289.905 68.4296 289.533 68.3481 289.17 68.1852C288.81 68.0224 288.511 67.7743 288.272 67.4409C288.037 67.1076 287.92 66.6871 287.92 66.1796V57.4977ZM293.141 68.3159V59.5886H294.437V60.9523H294.55C294.732 60.4864 295.026 60.1246 295.431 59.8671C295.836 59.6057 296.323 59.475 296.891 59.475C297.467 59.475 297.946 59.6057 298.329 59.8671C298.715 60.1246 299.016 60.4864 299.232 60.9523H299.323C299.547 60.5015 299.882 60.1436 300.329 59.8784C300.776 59.6095 301.312 59.475 301.937 59.475C302.717 59.475 303.355 59.7193 303.852 60.208C304.348 60.6928 304.596 61.4485 304.596 62.475V68.3159H303.255V62.475C303.255 61.8311 303.079 61.3708 302.727 61.0943C302.374 60.8178 301.96 60.6796 301.482 60.6796C300.869 60.6796 300.393 60.8652 300.056 61.2364C299.719 61.6038 299.55 62.0697 299.55 62.6341V68.3159H298.187V62.3386C298.187 61.8424 298.026 61.4428 297.704 61.1398C297.382 60.833 296.967 60.6796 296.46 60.6796C296.111 60.6796 295.785 60.7724 295.482 60.958C295.183 61.1436 294.941 61.4011 294.755 61.7307C294.573 62.0564 294.482 62.4333 294.482 62.8614V68.3159H293.141ZM310.707 68.4977C309.866 68.4977 309.14 68.3121 308.531 67.9409C307.924 67.5659 307.457 67.0432 307.127 66.3727C306.801 65.6985 306.638 64.9144 306.638 64.0205C306.638 63.1265 306.801 62.3386 307.127 61.6568C307.457 60.9712 307.915 60.4371 308.502 60.0546C309.093 59.6682 309.782 59.475 310.57 59.475C311.025 59.475 311.474 59.5508 311.917 59.7023C312.36 59.8538 312.763 60.1 313.127 60.4409C313.491 60.778 313.781 61.225 313.996 61.7818C314.212 62.3386 314.32 63.0243 314.32 63.8386V64.4068H307.593V63.2477H312.957C312.957 62.7553 312.858 62.3159 312.661 61.9296C312.468 61.5432 312.192 61.2383 311.832 61.0148C311.476 60.7913 311.055 60.6796 310.57 60.6796C310.036 60.6796 309.574 60.8121 309.184 61.0773C308.798 61.3386 308.5 61.6796 308.292 62.1C308.084 62.5205 307.979 62.9712 307.979 63.4523V64.225C307.979 64.8841 308.093 65.4428 308.32 65.9011C308.551 66.3557 308.871 66.7023 309.281 66.9409C309.69 67.1758 310.165 67.2932 310.707 67.2932C311.059 67.2932 311.377 67.2439 311.661 67.1455C311.949 67.0432 312.197 66.8917 312.406 66.6909C312.614 66.4864 312.775 66.2326 312.888 65.9296L314.184 66.2932C314.048 66.7326 313.818 67.1189 313.496 67.4523C313.174 67.7818 312.777 68.0394 312.303 68.225C311.83 68.4068 311.298 68.4977 310.707 68.4977ZM317.701 63.0659V68.3159H316.36V59.5886H317.656V60.9523H317.769C317.974 60.5091 318.284 60.153 318.701 59.8841C319.118 59.6114 319.656 59.475 320.315 59.475C320.906 59.475 321.423 59.5962 321.866 59.8386C322.309 60.0773 322.654 60.4409 322.9 60.9296C323.146 61.4144 323.269 62.028 323.269 62.7705V68.3159H321.928V62.8614C321.928 62.1758 321.75 61.6417 321.394 61.2591C321.038 60.8727 320.549 60.6796 319.928 60.6796C319.5 60.6796 319.118 60.7724 318.781 60.958C318.447 61.1436 318.184 61.4144 317.991 61.7705C317.798 62.1265 317.701 62.5583 317.701 63.0659ZM329.515 59.5886V60.725H324.992V59.5886H329.515ZM326.31 57.4977H327.651V65.8159C327.651 66.1947 327.706 66.4788 327.816 66.6682C327.93 66.8538 328.074 66.9788 328.248 67.0432C328.426 67.1038 328.613 67.1341 328.81 67.1341C328.958 67.1341 329.079 67.1265 329.174 67.1114C329.269 67.0924 329.344 67.0773 329.401 67.0659L329.674 68.2705C329.583 68.3046 329.456 68.3386 329.293 68.3727C329.13 68.4106 328.924 68.4296 328.674 68.4296C328.295 68.4296 327.924 68.3481 327.56 68.1852C327.201 68.0224 326.901 67.7743 326.663 67.4409C326.428 67.1076 326.31 66.6871 326.31 66.1796V57.4977ZM332.509 68.4068C332.229 68.4068 331.988 68.3064 331.788 68.1057C331.587 67.9049 331.487 67.6644 331.487 67.3841C331.487 67.1038 331.587 66.8633 331.788 66.6625C331.988 66.4618 332.229 66.3614 332.509 66.3614C332.79 66.3614 333.03 66.4618 333.231 66.6625C333.432 66.8633 333.532 67.1038 333.532 67.3841C333.532 67.5697 333.485 67.7402 333.39 67.8955C333.299 68.0508 333.176 68.1758 333.021 68.2705C332.869 68.3614 332.699 68.4068 332.509 68.4068Z"
            fill="white" />
    </symbol>
    <symbol id='facebook' viewBox="0 0 32 33">
        <circle cx="16" cy="16.3164" r="16" fill="white"></circle>
        <path fill-rule="evenodd" clip-rule="evenodd"
            d="M17.401 17.0192V25.7241H13.7994V17.0196H12V14.0198H13.7994V12.2188C13.7994 9.7716 14.8154 8.31641 17.7021 8.31641H20.1054V11.3165H18.6032C17.4795 11.3165 17.4051 11.7357 17.4051 12.5181L17.401 14.0195H20.1224L19.804 17.0192H17.401Z"
            fill="black"></path>
    </symbol>
    <symbol id='twitter' viewBox="0 0 32 33">
        <path
            d="M0 16.3164C0 7.47985 7.16344 0.316406 16 0.316406C24.8366 0.316406 32 7.47985 32 16.3164C32 25.153 24.8366 32.3164 16 32.3164C7.16344 32.3164 0 25.153 0 16.3164Z"
            fill="white"></path>
        <path
            d="M15.5208 13.321L15.5544 13.8747L14.9948 13.8069C12.9579 13.547 11.1784 12.6657 9.66756 11.1856L8.92891 10.4511L8.73865 10.9935C8.33575 12.2024 8.59316 13.4792 9.43253 14.3379C9.8802 14.8124 9.77948 14.8802 9.00725 14.5978C8.73865 14.5074 8.50363 14.4396 8.48124 14.4735C8.4029 14.5526 8.6715 15.5808 8.88414 15.9875C9.17513 16.5524 9.76828 17.1061 10.4174 17.4337L10.9658 17.6936L10.3167 17.7049C9.68994 17.7049 9.66756 17.7162 9.73471 17.9535C9.95854 18.6879 10.8427 19.4675 11.8276 19.8065L12.5214 20.0437L11.9171 20.4053C11.0218 20.925 9.96973 21.2188 8.91772 21.2414C8.41409 21.2527 8 21.2979 8 21.3318C8 21.4448 9.36538 22.0775 10.16 22.3261C12.5438 23.0605 15.3753 22.7441 17.5017 21.49C19.0126 20.5974 20.5235 18.8235 21.2286 17.1061C21.6091 16.1909 21.9896 14.5187 21.9896 13.7165C21.9896 13.1967 22.0232 13.1289 22.6499 12.5075C23.0192 12.146 23.3662 11.7505 23.4333 11.6375C23.5452 11.4228 23.534 11.4228 22.9633 11.6149C22.012 11.9539 21.8777 11.9087 22.3477 11.4002C22.6947 11.0387 23.1088 10.3834 23.1088 10.1913C23.1088 10.1574 22.9409 10.2139 22.7506 10.3156C22.5492 10.4285 22.1015 10.598 21.7658 10.6997L21.1614 10.8918L20.613 10.5189C20.3108 10.3156 19.8856 10.0896 19.6617 10.0218C19.0909 9.86362 18.218 9.88621 17.7032 10.067C16.3042 10.5754 15.4201 11.8861 15.5208 13.321Z"
            fill="black"></path>
    </symbol>
    <symbol id='telegram' viewBox="0 0 32 33">
        <path
            d="M16 32.3164C24.8365 32.3164 32 25.1529 32 16.3164C32 7.47987 24.8365 0.316406 16 0.316406C7.16347 0.316406 0 7.47987 0 16.3164C0 25.1529 7.16347 32.3164 16 32.3164Z"
            fill="white"></path>
        <path
            d="M5.95881 17.099C7.8292 16.0687 9.91707 15.2089 11.8679 14.3446C15.224 12.929 18.5935 11.5379 21.9969 10.2429C22.6591 10.0222 23.8489 9.80639 23.9656 10.7877C23.9017 12.1768 23.6389 13.5577 23.4587 14.9387C23.0011 17.9755 22.4723 21.0019 21.9567 24.0287C21.779 25.0369 20.516 25.5588 19.7079 24.9136C17.7657 23.6017 15.8087 22.3027 13.8913 20.9604C13.2633 20.3222 13.8457 19.4057 14.4066 18.95C16.0062 17.3736 17.7026 16.0343 19.2186 14.3764C19.6275 13.3889 18.4193 14.2211 18.0207 14.4761C15.8309 15.9852 13.6946 17.5864 11.3858 18.9127C10.2065 19.5619 8.83193 19.0071 7.65313 18.6448C6.59619 18.2072 5.04737 17.7663 5.95871 17.0991L5.95881 17.099Z"
            fill="black"></path>
    </symbol>
    <symbol id='youtube' viewBox="0 0 32 33">
        <path
            d="M0 16.3164C0 7.47985 7.16344 0.316406 16 0.316406C24.8366 0.316406 32 7.47985 32 16.3164C32 25.153 24.8366 32.3164 16 32.3164C7.16344 32.3164 0 25.153 0 16.3164Z"
            fill="white"></path>
        <path
            d="M24.1767 12.3657C23.9804 11.6117 23.4021 11.0179 22.6677 10.8164C21.3369 10.4502 16 10.4502 16 10.4502C16 10.4502 10.6631 10.4502 9.33218 10.8164C8.59783 11.0179 8.0195 11.6117 7.82323 12.3657C7.46667 13.7322 7.46667 16.5835 7.46667 16.5835C7.46667 16.5835 7.46667 19.4347 7.82323 20.8014C8.0195 21.5554 8.59783 22.1491 9.33218 22.3507C10.6631 22.7169 16 22.7169 16 22.7169C16 22.7169 21.3369 22.7169 22.6677 22.3507C23.4021 22.1491 23.9804 21.5554 24.1767 20.8014C24.5333 19.4347 24.5333 16.5835 24.5333 16.5835C24.5333 16.5835 24.5333 13.7322 24.1767 12.3657Z"
            fill="black"></path>
        <path d="M14.4 19.516V14.1826L18.6667 16.8494L14.4 19.516Z" fill="white"></path>
    </symbol>
    <symbol id='high' viewBox="0 0 24 24">

        <path d="m7 14 5-5 5 5z"></path>

    </symbol>

    <symbol id='lower' viewBox="0 0 24 24">

        <path d="m7 10 5 5 5-5z"></path>

    </symbol>

    <symbol id='eth' viewBox="0 0 22 23">
        <g>
            <path
                d="M11 22.0399C17.0751 22.0399 22 17.1682 22 11.1586C22 5.14907 17.0751 0.277344 11 0.277344C4.92487 0.277344 0 5.14907 0 11.1586C0 17.1682 4.92487 22.0399 11 22.0399Z"
                fill="#627EEA" />
            <path d="M11.3423 2.99756V9.02988L16.4965 11.3081L11.3423 2.99756Z" fill="white"
                fill-opacity="0.602" />
            <path d="M11.3424 2.99756L6.1875 11.3081L11.3424 9.02988V2.99756Z" fill="white" />
            <path d="M11.3423 15.2175V19.3164L16.4999 12.2578L11.3423 15.2175Z" fill="white"
                fill-opacity="0.602" />
            <path d="M11.3424 19.3164V15.2168L6.1875 12.2578L11.3424 19.3164Z" fill="white" />
            <path d="M11.3423 14.2686L16.4965 11.3082L11.3423 9.03125V14.2686Z" fill="white"
                fill-opacity="0.2" />
            <path d="M6.1875 11.3082L11.3424 14.2686V9.03125L6.1875 11.3082Z" fill="white"
                fill-opacity="0.602" />
        </g>
    </symbol>
    <symbol id='bnb' viewBox="0 0 22 22">
        <g>
            <path
                d="M21.6709 13.661C20.2016 19.5539 14.2323 23.1402 8.33806 21.6707C2.44625 20.2015 -1.14047 14.2326 0.329471 8.34017C1.79812 2.44661 7.76736 -1.13997 13.6598 0.329158C19.5537 1.79829 23.1402 7.76788 21.6707 13.6611L21.6708 13.661H21.6709Z"
                fill="#F3BA2F" />
            <path fill-rule="evenodd" clip-rule="evenodd"
                d="M11.0022 6.98215L8.1535 9.83053L8.15356 9.83041L6.49609 8.17308L11.0022 3.66748L15.5098 8.17443L13.8523 9.83176L11.0022 6.98215ZM5.32555 9.34329L3.66797 11.0009L5.32543 12.658L6.98301 11.0006L5.32555 9.34329ZM8.15194 12.1713L11.0006 15.0195L13.8506 12.1699L15.509 13.8264L15.5082 13.8273L11.0006 18.3341L6.49453 13.8285L6.49219 13.8262L8.15194 12.1713ZM16.681 9.34401L15.0234 11.0014L16.681 12.6587L18.3385 11.0013L16.681 9.34401Z"
                fill="white" />
            <path
                d="M12.6803 10.9991H12.681L10.9992 9.31738L9.7561 10.56L9.61329 10.7029L9.31875 10.9974L9.31641 10.9997L9.31875 11.0021L10.9992 12.6826L12.6811 11.0009L12.682 10.9999L12.6804 10.9991"
                fill="white" />
        </g>

    </symbol>
    <symbol id='missions' viewBox="0 0 32 32">

        <circle cx="16" cy="16" r="16" fill="#fff" />
        <path fill-rule="evenodd" clip-rule="evenodd"
            d="M28.0004 16.137L21.1923 9.33594V14.3167L14.4324 19.3036L21.1923 19.3083V22.938L28.0004 16.137Z"
            fill="#4E529A" />
        <path fill-rule="evenodd" clip-rule="evenodd"
            d="M4 16.1345L10.8082 22.9355V18.0075L17.5186 13.0173L10.8082 13.0127V9.3335L4 16.1345Z"
            fill="#8C8DFC" />

    </symbol>
</svg>